<?xml version="1.0" standalone="no"?>
<!DOCTYPE svg PUBLIC "-//W3C//DTD SVG 1.1//EN" 
"http://www.w3.org/Graphics/SVG/1.1/DTD/svg11.dtd">
<svg width="1410" height="1000" version="1.1" xmlns="http://www.w3.org/2000/svg">
<path d="M1140.3385 229.5966 C893.3672 165.0007, 467.7087 445.7316, 430.0758 698.2216 C401.9072 887.2131, 887.2667 962.9438, 1046.7268 857.6646 C1204.9355 753.2116, 1319.4652 280.2466, 1136.1051 232.0851 C890.6758 167.6205, 462.3495 443.7722, 428.327 695.2353 C402.4273 886.662, 889.9189 963.0096, 1051.5291 857.193 C1209.092 754.0263, 1313.973 282.6346, 1131.8741 234.5777 C887.9849 170.2138, 456.9569 441.8588, 426.56 692.2599 C403.0276 886.1134, 892.553 963.1474, 1056.3394 856.8129 C1213.3043 754.9071, 1308.545 285.0654, 1127.655 237.0902 C885.2934 172.8117, 451.5223 439.9982, 424.7567 689.3062 C403.6851 885.577, 895.1661 963.34, 1061.1549 856.504 C1217.5665 755.8323, 1303.1732 287.5212, 1123.4403 239.6101 C882.5939 175.4082, 446.0512 438.1904, 422.9225 686.3717 C404.4076 885.0445, 897.7573 963.5687, 1065.9736 856.2518 C1221.8729 756.7928, 1297.8573 290.0077, 1119.235 242.1456 C879.8948 178.0142, 440.5604 436.4335, 421.0695 683.449 C405.2052 884.5018, 900.3298 963.8211, 1070.7947 856.0452 C1226.2212 757.7773, 1292.5947 292.5114, 1115.0356 244.6911 C877.183 180.6326, 435.0313 434.7344, 419.1773 680.5515 C406.0582 883.9639, 902.8791 964.0911, 1075.6172 855.8771 C1230.6091 758.7804, 1287.3833 295.0389, 1110.8434 247.2483 C874.4716 183.2608, 429.4962 433.0851, 417.2763 677.6597 C406.9967 883.4006, 905.411 964.368, 1080.4407 855.7418 C1235.0355 759.7977, 1282.2246 297.5822, 1106.6587 249.8178 C871.7474 185.9078, 423.9286 431.4956, 415.3367 674.7936 C407.9898 882.8359, 907.9205 964.648, 1085.2648 855.6316 C1239.4988 760.8214, 1277.114 300.1428, 1102.4792 252.3958 C869.0206 188.5657, 418.3592 429.9572, 413.3886 671.9334 C409.0685 882.2396, 910.4128 964.9227, 1090.0895 855.5443 C1243.9985 761.8519, 1272.0547 302.7203, 1098.3082 254.9876 C866.2849 191.2446, 412.7711 428.4771, 411.4112 669.0933 C410.21 881.6278, 912.885 965.1922, 1094.9144 855.4759 C1248.5347 762.8829, 1267.0425 305.3106, 1094.141 257.5852 C863.5427 193.9338, 407.1819 427.0502, 409.422 666.2615 C411.4327 880.9818, 915.3392 965.4468, 1099.7395 855.4225 C1253.1058 763.9149, 1262.0807 307.9189, 1089.9832 260.1978 C860.7944 196.6459, 401.5849 425.6804, 407.41 663.4459 C412.723 880.309, 917.7753 965.6893, 1104.5648 855.3829 C1257.7136 764.9427, 1257.165 310.5369, 1085.8275 262.8142 C858.0368 199.3675, 395.9891 424.3649, 405.3847 660.6398 C414.0917 879.5976, 920.1932 965.9105, 1109.3901 855.3535 C1262.3558 765.9681, 1252.2993 313.1739, 1081.6819 265.4463 C855.2751 202.1124, 390.3945 423.1054, 403.3411 657.847 C415.5299 878.85, 922.5944 966.1132, 1114.2156 855.3331 C1267.0347 766.9852, 1247.4789 315.8183, 1077.5375 268.0802 C852.5026 204.8658, 384.8051 421.9005, 401.2841 655.064 C417.0444 878.0586, 924.9776 966.2889, 1119.041 855.319 C1271.7478 767.9977, 1242.7083 318.4825, 1073.4034 270.7305 C849.7269 207.643, 379.2239 420.7506, 399.2114 652.2927 C418.6281 877.223, 927.345 966.4405, 1123.8663 855.3098 C1276.4974 768.9986, 1237.9822 321.1533, 1069.2701 273.3818 C846.94 210.4282, 373.6532 419.6549, 397.1265 649.5306 C420.2863 876.3375, 929.6951 966.5605, 1128.6918 855.3038 C1281.2819 769.9926, 1233.3055 323.843, 1065.1466 276.0484 C844.1495 213.2359, 368.096 418.6131, 395.0271 646.7794 C422.012 875.4017, 932.03 966.6514, 1133.5172 855.2994 C1286.1028 770.973, 1228.673 326.5399, 1061.0239 278.7163 C841.3483 216.0517, 362.5558 417.6241, 392.9174 644.0362 C423.8103 874.4091, 934.3485 966.7059, 1138.3427 855.2949 C1290.9586 771.944, 1224.0891 329.254, 1056.9102 281.3979 C838.5423 218.8886, 357.0331 416.6883, 390.7936 641.3038 C425.6727 873.3611, 936.6522 966.7267, 1143.1681 855.2891 C1295.8512 772.9001, 1219.5493 331.9762, 1052.7976 284.0813 C835.7269 221.7336, 351.5344 415.8031, 388.662 638.5776 C427.6057 872.2491, 938.9406 966.7066, 1147.9935 855.2801 C1300.7788 773.8446, 1215.0574 334.7143, 1048.6931 286.777 C832.9052 224.5985, 346.0565 414.9701, 386.5157 635.8629 C429.5982 871.0781, 941.2145 966.6484, 1152.819 855.2669 C1305.743 774.7728, 1210.6093 337.4612, 1044.59 289.4749 C830.0751 227.4714, 340.6096 414.1851, 384.3644 633.1522 C431.6593 869.8358, 943.4741 966.5441, 1157.6444 855.247 C1310.7424 775.6871, 1206.208 340.2224, 1040.4941 292.1838 C827.2372 230.3631, 335.1862 413.451, 382.1975 630.4539 C433.7744 868.5313, 945.7196 966.3971, 1162.4697 855.2198 C1315.7782 776.5836, 1201.8501 342.993, 1036.3999 294.8951 C824.3922 233.2625, 329.8011 412.7617, 380.0287 627.7571 C435.9555 867.1484, 947.952 966.1992, 1167.295 855.183 C1320.8492 777.4646, 1197.5386 345.7766, 1032.3124 297.6165 C821.5379 236.1802, 324.4413 412.1221, 377.8429 625.0742 C438.1844 865.701, 950.1707 965.9533, 1172.1202 855.1347 C1325.9562 778.325, 1193.2693 348.5693, 1028.2263 300.3402 C818.6768 239.1054, 319.1256 411.5242, 375.6571 622.3912 C440.4757 864.1697, 952.377 965.6514, 1176.9452 855.0735 C1331.0979 779.1683, 1189.0455 351.3743, 1024.1466 303.0734 C815.8061 242.0479, 313.8388 410.9732, 373.4551 619.7214 C442.8101 862.5698, 954.5706 965.295, 1181.77 854.9961 C1336.2748 779.9883, 1184.8633 354.1875, 1020.0684 305.8087 C812.9276 244.9984, 308.5982 410.4619, 371.252 617.0526 C445.1999 860.884, 956.7526 964.8776, 1186.5946 854.9018 C1341.4861 780.7887, 1180.7253 357.0127, 1015.9961 308.5528 C810.0408 247.965, 303.3943 409.9932, 369.0373 614.3934 C447.6316 859.1216, 958.923 964.3981, 1191.4186 854.7862 C1346.7312 781.5628, 1176.6278 359.8444, 1011.925 311.2988 C807.144 250.9403, 298.2355 409.5627, 366.8182 611.7379 C450.11 857.2737, 961.0823 963.8501, 1196.2421 854.6473 C1352.0093 782.3126, 1172.5726 362.6874, 1007.8595 314.053 C804.2401 253.9309, 293.1205 409.17, 364.592 609.0883 C452.6286 855.3421, 963.2313 963.2321, 1201.0646 854.4813 C1357.3198 783.0327, 1168.5568 365.5349, 1003.7951 316.8088 C801.3245 256.9308, 288.0492 408.8143, 362.3585 606.4449 C455.1856 853.3249, 965.3697 962.5352, 1205.886 854.283 C1362.6605 783.7216, 1164.5808 368.3925, 999.736 319.5725 C798.4026 259.9463, 283.0278 408.4916, 360.1218 603.8041 C457.7809 851.217, 967.4992 961.7581, 1210.7057 854.05 C1368.0316 784.3756, 1160.6425 371.2521, 995.6779 322.3375 C795.4669 262.9717, 278.0479 408.2048, 357.875 601.1721 C460.4066 849.0236, 969.6183 960.8898, 1215.5232 853.7733 C1373.4287 784.9895, 1156.7412 374.1197, 991.6248 325.11 C792.5253 266.0134, 273.1219 407.9468, 355.6281 598.5399 C463.0688 846.7324, 971.73 959.9229, 1220.3375 853.4462 C1378.8512 785.5561, 1152.8739 376.9854, 987.5723 327.8833 C789.5682 269.0671, 268.2361 407.723, 353.3699 595.9176 C465.755 844.3533, 973.8315 958.8481, 1225.1475 853.0606 C1384.2937 786.0706, 1149.0403 379.8553, 983.5248 330.6639 C786.6039 272.1387, 263.4026 407.5264, 351.111 593.2958 C468.4728 841.8723, 975.9257 957.6519, 1229.9512 852.6037 C1389.7531 786.5202, 1145.2355 382.7192, 979.4775 333.4449 C783.6245 275.2243, 258.6129 407.3602, 348.8452 590.6801 C471.2151 839.2924, 978.01 956.3146, 1234.7456 852.0587 C1395.2201 786.8928, 1141.4578 385.5798, 975.4351 336.2328 C780.6346 278.3323, 253.8686 407.2221, 346.5753 588.0678 C473.9828 836.6053, 980.0848 954.8138, 1239.526 851.4027 C1400.6855 787.1659, 1137.6993 388.4257, 971.3926 339.0208 C777.6292 281.4594, 249.1683 407.1127, 344.3025 585.4581 C476.776 833.8029, 982.1465 953.1127, 1244.2847 850.6044 C1406.1317 787.3146, 1133.9556 391.2549, 967.3549 341.8155 C774.6089 284.6174, 244.5031 407.0349, 342.0227 582.8545 C479.59 830.8765, 984.1888 951.1547, 1249.0052 849.607 C1411.5278 787.2853, 1130.2101 394.0499, 963.317 344.6101 C771.5701 287.8078, 239.8755 406.9883, 339.743 580.2508 C482.4284 827.799, 986.1958 948.8455, 1253.6564 848.3265 C1416.8169 787.0063, 1126.4441 396.7947, 959.2833 347.4106 C768.5086 291.0503, 235.2681 406.9813, 337.4548 577.6545 C485.2702 824.537, 988.1189 945.9955, 1258.1511 846.5823 C1421.8572 786.3135, 1122.606 399.4443, 955.2497 350.2114 C765.4164 294.3663, 230.6988 407.0053, 335.1663 575.0587 C488.0449 820.9894, 989.7765 942.175, 1262.1971 843.9874 C1426.2196 784.8694, 1118.5739 401.9129, 951.2194 353.017 C762.2787 297.8141, 226.3737 406.9257, 332.8731 572.4667 C490.1797 816.9817, 990.2183 936.537, 1264.4128 839.8401 C1428.1422 782.0996, 1113.9727 404.0383, 947.1896 355.8232 C759.0792 301.4424, 222.8521 406.3596, 330.5765 569.8779 C490.5884 812.7649, 988.0948 930.116, 1263.0623 835.296 C1425.8715 779.1528, 1108.7104 406.0965, 943.1625 358.6333 C755.9098 304.9472, 219.8606 405.453, 328.2787 567.2902 C489.9872 808.6746, 984.6688 924.363, 1260.0009 831.582 C1421.819 777.0528, 1103.3242 408.357, 939.1362 361.4444 C752.8008 308.2037, 217.0806 404.4036, 325.9751 564.7076 C488.992 804.6855, 980.7825 919.1073, 1256.3555 828.4243 C1417.2163 775.4896, 1097.951 410.7521, 935.1119 364.2584 C749.7227 311.3263, 214.3692 403.3045, 323.6715 562.1251 C487.8774 800.7227, 976.759 914.0364, 1252.5314 825.4814 C1412.4519 774.1284, 1092.5944 413.1987, 931.0884 367.0737 C746.6478 314.3989, 211.653 402.2043, 321.3633 559.5467 C486.7571 796.7485, 972.7287 908.9709, 1248.6881 822.5635 C1407.6656 772.7851, 1087.2461 415.6541, 927.0665 369.8912 C743.5656 317.4656, 208.9343 401.1017, 319.0534 556.9697 C485.636 792.7588, 968.6948 903.9072, 1244.8286 819.6672 C1402.8605 771.4565, 1081.9059 418.1168, 923.0456 372.7101 C740.4749 320.5263, 206.2128 399.997, 316.7419 554.3942 C484.514 788.7534, 964.658 898.8452, 1240.9531 816.7922 C1398.0366 770.1423, 1076.5737 420.5865, 919.0257 375.5305 C737.375 323.5816, 203.4855 398.8916, 314.4268 551.822 C483.3897 784.7341, 960.619 893.7849, 1237.0624 813.9379 C1393.1943 768.8413, 1071.2496 423.0636, 915.0068 378.3524 C734.267 326.6311, 200.7567 397.7833, 312.1116 549.2497 C482.2664 780.6965, 956.5791 888.7255, 1233.1567 811.1041 C1388.3345 767.5536, 1065.9337 425.5468, 910.9887 381.1753 C731.149 329.6747, 198.0214 396.675, 309.7925 546.681 C481.1409 776.6447, 952.5386 883.6674, 1229.2367 808.2903 C1383.4572 766.2781, 1060.626 428.0369, 906.9716 383.9995 C728.0223 332.7127, 195.2832 395.5645, 307.4728 544.1129 C480.0161 772.5746, 948.4987 878.6103, 1225.3024 805.4963 C1378.5626 765.0147, 1055.3262 430.533, 902.9548 386.8244 C724.8859 335.7444, 192.5409 394.4526, 305.1516 541.5461 C478.8913 768.4871, 944.46 873.5538, 1221.3544 802.7219 C1373.6514 763.7631, 1050.0347 433.0353, 898.9389 389.6505 C721.7398 338.7706, 189.7932 393.3401, 302.8282 538.9814 C477.766 764.3823, 940.4233 868.4984, 1217.3929 799.9666 C1368.7238 762.5221, 1044.7512 435.5433, 894.9233 392.4768 C718.584 341.79, 187.0426 392.2256, 300.5047 536.4167 C476.6422 760.2576, 936.3895 863.4429, 1213.4185 797.2302 C1363.78 761.2922, 1039.476 438.057, 890.9083 395.3042 C715.4177 344.8038, 184.2864 391.1105, 298.1784 533.8545 C475.516 756.1165, 932.3574 858.3915, 1209.4292 794.5151 C1358.819 760.0747, 1034.2089 440.5766, 886.8933 398.1316 C712.2413 347.8104, 181.5266 389.9941, 295.852 531.2925 C474.3912 751.955, 928.3298 853.3405, 1205.4276 791.8187 C1353.8425 758.8673, 1028.9501 443.1017, 882.8788 400.9597 C709.0546 350.8108, 178.762 388.8767, 293.5245 528.7314 C473.2669 747.7736, 924.3069 848.2903, 1201.4136 789.1405 C1348.8507 757.6693, 1023.6995 445.6317, 878.8643 403.7877 C705.8569 353.8045, 175.992 387.7591, 291.1957 526.1716 C472.1431 743.5723, 920.2898 843.241, 1197.3877 786.4803 C1343.8441 756.4802, 1018.457 448.1666, 874.8499 406.6158 C702.6485 356.7916, 173.218 386.6405, 288.8669 523.6117 C471.0207 739.3492, 916.2791 838.1924, 1193.35 783.838 C1338.8229 755.2997, 1013.2229 450.7063, 870.8354 409.4439 C699.4287 359.772, 170.4381 385.5222, 286.5367 521.0531 C469.8986 735.1055, 912.2755 833.1451, 1189.3009 781.2133 C1333.7876 754.1274, 1007.9971 453.2504, 866.8207 412.2716 C696.1977 362.7455, 167.6536 384.4033, 284.2065 518.4946 C468.7776 730.8394, 908.2797 828.0986, 1185.2405 778.606 C1328.738 752.9631, 1002.7795 455.7991, 862.8059 415.0993 C692.9553 365.7122, 164.8645 383.284, 281.8758 515.9364 C467.6569 726.5511, 904.2915 823.0551, 1181.1681 776.0175 C1323.6741 751.8076, 997.5704 458.3522, 858.7906 417.9262 C689.701 368.6712, 162.0707 382.1643, 279.5447 513.3786 C466.5356 722.2409, 900.3112 818.0151, 1177.0835 773.4482 C1318.5956 750.6614, 992.3699 460.91, 854.7751 420.7529 C686.4353 371.6229, 159.2718 381.0448, 277.2135 510.8209 C465.4155 717.907, 896.3408 812.9767, 1172.9884 770.8958 C1313.504 749.5219, 987.1777 463.4715, 850.759 423.5787 C683.1573 374.567, 156.4678 379.9258, 274.8823 508.2632 C464.2959 713.5493, 892.3809 807.9406, 1168.8827 768.3604 C1308.3994 748.3892, 981.994 466.0369, 846.7424 426.4037 C679.8671 377.5037, 153.6584 378.8074, 272.5511 505.7056 C463.177 709.167, 888.4319 802.9066, 1164.7667 765.8417 C1303.2823 747.2625, 976.8189 468.6061, 842.7252 429.2279 C676.5645 380.4329, 150.8438 377.6898, 270.22 503.1477 C462.0587 704.7595, 884.4946 797.8752, 1160.6407 763.3395 C1298.1531 746.1418, 971.6523 471.1786, 838.7072 432.0509 C673.2491 383.3541, 148.0241 376.5731, 267.8893 500.5896 C460.9406 700.3267, 880.5693 792.8471, 1156.5045 760.8543 C1293.0115 745.0273, 966.4946 473.7549, 834.6885 434.873 C669.921 386.2678, 145.1999 375.4567, 265.5587 498.0314 C459.8204 695.8698, 876.6551 787.8266, 1152.3562 758.3893 C1287.8563 743.9216, 961.3454 476.3347, 830.6685 437.6932 C666.5801 389.1718, 142.3712 374.3413, 263.2291 495.4722 C458.7009 691.3856, 872.7544 782.8089, 1148.1984 755.9404 C1282.6897 742.8214, 956.2053 478.9184, 826.6482 440.5129 C663.2263 392.0688, 139.5367 373.2277, 260.8997 492.9129 C457.5808 686.875, 868.8676 777.7963, 1144.0309 753.5079 C1277.5121 741.7257, 951.0735 481.504, 822.6259 443.3299 C659.8585 394.9561, 136.6971 372.116, 258.571 490.3529 C456.4603 682.3369, 864.9954 772.7875, 1139.8541 751.0916 C1272.3232 740.6351, 945.9511 484.0941, 818.6036 446.1469 C656.4783 397.8365, 133.8527 371.0058, 256.2435 487.7918 C455.3395 677.7703, 861.1384 767.7846, 1135.668 748.6913 C1267.1243 739.5486, 940.837 486.6851, 814.5787 448.9601 C653.0831 400.7065, 131.0028 369.8983, 253.9161 485.2307 C454.2162 673.1771, 857.2961 762.7882, 1131.4719 746.3085 C1261.9138 738.4681, 935.7325 489.2809, 810.5538 451.7733 C649.6755 403.5689, 128.15 368.7913, 251.5909 482.6676 C453.091 668.5549, 853.4688 757.8015, 1127.265 743.9448 C1256.6924 737.3946, 930.6367 491.8782, 806.5263 454.5828 C646.2531 406.4203, 125.2917 367.6875, 249.2661 480.1041 C451.9634 663.9045, 849.6578 752.821, 1123.0492 741.5971 C1251.4607 736.3253, 925.5504 494.4793, 802.4983 457.3915 C642.8171 409.2638, 122.4281 366.5867, 246.9424 477.5396 C450.8339 659.2243, 845.8641 747.8484, 1118.8246 739.2653 C1246.2201 735.2593, 920.4728 497.0818, 798.468 460.1969 C639.3667 412.0969, 119.5612 365.4884, 244.621 474.973 C449.7028 654.5132, 842.0881 742.8831, 1114.5913 736.9493 C1240.9703 734.1974, 915.4047 499.6873, 794.4365 463.0008 C635.9016 414.9213, 116.6876 364.3945, 242.2996 472.4063 C448.5675 649.7729, 838.3298 737.9271, 1110.3492 734.6493 C1235.7117 733.1387, 910.3458 502.2947, 790.403 465.8017 C632.4225 417.7355, 113.8131 363.3016, 239.9815 469.8368 C447.4281 645.0024, 834.5881 732.9842, 1106.0963 732.3696 C1230.4426 732.0881, 905.2963 504.9048, 786.3677 468.5999 C628.9285 420.5391, 110.9333 362.213, 237.6642 467.2665 C446.284 640.2017, 830.8651 728.0516, 1101.8347 730.106 C1225.165 731.0411, 900.2565 507.5175, 782.3309 471.396 C625.4198 423.333, 108.0486 361.1289, 235.3482 464.695 C445.1353 635.3699, 827.1611 723.1304, 1097.5648 727.8583 C1219.88 729.997, 895.2258 510.1314, 778.2914 474.1882 C621.8961 426.1156, 105.1622 360.0479, 233.0358 462.1204 C443.9831 630.5046, 823.4771 718.2191, 1093.2865 725.6265 C1214.5867 728.9567, 890.2052 512.7483, 774.2509 476.9791 C618.3575 428.8896, 102.2692 358.973, 230.7234 459.5457 C442.824 625.6091, 819.8124 713.3219, 1088.9999 723.4106 C1209.287 727.9188, 885.1934 515.3654, 770.2068 479.7647 C614.8033 431.6506, 99.3767 357.9, 228.4151 456.9673 C441.6583 620.6815, 816.1667 708.4392, 1084.7031 721.2145 C1203.9777 726.8888, 880.1923 517.9871, 766.1625 482.5499 C611.235 434.4028, 96.4795 356.8323, 226.1083 454.3876 C440.4852 615.7224, 812.5408 703.5736, 1080.3977 719.0355 C1198.6625 725.8623, 875.1999 520.6074, 762.1135 485.3283 C607.6494 437.1407, 93.5792 355.7704, 223.8029 451.8066 C439.3038 610.7321, 808.9356 698.7212, 1076.0844 716.8724 C1193.34 724.8393, 870.2184 523.2327, 758.0645 488.1066 C604.0507 439.8702, 90.6779 354.7124, 221.5024 449.2213 C438.1169 605.7056, 805.3519 693.8847, 1071.7629 714.7254 C1188.0126 723.8193, 865.2455 525.8561, 754.0106 490.8781 C600.4338 442.5855, 87.772 353.662, 219.202 446.6359 C436.9187 600.6494, 801.7888 689.0642, 1067.4335 712.5943 C1182.6785 722.8024, 860.2836 528.4838, 749.9562 493.6487 C596.8034 445.2916, 84.8672 352.6141, 216.9067 444.0459 C435.7119 595.5593, 798.246 684.265, 1063.0942 710.4835 C1177.3381 721.793, 855.3309 531.1113, 745.8977 496.4131 C593.156 447.983, 81.9604 351.5725, 214.6134 441.4542 C434.4933 590.4382, 794.7241 679.4846, 1058.7466 708.3901 C1171.9918 720.7883, 850.3889 533.7416, 741.8376 499.1754 C589.4931 450.6639, 79.0504 350.5381, 212.322 438.8608 C433.2633 585.2846, 791.2236 674.7242, 1054.3911 706.313 C1166.6411 719.7867, 845.4564 536.3726, 737.774 501.9324 C585.8146 453.331, 76.1431 349.5081, 210.0366 436.2621 C432.024 580.0952, 787.7458 669.982, 1050.028 704.2521 C1161.2859 718.7892, 840.5343 539.0045, 733.7079 504.6856 C582.1193 455.9865, 73.2309 348.487, 207.7512 433.6634 C430.7697 574.8757, 784.289 665.2619, 1045.657 702.2075 C1155.9266 717.7947, 835.6223 541.6382, 729.639 507.4348 C578.4089 458.629, 70.3237 347.4685, 205.4725 431.0589 C429.503 569.623, 780.8532 660.5673, 1041.2762 700.1843 C1150.5619 716.8094, 830.7202 544.2726, 725.5664 510.1785 C574.6817 461.257, 67.4154 346.4576, 203.1959 428.4525 C428.2205 564.3398, 777.4387 655.896, 1036.8875 698.1785 C1145.1927 715.829, 825.8291 546.9097, 721.4919 512.9194 C570.9388 463.8733, 64.506 345.4545, 200.9221 425.8436 C426.9229 559.0244, 774.046 651.2498, 1032.4912 696.1893 C1139.8215 714.8523, 820.9471 549.5456, 717.4125 515.653 C567.1793 466.4734, 61.6023 344.4561, 198.6552 423.2288 C425.6116 553.6744, 770.6765 646.6252, 1028.0873 694.2168 C1134.446 713.881, 816.0768 552.185, 713.3322 518.3853 C563.4039 469.0636, 58.6943 343.4682, 196.3883 420.6139 C424.2813 548.2953, 767.3274 642.0298, 1023.6759 692.2612 C1129.0698 712.913, 811.215 554.8218, 709.2456 521.108 C559.6116 471.6351, 55.7968 342.4813, 194.1302 417.9915 C422.9341 542.8856, 763.9998 637.4625, 1019.2545 690.3284 C1123.687 711.9575, 806.3654 557.4644, 705.1589 523.8307 C555.8045 474.1962, 52.8973 341.5039, 191.8739 415.3675 C421.5677 537.4455, 760.6926 632.9263, 1014.8255 688.4128 C1118.3042 711.006, 801.524 560.1026, 701.065 526.5425 C551.9787 476.7377, 50.003 340.5333, 189.6221 412.7397 C420.1812 531.9771, 757.4077 628.4166, 1010.3892 686.5146 C1112.918 710.0607, 796.6946 562.7463, 696.9708 529.254 C548.1392 479.2688, 47.1137 339.5687, 187.3774 410.1057 C418.7776 526.4743, 754.1447 623.9368, 1005.9454 684.6338 C1107.5316 709.1213, 791.8742 565.386, 692.8701 531.9555 C544.2802 481.7815, 44.2247 338.6141, 185.1326 407.4718 C417.3483 520.949, 750.9015 619.489, 1001.4939 682.7711 C1102.1428 708.188, 787.0651 568.0303, 688.768 534.6548 C540.4081 484.281, 41.3492 337.6595, 182.8999 404.8277 C415.9018 515.391, 747.6794 615.0759, 997.0328 680.9316 C1096.7516 707.2679, 782.2651 570.673, 684.6603 537.3457 C536.5175 486.7622, 38.4747 336.715, 180.6678 402.1831 C414.4286 509.8107, 744.4769 610.6967, 992.5645 679.1101 C1091.3591 706.3541, 777.4761 573.3177, 680.5498 540.0323 C532.6118 489.2289, 35.6083 335.776, 178.443 399.5323 C412.9342 504.2008, 741.2957 606.3502, 988.0887 677.3067 C1085.9663 705.4479, 772.6968 575.9624, 676.4349 542.712 C528.6897 491.6786, 32.75 334.8431, 176.2245 396.8763 C411.4163 498.5646, 738.1351 602.0378, 983.6057 675.5215 C1080.5731 704.5495, 767.9277 578.6068, 672.3157 545.3854 C524.7501 494.1122, 29.8954 333.9188, 174.0083 394.2184 C409.8702 492.9076, 734.9929 597.7632, 979.1147 673.756 C1075.1791 703.66, 763.1688 581.2535, 668.1932 548.0535 C520.7965 496.5291, 27.0575 332.9937, 171.8045 391.5501 C408.3026 487.2238, 731.8707 593.5278, 974.6147 672.0143 C1069.7836 702.7852, 758.4191 583.8982, 664.065 550.7128 C516.8245 498.9266, 24.2221 332.0786, 169.6008 388.8818 C406.7034 481.5239, 728.766 589.3312, 970.1074 670.2914 C1064.3875 701.9185, 753.6802 586.5468, 659.9346 553.3687 C512.8392 501.3092, 21.4023 331.1654, 167.4095 386.2034 C405.0829 475.7952, 725.682 585.1719, 965.5927 668.5876 C1058.9927 701.0624, 748.9496 589.1912, 655.797 556.0133 C508.8351 503.6703, 18.5909 330.2587, 165.2217 383.5219 C403.4316 470.0511, 722.6161 581.051, 961.0709 666.9032 C1053.5969 700.2159, 744.2307 591.8407, 651.6585 558.6565 C504.8174 506.0186, 15.7893 329.3571, 163.0412 380.8346 C401.7534 464.2855, 719.5672 576.9737, 956.5412 665.2397 C1048.2031 699.3812, 739.5186 594.4847, 647.511 561.2858 C500.7819 508.3418, 13.0063 328.4538, 160.8707 378.1393 C400.0464 458.5073, 716.5361 572.9389, 952.0024 663.6013 C1042.8055 698.5635, 734.8186 597.1352, 643.3637 563.9151 C496.7321 510.6526, 10.2263 327.5602, 158.7018 375.4425 C398.3072 452.7135, 713.5193 568.951, 947.4565 661.9828 C1037.4116 697.7561, 730.1245 599.7795, 639.2066 566.529 C492.666 512.9362, 7.4735 326.6611, 156.5499 372.7323 C396.5448 446.9014, 710.5237 564.9997, 942.9034 660.3848 C1032.0157 696.9628, 725.4423 602.429, 635.049 569.1422 C488.5849 515.2076, 4.7227 325.7725, 154.3979 370.0221 C394.7477 441.0786, 707.5405 561.0974, 938.343 658.8074 C1026.6229 696.1806, 720.7665 605.0737, 630.8828 571.7416 C484.4879 517.4529, 1.998 324.8783, 152.2617 367.2995 C392.9255 435.2418, 704.5767 557.2357, 933.7753 657.2517 C1021.2288 695.4141, 716.1014 607.7223, 626.7148 574.338 C480.3763 519.683, -0.7174 323.9871, 150.1297 364.5735 C391.0695 429.4, 701.6238 553.4281, 929.1984 655.7231 C1015.8348 694.6664, 711.4427 610.3678, 622.5391 576.9222 C476.2489 521.8878, -3.4127 323.0939, 148.0086 361.8391 C389.1845 423.5504, 698.687 549.665, 924.6143 654.2162 C1010.4408 693.9336, 706.7934 613.0157, 618.3602 579.5011 C472.108 524.074, -6.0905 322.2004, 145.8982 359.0964 C387.2711 417.6908, 695.7648 545.9491, 920.0231 652.7312 C1005.0479 693.2163, 702.1514 615.6609, 614.1748 582.0695 C467.9505 526.2377, -8.7543 321.308, 143.7935 356.3493 C385.3243 411.8305, 692.855 542.2823, 915.4247 651.2686 C999.6558 692.5142, 697.5172 618.3073, 609.9847 584.6301 C463.7804 528.3796, -11.3913 320.4088, 141.7064 353.5889 C383.354 405.9599, 689.9614 538.661, 910.8192 649.8284 C994.2637 691.8297, 692.8909 620.952, 605.7892 587.182 C459.5935 530.5007, -14.0202 319.5111, 139.6196 350.8281 C381.3455 400.0999, 687.0745 535.0988, 906.2048 648.4168 C988.8716 691.166, 688.2702 623.597, 601.5875 589.7236 C455.3954 532.5955, -16.6127 318.5988, 137.5575 348.0489 C379.3186 394.231, 684.2054 531.5821, 901.583 647.0298 C983.4777 690.5236, 683.6577 626.2422, 597.3817 592.2584 C451.1816 534.6705, -19.1987 317.6906, 135.4953 345.2698 C377.2544 388.3711, 681.3426 528.1215, 896.9541 645.6667 C978.0862 689.8976, 679.0498 628.8845, 593.1681 594.7801 C446.9551 536.7176, -21.7501 316.768, 133.4551 342.4744 C375.1702 382.5093, 678.496 524.7073, 892.3181 644.3278 C972.6926 689.2925, 674.4502 631.5295, 588.9515 597.2971 C442.7148 538.7461, -24.2899 315.8458, 131.4198 339.6755 C373.0534 376.655, 675.6559 521.3496, 887.6751 643.0136 C967.3014 688.7059, 669.8539 634.1686, 584.7256 599.7982 C438.4608 540.7441, -26.7977 314.908, 129.4034 336.8631 C370.9141 370.809, 672.829 518.0427, 883.0246 641.7261 C961.9072 688.1423, 665.2657 636.8129, 580.498 602.2965 C434.1953 542.7237, -29.2881 313.9635, 127.3971 334.0433 C368.7473 364.9732, 670.0075 514.7974, 878.3657 640.4694 C956.5135 687.6045, 660.6786 639.449, 576.2595 604.7762 C429.9152 544.6693, -31.7491 313.0037, 125.4067 331.2123 C366.5569 359.1529, 667.1971 511.6037, 873.6998 639.2387 C951.1169 687.0886, 656.0999 642.0928, 572.0204 607.2551 C425.6257 546.5975, -34.188 312.0361, 123.4316 328.3706 C364.3447 353.3371, 664.3943 508.4669, 869.0272 638.0347 C945.722 686.5957, 651.5211 644.7249, 567.769 609.7125 C421.3206 548.4899, -36.5995 311.0518, 121.4701 325.5196 C362.1083 347.5448, 661.6001 505.3841, 864.3475 636.8578 C940.3239 686.1255, 646.95 647.366, 563.5175 612.1699 C417.0076 550.3645, -38.9841 310.0556, 119.5287 322.6548 C359.8555 341.7568, 658.8138 502.3582, 859.6609 635.7085 C934.9265 685.6803, 642.3779 649.9949, 559.2535 614.6054 C412.6791 552.2026, -41.3434 309.041, 117.5993 319.782 C357.5792 335.9991, 656.0335 499.39, 854.9672 634.5889 C929.5257 685.2603, 637.8121 652.6323, 554.9887 617.0396 C408.344 554.0203, -43.6706 308.0071, 115.6942 316.8929 C355.2915 330.2521, 653.2604 496.4839, 850.2654 633.5034 C924.1228 684.8721, 633.2446 655.259, 550.7122 619.4532 C403.9945 555.8015, -45.9745 306.955, 113.8005 313.9964 C352.9824 324.5373, 650.4915 493.6362, 845.557 632.4473 C918.7171 684.5089, 628.6816 657.8923, 546.4337 621.8634 C399.6389 557.5595, -48.2424 305.8817, 111.9346 311.0818 C350.6667 318.8322, 647.7313 490.846, 840.8419 631.4213 C913.3096 684.1743, 624.1172 660.5159, 542.1445 624.2542 C395.2697 559.2822, -50.4875 304.7886, 110.0808 308.1596 C348.3327 313.1616, 644.9741 488.1159, 836.1202 630.426 C907.8991 683.8661, 619.5554 663.1443, 537.8521 626.6394 C390.8948 560.9792, -52.694 303.6706, 108.2572 305.2184 C345.9966 307.5045, 642.2256 485.4439, 831.3921 629.4622 C902.4859 683.588, 614.9916 665.7641, 533.5496 629.0063 C386.5079 562.6411, -54.8761 302.5303, 106.4482 302.2683 C343.6469 301.8832, 639.4791 482.8335, 826.6575 628.5305 C897.0695 683.3381, 610.4287 668.387, 529.2429 631.3657 C382.1155 564.2745, -57.019 301.3604, 104.6704 299.2992 C341.2988 296.2827, 636.7397 480.2853, 821.916 627.6348 C891.6485 683.1227, 605.8628 671.003, 524.9269 633.7079 C377.7133 565.8721, -59.1338 300.1626, 102.9117 296.3189 C338.9442 290.7202, 634.002 477.8025, 817.1675 626.7759 C886.223 682.9406, 601.2957 673.6202, 520.6056 636.0404 C373.3058 567.4385, -61.2108 298.9352, 101.1836 293.3206 C336.5936 285.1815, 631.2706 475.3807, 812.4131 625.9514 C880.7935 682.7911, 596.725 676.2318, 516.2756 638.3568 C368.8907 568.9688, -63.2534 297.6766, 99.4816 290.3074 C334.2455 279.6765, 628.5432 473.0213, 807.6526 625.1622 C875.3591 682.6741, 592.1518 678.8422, 511.9395 640.6615 C364.4698 570.4666, -65.2623 296.388, 97.8072 287.2789 C331.902 274.2023, 625.8193 470.7254, 802.8864 624.4091 C869.9203 682.5907, 587.5739 681.4487, 507.5953 642.9509 C360.0444 571.9271, -67.2267 295.0615, 96.1695 284.2303 C329.573 268.7586, 623.1028 468.4916, 798.1144 623.6931 C864.4757 682.5427, 582.9919 684.0514, 503.2439 645.2267 C355.6122 573.3535, -69.1651 293.7058, 94.5533 281.1703 C327.2476 263.3533, 620.3859 466.3241, 793.3369 623.0148 C859.0267 682.5288, 578.4038 686.6522, 498.8849 647.488 C351.1795 574.7411, -71.0443 292.3043, 92.9886 278.0837 C324.9518 257.974, 617.6812 464.218, 788.554 622.3755 C853.5702 682.5536, 573.8102 689.2468, 494.5181 649.734 C346.7392 576.093, -72.9069 290.8738, 91.4381 274.9898 C322.6583 252.6424, 614.9712 462.1831, 783.7657 621.7782 C848.1094 682.6151, 569.2087 691.8414, 490.1441 651.9662 C342.3022 577.4041, -74.6962 289.3879, 89.9538 271.8636 C320.4106 247.3352, 612.278 460.2125, 778.972 621.2252 C842.6386 682.7218, 564.5992 694.4288, 485.7614 654.1812 C337.8602 578.676, -76.4611 287.8682, 88.4918 268.7272 C318.1754 242.0749, 609.5824 458.3115, 774.1738 620.7141 C837.163 682.8657, 559.9818 697.0151, 481.3721 656.3829 C333.4199 579.9086, -78.1699 286.3017, 87.0821 265.5666 C315.9785 236.8456, 606.8967 456.4764, 769.3711 620.246 C831.6796 683.0511, 555.3538 699.5944, 476.9734 658.5657 C328.9799 581.0976, -79.8263 284.6872, 85.7213 262.385 C313.8194 231.6561, 604.2192 454.7086, 764.5644 619.8221 C826.1882 683.2784, 550.7175 702.1711, 472.5682 660.7357 C324.539 582.2493, -81.4509 283.0348, 84.3929 259.1895 C311.6869 226.5087, 601.5413 453.0122, 759.7538 619.4436 C820.6915 683.5469, 546.0676 704.7422, 468.1532 662.8854 C320.106 583.3522, -82.9861 281.3185, 83.1479 255.9606 C309.6242 221.3923, 598.8859 451.3808, 754.9399 619.1117 C815.1829 683.8625, 541.4081 707.3105, 463.7319 665.0222 C315.6739 584.4167, -84.4874 279.5626, 81.9392 252.7182 C307.5954 216.3201, 596.2307 449.8227, 750.1229 618.8278 C809.6688 684.2214, 536.7339 709.8702, 459.3003 667.1376 C311.2471 585.4327, -85.9215 277.7496, 80.7958 249.4519 C305.6266 211.2903, 593.5887 448.3347, 745.3032 618.593 C804.1452 684.6271, 532.0473 712.43, 454.8625 669.2398 C306.8307 586.4059, -87.2768 275.8815, 79.7306 246.1596 C303.7291 206.2951, 590.9641 446.9181, 740.4814 618.4089 C798.6117 685.0822, 527.3451 714.9786, 450.4142 671.3197 C302.418 587.3306, -88.5839 273.9618, 78.7158 242.8514 C301.8846 201.3517, 588.3451 445.5762, 735.6578 618.2769 C793.071 685.5846, 522.6284 717.5273, 445.9594 673.3859 C298.0192 588.2106, -89.8015 271.9753, 77.7918 239.5164 C300.1301 196.4546, 585.7467 444.3201, 730.8332 618.2124 C787.519 686.1528, 517.8917 720.0674, 441.494 675.4291 C293.6343 589.0363, -90.9893 269.6366, 76.9555 236.1587 C298.6233 191.9717, 583.1486 443.5773, 726.0417 618.7077 C781.9772 687.2625, 513.0975 722.6359, 437.022 677.4576 C289.3091 589.7364, -92.2121 266.7742, 76.1887 232.7846 C297.4843 188.1187, 580.625 443.5775, 721.416 620.0561 C776.5931 689.2195, 508.245 725.2534, 432.5395 679.4628 C285.0723 590.2673, -93.4223 263.4389, 75.5244 229.3883 C296.7361 184.8039, 578.2917 444.1695, 717.0591 622.119 C771.4881 691.9164, 503.3775 727.9274, 428.0499 681.4521 C280.9114 590.6711, -94.5815 259.7342, 74.9796 225.9712 C296.3446 181.893, 576.1946 445.1839, 712.9948 624.7139 C766.6949 695.1873, 498.5181 730.6407, 423.55 683.418 C276.8009 590.9799, -95.701 255.7341, 74.5291 222.5409 C296.2511 179.3072, 574.3342 446.5085, 709.219 627.7152 C762.2148 698.9107, 493.6805 733.3924, 419.0424 685.3663 C272.7311 591.2218, -96.7579 251.5029, 74.181 219.0981 C296.4214 176.968, 572.7051 448.0585, 705.7076 631.0232 C758.0216 702.9888, 488.8647 736.1732, 414.525 687.2916 C268.7042 591.408, -97.6732 247.0818, 73.9921 215.6425 C296.8655 174.8248, 571.3141 449.774, 702.4303 634.5637 C754.0753 707.3501, 484.0728 738.9784, 409.9993 689.1971 C264.7095 591.5546, -98.4655 242.5188, 73.9378 212.1832 C297.5356 172.8396, 570.1322 451.6148, 699.3568 638.2826 C750.3443 711.9352, 479.3012 741.8005, 405.4641 691.0804 C260.7422 591.6683, -99.1289 237.8443, 74.0163 208.7248 C298.4078 170.9867, 569.1404 453.5528, 696.4598 642.1409 C746.7973 716.7019, 474.5468 744.6356, 400.9199 692.9414 C256.8016 591.7545, -99.6463 233.0836, 74.237 205.272 C299.4716 169.2471, 568.3276 455.569, 693.7166 646.1104 C743.4066 721.6194, 469.8056 747.4833, 396.3671 694.7814 C252.8923 591.8195, -99.9797 228.2541, 74.6289 201.8336 C300.7414 167.6198, 567.7054 457.6579, 691.1251 650.1807 C740.1665 726.6804, 465.0766 750.3398, 391.804 696.5959 C249.0178 591.8652, -100.0944 223.3879, 75.2145 198.4234 C302.2137 166.0981, 567.258 459.8064, 688.6521 654.3239 C737.0356 731.852, 460.3564 753.2051, 387.2333 698.3911 C245.1721 591.9001, -100.0204 218.5016, 75.9672 195.0472 C303.8627 164.675, 566.9736 462.0115, 686.2951 658.5343 C734.0137 737.127, 455.6419 756.0698, 382.6513 700.1569 C241.3543 591.9194, -99.7456 213.6083, 76.8921 191.7144 C305.6833 163.3562, 566.8453 464.2685, 684.0404 662.8004 C731.0828 742.4914, 450.9344 758.944, 378.0627 701.9059 C237.5661 591.9365, -99.2661 208.7329, 77.9922 188.4348 C307.6696 162.1341, 566.868 466.5771, 681.8806 667.1153 C728.2339 747.938, 446.2276 761.8107, 373.4614 703.621 C233.8055 591.9409, -98.5742 203.8815, 79.2682 185.218 C309.8167 161.0232, 567.0366 468.9354, 679.8061 671.4719 C725.4542 753.4568, 441.525 764.6885, 368.8549 705.3223 C230.086 591.9578, -97.6136 199.1038, 80.7655 182.098 C312.1491 160.039, 567.3665 471.3536, 677.8156 675.8675 C722.7382 759.0486, 436.8203 767.5519, 364.2343 706.9846 C226.3917 591.9658, -96.4402 194.3855, 82.4319 179.0667 C314.6234 159.1815, 567.827 473.8237, 675.8939 680.2937 C720.0707 764.697, 432.1192 770.4257, 359.6099 708.6365 C222.7242 591.989, -95.0701 189.7506, 84.2587 176.1299 C317.2323 158.4346, 568.4231 476.3488, 674.0512 684.7534 C717.465 770.4091, 427.4147 773.2786, 354.9698 710.2438 C219.0764 592.0021, -93.5034 185.1913, 86.2367 173.2923 C319.9625 157.8193, 569.1391 478.926, 672.2701 689.238 C714.8987 776.1693, 422.7138 776.1444, 350.3275 711.8448 C215.4503 592.0356, -91.7626 180.7355, 88.3553 170.5561 C322.8032 157.3061, 569.9709 481.5566, 670.5519 693.7471 C712.3754 781.9799, 418.005 778.9807, 345.6678 713.3945 C211.8511 592.0665, -89.7832 176.403, 90.6502 167.9658 C325.7744 156.9711, 570.9346 484.253, 668.8973 698.28 C709.8894 787.8387, 413.3016 781.83, 341.0063 714.9384 C208.2675 592.1213, -87.6546 172.1916, 93.0625 165.4865 C328.8318 156.7389, 571.9992 487.0034, 667.2968 702.8322 C707.436 793.7392, 408.5898 784.6497, 336.3285 716.4328 C204.6911 592.163, -85.3842 168.0704, 95.5766 163.1107 C331.9664 156.6318, 573.1644 489.8049, 665.7533 707.4041 C705.0167 799.6794, 403.8807 787.4766, 331.6473 717.9158 C201.1224 592.2204, -82.9954 164.0598, 98.1832 160.8343 C335.1696 156.6152, 574.4249 492.6565, 664.2654 711.9943 C702.6306 805.6597, 399.1665 790.2783, 326.9521 719.3544 C197.5699 592.2842, -80.4212 160.2026, 100.9194 158.7156 C338.4566 156.7677, 575.7893 495.5747, 662.8265 716.6002 C700.2656 811.6744, 394.4514 793.0786, 322.2513 720.774 C194.0172 592.3546, -77.7603 156.4465, 103.721 156.6864 C341.7917 157.0011, 577.2391 498.5393, 661.4412 721.2224 C697.9312 817.725, 389.7317 795.8604, 317.5389 722.1551 C190.4598 592.4138, -75.018 152.7741, 106.5806 154.738 C345.1699 157.3182, 578.7709 501.5478, 660.1072 725.8598 C695.6237 823.8083, 385.0113 798.6322, 312.8186 723.5085 C186.91 592.4882, -72.1416 149.2567, 109.5334 152.9331 C348.6037 157.771, 580.3931 504.6183, 658.8201 730.5104 C693.3347 829.9224, 380.2866 801.3909, 308.0892 724.8303 C183.3527 592.5553, -69.2018 145.8273, 112.5313 151.2065 C352.0706 158.2968, 582.0948 507.7319, 657.5858 735.1752 C691.0734 836.0685, 375.5581 804.1329, 303.3497 726.1149 C179.7856 592.6093, -66.2037 142.4778, 115.5703 149.551 C355.5675 158.8899, 583.8729 510.8867, 656.4009 739.8529 C688.8344 842.2432, 370.8288 806.8693, 298.6037 727.3756 C176.2141 592.6689, -63.1297 139.2484, 118.6629 147.9984 C359.0967 159.5708, 585.7284 514.0918, 655.2625 744.5421 C686.6136 848.4461, 366.0905 809.5795, 293.8453 728.5884 C172.6205 592.6884, -60.0515 136.0331, 121.7606 146.4555 C362.6417 160.2641, 587.656 517.3206, 654.1811 749.2448 C684.4235 854.678, 361.3522 812.2965, 289.083 729.7863 C169.0037 592.6907, -56.989 132.839, 124.8584 144.9127 C366.1996 160.9364, 589.6454 520.5705, 653.1478 753.9581 C682.2556 860.9369, 356.6057 814.975, 284.3062 730.9244 C165.3757 592.6636, -53.8635 129.7257, 127.9941 143.4487 C369.7827 161.6941, 591.7164 523.8641, 652.1695 758.6833 C680.1124 867.2228, 351.8582 817.6567, 279.5251 732.0439 C161.7246 592.6163, -50.7522 126.6341, 131.1305 141.9862 C373.3803 162.4337, 593.8527 527.1804, 651.2469 763.4197 C678.0041 873.5541, 347.0729 820.0978, 274.6891 732.8847 C158.0506 592.3505, -47.5629 123.4516, 134.2688 140.5279 C376.9781 163.3213, 596.0419 530.5233, 650.3821 768.1669 C675.9404 879.9399, 342.2525 822.0636, 269.7919 733.2048 C154.4018 591.7014, -44.1553 120.153, 137.4414 139.1455 C380.5673 164.573, 598.2767 533.9178, 649.5807 772.9254 C673.9321 886.3698, 337.4501 823.4518, 264.8949 732.907 C150.8396 590.5723, -40.5522 116.6303, 140.614 137.7631 C384.1221 166.168, 600.5147 537.3464, 648.8458 777.6944 C671.9966 892.8219, 332.7478 824.174, 260.0913 731.917 C147.4657 588.9083, -36.7171 112.8756, 143.7906 136.3904 C387.6268 168.1552, 602.721 540.8162, 648.1816 782.4738 C670.1533 899.2696, 328.2496 824.1727, 255.4978 730.1984 C144.4053 586.699, -32.5876 108.9514, 146.9968 135.0877 C391.0723 170.6098, 604.8742 544.3468, 647.6029 787.2643 C668.4331 905.6863, 324.0708 823.4309, 251.2455 727.7537 C141.7709 583.9271, -28.2088 104.8009, 150.2028 133.7849 C394.4332 173.4616, 606.9579 547.9126, 647.1131 792.0647 C666.8483 912.059, 320.2638 822.072, 247.3923 724.7177 C139.5955 580.704, -23.6076 100.5106, 153.4149 132.4973 C397.7087 176.6393, 608.9833 551.511, 646.7285 796.8746 C665.4209 918.3856, 316.869 820.1946, 243.9763 721.1948 C137.9015 577.1285, -18.7787 96.1877, 156.652 131.2735 C400.9026 180.1231, 610.9938 555.1447, 646.4713 801.6929 C664.1687 924.6797, 313.8779 817.9297, 240.9803 717.3072 C136.6392 573.2823, -13.8041 91.8273, 159.889 130.0497 C404.0175 183.772, 613.0373 558.7804, 646.3738 806.5171 C663.12 930.9644, 311.2593 815.3973, 238.3548 713.1599 C135.7403 569.2587, -8.705 87.508, 163.1335 128.8461 C407.0694 187.5281, 615.1844 562.4055, 646.4833 811.3406 C662.3153 937.2609, 308.99 812.6833, 236.0544 708.8231 C135.1466 565.1303, -3.4845 83.3206, 166.399 127.7004 C410.0833 191.3598, 617.5473 566.0003, 646.887 816.1477 C661.8347 943.5909, 307.0535 809.8631, 234.0337 704.3485 C134.784 560.9313, 1.7867 79.2682, 169.6646 126.5549 C413.098 195.1235, 620.3207 569.4753, 647.7712 820.8873 C661.8644 949.9634, 305.4664 807.0062, 232.2514 699.7735 C134.5785 556.7191, 7.0623 75.5369, 172.9384 125.4338 C416.2092 198.6117, 623.9996 572.5764, 649.6165 825.3203 C662.8879 956.2604, 304.3376 804.1897, 230.679 695.1216 C134.4135 552.579, 12.1003 72.9174, 176.23 124.3654 C419.5561 200.6383, 629.7684 573.7925, 653.5665 827.6798 C666.0515 960.8751, 303.9812 801.3984, 229.2885 690.4125 C133.9324 548.723, 16.6738 71.8259, 179.5217 123.297 C422.679 200.1514, 636.0527 571.8371, 657.9752 825.9069 C669.6381 961.0724, 303.9688 798.0959, 228.0456 685.662 C133.1526 545.1357, 21.1407 71.1549, 182.8222 122.257 C425.5072 198.9615, 641.5137 568.9505, 661.5524 822.6788 C672.3503 959.4011, 303.8888 794.4052, 226.9403 680.8775 C132.4972 541.5386, 25.6131 70.6015, 186.1375 121.2647 C428.2097 197.6652, 646.561 565.8578, 664.7314 819.0491 C674.6415 957.1399, 303.8152 790.5437, 225.9533 676.0674 C131.9777 537.9, 30.0858 70.0352, 189.4529 120.2724 C430.8847 196.3786, 651.5188 562.7495, 667.8483 815.3655 C676.8595 954.7687, 303.8182 786.6188, 225.068 671.2374 C131.5668 534.2434, 34.5756 69.491, 192.7773 119.3115 C433.5392 195.1316, 656.4098 559.6429, 670.9194 811.6438 C679.0187 952.3112, 303.8955 782.64, 224.2769 666.3911 C131.2573 530.5758, 39.0884 68.9837, 196.1141 118.394 C436.1746 193.9324, 661.2425 556.5422, 673.9467 807.886 C681.1183 949.7736, 304.0345 778.6155, 223.567 661.5322 C131.0305 526.8881, 43.5974 68.4695, 199.451 117.4765 C438.7899 192.735, 666.0071 553.4315, 676.9211 804.0863 C683.1503 947.1495, 304.2256 774.5471, 222.928 656.6633 C130.8806 523.192, 48.1207 67.9853, 202.7967 116.5927 C441.3882 191.5709, 670.717 550.325, 679.8524 800.2533 C685.1231 944.4514, 304.4707 770.4387, 222.359 651.7858 C130.8064 519.4907, 52.6616 67.538, 206.1528 115.7488 C443.9709 190.4463, 675.3834 547.226, 682.7443 796.3905 C687.0367 941.688, 304.7554 766.299, 221.8444 646.9023 C130.7876 515.7754, 57.1969 67.0859, 209.509 114.9048 C446.5401 189.3216, 680.0022 544.1242, 685.598 792.4995 C688.8955 938.8611, 305.0822 762.1272, 221.3846 642.0134 C130.8282 512.0565, 61.7454 66.6672, 212.8737 114.0959 C449.0951 188.2294, 684.5811 541.0303, 688.4149 788.5817 C690.6976 935.9742, 305.4463 757.9263, 220.9736 637.1201 C130.9224 508.3358, 66.307 66.2859, 216.2471 113.324 C451.6342 187.1679, 689.1162 537.9424, 691.1871 784.632 C692.4329 933.0215, 305.8366 753.6989, 220.6032 632.2236 C131.0579 504.6031, 70.8622 65.9014, 219.6206 112.5521 C454.1614 186.1042, 693.6115 534.8535, 693.9223 780.6567 C694.1111 930.012, 306.2556 749.4462, 220.2715 627.3243 C131.2365 500.8693, 75.4288 65.5521, 223.0018 111.8156 C456.6764 185.0717, 698.0756 531.7753, 696.6249 776.6592 C695.7346 926.9509, 306.7032 745.1702, 219.9771 622.4225 C131.4562 497.1348, 80.0066 65.2376, 226.3907 111.1143 C459.1794 184.07, 702.513 528.7088, 699.2962 772.6407 C697.3022 923.8416, 307.1713 740.8749, 219.7125 617.5191 C131.7056 493.3901, 84.5773 64.9206, 229.7795 110.4129 C461.6725 183.0656, 706.92 525.6441, 701.9348 768.6007 C698.8143 920.6836, 307.6593 736.5597, 219.475 612.6143 C131.9855 489.6454, 89.1575 64.6398, 233.1753 109.7464 C464.1519 182.0886, 711.2943 522.5896, 704.535 764.5357 C700.2623 917.4711, 308.1648 732.2235, 219.2635 607.7082 C132.2952 485.9003, 93.7466 64.3933, 236.5777 109.114 C466.6208 181.141, 715.6482 519.5492, 707.1076 760.4533 C701.6564 914.216, 308.6862 727.8715, 219.0753 602.8013 C132.6274 482.1456, 98.3284 64.144, 239.9801 108.4815 C469.0818 180.1913, 719.9812 516.5142, 709.6537 756.3543 C702.9981 910.9201, 309.2223 723.5035, 218.906 597.8936 C132.9811 478.3911, 102.9178 63.9286, 243.3883 107.8825 C471.5328 179.27, 724.2985 513.4948, 712.1744 752.2396 C704.2855 907.5847, 309.7717 719.1204, 218.7534 592.9854 C133.3539 474.637, 107.5144 63.7485, 246.8025 107.3174 C473.9709 178.3749, 728.5905 510.4887, 714.6591 748.103 C705.5071 904.2002, 310.3274 714.7221, 218.6156 588.0768 C133.7408 470.8728, 112.1029 63.5658, 250.2167 106.7522 C476.4027 177.4776, 732.8671 507.491, 717.1208 743.9529 C706.6776 900.7789, 310.8946 710.3101, 218.4916 583.1677 C134.1433 467.1082, 116.6968 63.4143, 253.6358 106.2181 C478.8253 176.6068, 737.1341 504.5109, 719.5604 739.7896 C707.7938 897.3219, 311.4705 705.8853, 218.3777 578.2584 C134.5576 463.344, 121.2971 63.2979, 257.0602 105.7184 C481.2386 175.7652, 741.3929 501.5504, 721.9781 735.6135 C708.8547 893.8293, 312.051 701.4503, 218.2718 573.349 C134.9777 459.5703, 125.8882 63.1796, 260.4846 105.2188 C483.6438 174.9193, 745.6322 498.5983, 724.3652 731.4198 C709.853 890.2936, 312.6344 697.002, 218.172 568.4394 C135.4052 455.7943, 130.4817 63.089, 263.9129 104.747 C486.041 174.0967, 749.8669 495.666, 726.7332 727.2153 C710.7969 886.7247, 313.223 692.5428, 218.0767 563.5297 C135.8383 452.0188, 135.0807 63.0348, 267.3459 104.3112 C488.4292 173.3052, 754.0997 492.757, 729.0828 723.0007 C711.6849 883.1232, 313.8123 688.0757, 217.9836 558.6201 C136.2706 448.2335, 139.6699 62.9782, 270.7791 103.8753 C490.8126 172.5108, 758.3264 489.8616, 731.4122 718.7747 C712.5167 879.4873, 314.4021 683.5989, 217.8904 553.7102 C136.7023 444.4444, 144.2581 62.9451, 274.215 103.4633 C493.187 171.7346, 762.5458 486.9864, 733.7177 714.5356 C713.2854 875.8132, 314.991 679.1115, 217.7953 548.8005 C137.1329 440.6557, 148.8508 62.9508, 277.6554 103.0895 C495.5527 170.9916, 766.7689 484.1384, 736.0074 710.288 C713.9962 872.1077, 315.5765 674.618, 217.6964 543.8909 C137.5557 436.8563, 153.4325 62.9537, 281.0959 102.7157 C497.915 170.2461, 770.994 481.3085, 738.282 706.0323 C714.6511 868.3711, 316.158 670.1178, 217.5906 538.9814" fill="none" stroke="black" stroke-width="0.1" />
<path d="M217.5906 538.9814 C137.9692 433.0512, 158.0096 62.9744, 284.5382 102.3607 C500.2702 169.5146, 775.2185 478.5014, 740.5366 701.766 C715.2422 864.5984, 316.7348 665.6089, 217.4762 534.0721 C138.3741 429.2466, 162.5902 63.0374, 287.9846 102.0472 C502.6157 168.8183, 779.4487 475.7256, 742.7747 697.491 C715.7691 860.7916, 317.3024 661.0953, 217.3511 529.1631 C138.7634 425.4302, 167.1581 63.0972, 291.4311 101.7337 C504.9587 168.1195, 783.6859 472.9719, 745 693.2094 C716.2375 856.9536, 317.8615 656.5773, 217.2131 524.2545 C139.1356 421.6057, 171.7176 63.1683, 294.8786 101.4334 C507.2972 167.4302, 787.9325 470.2451, 747.2122 688.9209 C716.6429 853.0832, 318.4113 652.0534, 217.0577 519.3463 C139.4889 417.7818, 176.279 63.2856, 298.3298 101.1783 C509.6249 166.7785, 792.1868 467.5544, 749.4062 684.623 C716.9758 849.1745, 318.9448 647.5266, 216.8831 514.4389 C139.8167 413.9449, 180.8257 63.3995, 301.7811 100.9233 C511.951 166.1239, 796.4533 464.8906, 751.5897 680.3199 C717.246 845.2335, 319.4632 642.9981, 216.6874 509.5322 C140.117 410.097, 185.3591 63.5175, 305.2328 100.6752 C514.2747 165.4727, 800.7345 462.2574, 753.7629 676.0117 C717.4504 841.2595, 319.9675 638.4659, 216.4663 504.6266 C140.389 406.2497, 189.8929 63.686, 308.6877 100.4768 C516.5874 164.8634, 805.0324 459.6677, 755.9219 671.6962 C717.5767 837.2469, 320.4465 633.9347, 216.2136 499.7226 C140.6209 402.3882, 194.4089 63.851, 312.1428 100.2784 C518.8992 164.2497, 809.3459 457.1104, 758.0704 667.3754 C717.6327 833.1979, 320.9015 629.4053, 215.9293 494.8202 C140.8121 398.5123, 198.9062 64.0123, 315.5978 100.0802 C521.2104 163.6324, 813.6796 454.5883, 760.2106 663.0506 C717.6168 829.1133, 321.3336 624.8754, 215.6069 489.9202 C140.9602 394.6371, 203.401 64.2291, 319.0554 99.9367 C523.511 163.0611, 818.0397 452.1188, 762.3412 658.7209 C717.5165 824.9889, 321.7304 620.3519, 215.2386 485.0235 C141.0509 390.7467, 207.8736 64.442, 322.5132 99.7931 C525.8113 162.4837, 822.4191 449.6885, 764.4612 654.3862 C717.3365 820.8228, 322.092 615.8346, 214.8248 480.1303 C141.084 386.8405, 212.3233 64.6505, 325.9709 99.6496 C528.1121 161.9014, 826.8285 447.3025, 766.575 650.0483 C717.0726 816.6179, 322.4114 611.3254, 214.3493 475.2428 C141.0455 382.9314, 216.7606 64.9047, 329.4301 99.552 C530.4052 161.3545, 831.2695 444.9752, 768.6824 645.7074 C716.7183 812.3688, 322.6861 606.828, 213.8137 470.3616 C140.9324 379.0082, 221.1726 65.1622, 332.8896 99.4616 C532.6973 160.8067, 835.7419 442.7005, 770.7801 641.3618 C716.2659 808.0732, 322.8987 602.3491, 213.1993 465.4896 C140.7228 375.0688, 225.553 65.4153, 336.3491 99.3712 C534.992 160.2497, 840.2478 440.4793, 772.8733 637.014 C715.7205 803.7314, 323.0549 597.8871, 212.5058 460.6282 C140.4183 371.1236, 229.9105 65.7029, 339.8093 99.3172 C537.2817 159.7171, 844.8013 438.3292, 774.962 632.664 C715.0624 799.3409, 323.1284 593.4563, 211.7039 455.7836 C139.9835 367.1681, 234.2318 66.0026, 343.2697 99.2781 C539.5717 159.1844, 849.3955 436.247, 777.0443 628.311 C714.2909 794.8966, 323.1138 589.061, 210.7902 450.959 C139.4115 363.1987, 238.5099 66.2974, 346.7302 99.2391 C541.8663 158.6374, 854.0372 434.2352, 779.1229 623.9563 C713.4005 790.3986, 322.9971 584.7107, 209.7424 446.1617 C138.6778 359.2255, 242.7446 66.6164, 350.1907 99.2265 C544.1607 158.0968, 858.7413 432.3108, 781.1986 619.5999 C712.3694 785.8433, 322.744 580.4279, 208.5192 441.4062 C137.7335 355.2536, 246.9235 66.9567, 353.6514 99.2371 C546.458 157.5522, 863.5104 430.4812, 783.2706 615.2421 C711.1852 781.2266, 322.3264 576.236, 207.0909 436.7084 C136.5395 351.2845, 251.0285 67.2942, 357.1121 99.2476 C548.7654 156.9755, 868.3168 428.7336, 785.3402 610.8829 C709.8764 776.5402, 321.7833 572.118, 205.501 432.0626 C135.1428 347.3201, 255.0688 67.6436, 360.5726 99.2745 C551.0771 156.3894, 873.1415 427.0688, 787.4083 606.5233 C708.4598 771.7761, 321.1453 568.0591, 203.7829 427.4627 C133.5799 343.3618, 259.0523 68.0195, 364.0327 99.333 C553.388 155.8138, 877.9692 425.4871, 789.475 602.1628 C706.9478 766.9257, 320.4297 564.0508, 201.9619 422.9022 C131.8747 339.3967, 262.9749 68.386, 367.493 99.3915 C555.7039 155.2246, 882.7828 423.9755, 791.5411 597.8021 C705.3599 761.9878, 319.6541 560.083, 200.0578 418.3759 C130.0487 335.4236, 266.8405 68.7484, 370.9529 99.456 C558.0222 154.6313, 887.5719 422.5322, 793.6074 593.4412 C703.7068 756.9584, 318.8367 556.1431, 198.0857 413.8786 C128.1208 331.4485, 270.6598 69.1424, 374.4121 99.5607 C560.334 154.0697, 892.33 421.1647, 795.6737 589.0807 C701.9911 751.8307, 317.9824 552.2292, 196.0578 409.4063 C126.1003 327.4579, 274.425 69.524, 377.8711 99.6654 C562.6484 153.5045, 897.0454 419.857, 797.7418 584.7208 C700.2314 746.6075, 317.0999 548.3356, 193.9837 404.9551 C123.9973 323.4493, 278.138 69.8926, 381.3302 99.7701 C564.9648 152.9382, 901.7097 418.6052, 799.8112 580.3618 C698.436 741.2874, 316.2021 544.4522, 191.8714 400.5222 C121.8234 319.432, 281.8084 70.291, 384.7878 99.9149 C567.2728 152.4102, 906.3208 417.4187, 801.8821 576.0033 C696.6036 735.8633, 315.2892 540.5792, 189.7269 396.1046 C119.582 315.3944, 285.4298 70.6803, 388.2453 100.0642 C569.5815 151.8887, 910.8716 416.283, 803.9573 571.6469 C694.751 730.3415, 314.3649 536.715, 187.5544 391.7009 C117.2765 311.3346, 289.0014 71.0559, 391.7027 100.2135 C571.8916 151.3704, 915.354 415.1916, 806.0355 567.2919 C692.8865 724.7217, 313.4395 532.8501, 185.3608 387.3074 C114.9167 307.258, 292.5306 71.4474, 395.1588 100.3908 C574.1955 150.8831, 919.7659 414.1497, 808.1166 562.9383 C691.0102 718.9994, 312.5148 528.9836, 183.1503 382.9226 C112.5059 303.1605, 296.0154 71.8407, 398.6141 100.5831 C576.4972 150.4158, 924.1052 413.1498, 810.2039 558.5876 C689.1335 713.1794, 311.5911 525.116, 180.9249 378.5452 C110.0447 299.0374, 299.4533 72.2199, 402.0695 100.7753 C578.8002 149.9548, 928.3646 412.1812, 812.2961 554.2393 C687.2665 707.265, 310.6758 521.2408, 178.6902 374.1727 C107.5402 294.8922, 302.8485 72.6021, 405.5238 100.9836 C581.1 149.5162, 932.5417 411.2453, 814.3928 549.8932 C685.4105 701.2538, 309.7726 517.354, 176.4485 369.8035 C104.9957 290.7263, 306.2034 72.9972, 408.9767 101.2172 C583.395 149.1098, 936.6381 410.3415, 816.497 545.5509 C683.5717 695.1479, 308.8812 513.4575, 174.2032 365.4364 C102.4125 286.5332, 309.514 73.3784, 412.4293 101.4508 C585.6917 148.7118, 940.6483 409.4554, 818.6087 541.2119 C681.762 688.9544, 308.0051 509.5478, 171.9572 361.0694 C99.7944 282.3132, 312.7827 73.7502, 415.8819 101.6885 C587.9885 148.3269, 944.5688 408.584, 820.7263 536.8761 C679.9849 682.6742, 307.1522 505.617, 169.7137 356.7013 C97.1468 278.0746, 316.0147 74.1462, 419.3317 101.962 C590.2778 147.9854, 948.4043 407.7344, 822.8527 532.5443 C678.2394 676.3033, 306.3198 501.6688, 167.4755 352.3304 C94.4704 273.8076, 319.2059 74.5285, 422.7816 102.2354 C592.5696 147.6543, 952.1519 406.8895, 824.9893 528.2177 C676.5408 669.8551, 305.5105 497.7011, 165.2451 347.9555 C91.768 269.5123, 322.3574 74.8976, 426.2315 102.5088 C594.8633 147.3336, 955.8077 406.0436, 827.1334 523.8948 C674.8922 663.3306, 304.7334 493.7046, 163.0271 343.5744 C89.0468 265.1963, 325.4746 75.286, 429.6787 102.813 C597.1508 147.0531, 959.3759 405.2046, 829.2869 519.5765 C673.2908 656.7255, 303.9861 489.6818, 160.8229 339.1862 C86.3069 260.8536, 328.5556 75.6692, 433.1253 103.1247 C599.4398 146.7918, 962.86 404.3606, 831.4542 515.2652 C671.7505 650.0527, 303.2725 485.6316, 158.637 334.789 C83.553 256.4828, 331.601 76.0397, 436.5719 103.4365 C601.7312 146.5421, 966.254 403.503, 833.6306 510.9585 C670.274 643.3148, 302.5981 481.5464, 156.4734 330.3806 C80.7912 252.0876, 334.6148 76.4163, 440.0168 103.766 C604.02 146.3215, 969.5604 402.6346, 835.8163 506.6564 C668.8602 636.5094, 301.9656 477.424, 154.3345 325.9604 C78.0241 247.6691, 337.598 76.8003, 443.4599 104.1146 C606.3086 146.1325, 972.7906 401.755, 838.02 502.3636 C667.5189 629.6456, 301.3793 473.2646, 152.2267 321.5252 C75.2584 243.222, 340.5512 77.172, 446.903 104.4632 C608.6002 145.9567, 975.9362 400.851, 840.2346 498.0766 C666.2534 622.7283, 300.842 469.063, 150.1548 317.0732 C72.5007 238.7478, 343.4771 77.5371, 450.3455 104.8169 C610.8935 145.7993, 978.9995 399.921, 842.4604 493.795 C665.0653 615.7587, 300.3627 464.8104, 148.123 312.6026 C69.7566 234.2526, 346.3797 77.9217, 453.7848 105.2009 C613.1834 145.6856, 981.9917 398.9743, 844.7042 489.5231 C663.9567 608.7362, 299.943 460.5103, 146.1379 308.1112 C67.0332 229.7296, 349.2589 78.2945, 457.224 105.5849 C615.4779 145.5868, 984.9105 397.9948, 846.9634 485.2591 C662.9374 601.6725, 299.5911 456.1549, 144.2111 303.5944 C64.3449 225.1775, 352.1194 78.6556, 460.6634 105.9689 C617.7762 145.5037, 987.7551 396.9796, 849.2355 481.0022 C662.0085 594.5696, 299.3179 451.7344, 142.3492 299.0506 C61.7008 220.6038, 354.9654 79.0332, 464.0995 106.3798 C620.0717 145.4629, 990.5338 395.9376, 851.5248 476.7543 C661.1703 587.4221, 299.1295 447.2475, 140.5634 294.4764 C59.1138 216.0035, 357.8 79.4065, 467.5349 106.7977 C622.3714 145.4469, 993.2533 394.8607, 853.835 472.518 C660.4347 580.2436, 299.0369 442.6896, 138.8681 289.868 C56.6019 211.3753, 360.6276 79.7687, 470.9702 107.2157 C624.6756 145.4489, 995.9089 393.7412, 856.1603 468.2896 C659.8046 573.0348, 299.0558 438.0479, 137.2813 285.2208 C54.1873 206.7226, 363.4553 80.1342, 474.4038 107.6474 C626.98 145.4835, 998.503 392.5824, 858.5008 464.0699 C659.2837 565.7935, 299.2055 433.3126, 135.8256 280.5312 C51.8984 202.0484, 366.2906 80.5083, 477.835 108.098 C629.2867 145.5585, 1001.0534 391.3879, 860.8685 459.8652 C658.8882 558.5281, 299.5082 428.4798, 134.5302 275.7949 C49.7701 197.3507, 369.1424 80.8723, 481.2663 108.5486 C631.5984 145.6561, 1003.5493 390.1429, 863.2537 455.6707 C658.6294 551.2445, 299.997 423.5344, 133.4408 271.0074 C47.8594 192.6346, 372.0244 81.2283, 484.6973 109.0003 C633.9141 145.7797, 1005.9921 388.8414, 865.6566 451.4861 C658.5251 543.9479, 300.7222 418.4569, 132.613 266.168 C46.2337 187.9176, 374.9539 81.6081, 488.1242 109.4821 C636.2269 145.9601, 1008.3893 387.4874, 868.0837 447.3154 C658.6023 536.6409, 301.7411 413.2467, 132.1281 261.2832 C44.9921 183.2144, 377.9531 81.9838, 491.5512 109.964 C638.5463 146.1702, 1010.7399 386.0511, 870.5364 443.1599 C658.913 529.36, 303.147 407.9024, 132.1075 256.3754 C44.2813 178.5686, 381.0543 82.3623, 494.9782 110.4459 C640.8703 146.41, 1013.0264 384.4904, 873.0091 439.0162 C659.5298 522.1498, 305.0822 402.4464, 132.7363 251.511 C44.3229 174.0812, 384.3024 82.7778, 498.4023 110.9467 C643.1947 146.693, 1015.2292 382.7404, 875.5023 434.8848 C660.56 515.0985, 307.7103 396.9895, 134.2404 246.8474 C45.3834 169.9396, 387.7437 83.2482, 501.8251 111.4586 C645.5312 146.9948, 1017.3314 380.6825, 878.0292 430.774 C662.1586 508.3987, 311.1843 391.8009, 136.8415 242.7026 C47.7148 166.4813, 391.4046 83.8097, 505.2476 111.9705 C647.8915 147.2556, 1019.2967 378.2013, 880.5798 426.6776 C664.3785 502.2318, 315.438 387.2372, 140.4883 239.4401 C51.2376 164.0413, 395.2321 84.5126, 508.6693 112.4885 C650.2906 147.4151, 1021.1299 375.2785, 883.1534 422.5959 C667.1444 496.6738, 320.2192 383.537, 144.8699 237.2494 C55.5684 162.7484, 399.1223 85.3884, 512.0875 113.029 C652.7358 147.4433, 1022.8791 372.0222, 885.7544 418.5313 C670.2768 491.6157, 325.2336 380.6335, 149.6048 235.9737 C60.2602 162.3835, 402.9942 86.3829, 515.5057 113.5696 C655.2332 147.3326, 1024.5966 368.5364, 888.391 414.49 C673.6469 486.9412, 330.3282 378.3444, 154.4761 235.3751 C65.0684 162.6859, 406.8197 87.4621, 518.9238 114.1102 C657.7703 147.1151, 1026.3334 365.0008, 891.0536 410.4657 C677.0818 482.3775, 335.4444 376.203, 159.3683 234.9499 C69.8891 163.1672, 410.6308 88.5835, 522.3387 114.6723 C660.3199 146.8971, 1028.1008 361.4567, 893.7429 406.4593 C680.5504 477.8673, 340.5716 374.1304, 164.2668 234.607 C74.7121 163.7356, 414.4353 89.7191, 525.7523 115.2403 C662.8854 146.6803, 1029.9115 357.9081, 896.466 402.4755 C684.0548 473.4155, 345.7097 372.1144, 169.1696 234.3299 C79.5362 164.3736, 418.2353 90.8603, 529.1661 115.8084 C665.4692 146.4626, 1031.7715 354.3586, 899.2264 398.5178 C687.5963 469.0253, 350.8606 370.1468, 174.0751 234.1118 C84.3602 165.077, 422.031 92.0159, 532.5784 116.3852 C668.0662 146.2524, 1033.6711 350.8074, 902.0168 394.5809 C691.1674 464.6857, 356.0244 368.2217, 178.9831 233.9513 C89.1841 165.8466, 425.8224 93.1945, 535.9877 116.9796 C670.6736 146.0587, 1035.6101 347.2558, 904.8376 390.666 C694.7688 460.3986, 361.1949 366.355, 183.8928 233.858 C94.0069 166.6867, 429.6086 94.3786, 539.3968 117.5739 C673.3 145.8641, 1037.5994 343.702, 907.6963 386.7784 C698.4082 456.1793, 366.3734 364.5487, 188.8032 233.8322 C98.8275 167.5975, 433.3901 95.5679, 542.8062 118.1683 C675.9471 145.6691, 1039.6461 340.1546, 910.5967 382.9221 C702.0839 452.0241, 371.5663 362.7819, 193.7135 233.859 C103.6462 168.5705, 437.1671 96.7834, 546.2114 118.7845 C678.6047 145.4965, 1041.7396 336.6172, 913.531 379.0915 C705.7861 447.9153, 376.766 361.0585, 198.6234 233.937 C108.4631 169.5992, 440.9408 98.0056, 549.6162 119.4039 C681.2792 145.3285, 1043.8811 333.0825, 916.5 375.2877 C709.5198 443.8665, 381.9706 359.386, 203.5321 234.0721 C113.2774 170.6879, 444.7105 99.2316, 553.021 120.0234 C683.9732 145.1616, 1046.0754 329.55, 919.5076 371.5142 C713.2891 439.8871, 387.1823 357.769, 208.4387 234.2715 C118.0875 171.846, 448.4751 100.4708, 556.4241 120.6524 C686.6882 145.0059, 1048.3398 326.0375, 922.5649 367.7809 C717.0956 435.9738, 392.4053 356.1914, 213.343 234.5172 C122.8951 173.0571, 452.2362 101.7268, 559.8243 121.2958 C689.4181 144.8673, 1050.6588 322.5401, 925.6602 364.0791 C720.9299 432.1142, 397.6325 354.6552, 218.245 234.808 C127.7006 174.3161, 455.9949 102.9844, 563.2248 121.9392 C692.168 144.7323, 1053.0333 319.0518, 928.7943 360.4103 C724.7962 428.3202, 402.8626 353.1675, 223.1435 235.1505 C132.5027 175.6288, 459.7498 104.2443, 566.625 122.5827 C694.9382 144.5996, 1055.4646 315.5722, 931.9686 356.7758 C728.6961 424.5961, 408.0999 351.7261, 228.0378 235.5498 C137.2998 177.0055, 463.4999 105.5267, 570.0214 123.2469 C697.7274 144.4911, 1057.9705 312.124, 935.1944 353.1872 C732.6302 420.9361, 413.3428 350.3262, 232.9285 235.9897 C142.0952 178.4246, 467.2479 106.8109, 573.4174 123.9132 C700.5394 144.3906, 1060.5452 308.6983, 938.4674 349.6414 C736.5985 417.3453, 418.5894 348.9668, 237.8157 236.4691 C146.8891 179.8843, 470.994 108.0945, 576.8133 124.5795 C703.3732 144.2955, 1063.1821 305.2894, 941.7833 346.1362 C740.6 413.8278, 423.8385 347.6548, 242.6976 236.9985 C151.6791 181.3966, 474.736 109.3878, 580.2073 125.2546 C706.2271 144.2128, 1065.8837 301.9027, 945.1434 342.6729 C744.6334 410.3788, 429.0913 346.3858, 247.5743 237.5743 C156.4656 182.9586, 478.4745 110.694, 583.599 125.9427 C709.1006 144.1473, 1068.6519 298.545, 948.5483 339.2537 C748.696 406.9928, 434.345 345.1552, 252.4467 238.1855 C161.2513 184.5557, 482.2118 111.9964, 586.9906 126.6308 C712.0023 144.0912, 1071.5059 295.2253, 952.0115 335.8935 C752.7992 403.6924, 439.6016 343.9676, 257.3146 238.8311 C166.0368 186.1854, 485.9476 113.2956, 590.3821 127.3189 C714.9291 144.0427, 1074.4315 291.9323, 955.5239 332.585 C756.9395 400.4781, 444.8607 342.8301, 262.1755 239.5279 C170.8181 187.8684, 489.6787 114.6129, 593.77 128.0255 C717.8755 144.0171, 1077.4285 288.677, 959.0839 329.3278 C761.1096 397.3311, 450.1195 341.7331, 267.0314 240.2587 C175.599 189.5834, 493.4081 115.9285, 597.1572 128.7343 C720.8462 144.0012, 1080.4979 285.4569, 962.692 326.124 C765.3119 394.2603, 455.3771 340.6755, 271.8825 241.0203 C180.3806 191.3259, 497.1365 117.2397, 600.5445 129.4431 C723.8424 143.9938, 1083.6401 282.2718, 966.3487 322.9759 C769.5485 391.2722, 460.6339 339.6615, 276.7278 241.8184 C185.1614 193.1025, 500.8627 118.5528, 603.9303 130.1592 C726.8655 144.0029, 1086.8665 279.1326, 970.0626 319.8947 C773.8243 388.3778, 465.8907 338.6983, 281.5661 242.6576 C189.9409 194.9171, 504.5856 119.8731, 607.3135 130.8877 C729.9142 144.0331, 1090.1776 276.0474, 973.8325 316.883 C778.1357 385.5699, 471.1457 337.7791, 286.3996 243.5242 C194.7228 196.752, 508.3075 121.1869, 610.6965 131.6161 C732.9894 144.0728, 1093.5648 273.0073, 977.6525 313.9349 C782.481 382.8482, 476.3973 336.9021, 291.2283 244.4175 C199.5072 198.6064, 512.029 122.4934, 614.0798 132.3447 C736.0915 144.1227, 1097.0261 270.0105, 981.5225 311.0533 C786.8622 380.2233, 481.6456 336.0778, 296.0489 245.3528 C204.2896 200.4982, 515.746 123.8104, 617.4594 133.0888 C739.2163 144.1956, 1100.5647 267.0687, 985.4431 308.2403 C791.2748 377.6817, 486.89 335.2973, 300.8646 246.3142 C209.0749 202.4077, 519.462 125.1221, 620.8385 133.8359 C742.3676 144.282, 1104.1799 264.1812, 989.4138 305.4987 C795.7205 375.2311, 492.129 334.5616, 305.6752 247.2993 C213.8637 204.3306, 523.1776 126.4228, 624.2176 134.5831 C745.5504 144.3823, 1107.885 261.3597, 993.4446 302.8457 C800.2083 372.8962, 497.3629 333.8849, 310.4793 248.317 C218.6544 206.2734, 526.8906 127.7197, 627.5955 135.3354 C748.7604 144.4984, 1111.6688 258.6011, 997.5275 300.2744 C804.7313 370.6648, 502.5918 333.2586, 315.2769 249.3638 C223.4476 208.2351, 530.6008 129.02, 630.9705 136.1003 C751.9943 144.6375, 1115.5287 255.9081, 1001.6596 297.7826 C809.2854 368.5268, 507.8137 332.6806, 320.0701 250.4315 C228.2457 210.2039, 534.3107 130.3094, 634.3457 136.8651 C755.2554 144.7888, 1119.4619 253.2783, 1005.8398 295.373 C813.8728 366.493, 513.0269 332.157, 324.8575 251.5244 C233.0468 212.1825, 538.0187 131.588, 637.7207 137.6299 C758.5434 144.9517, 1123.467 250.7118, 1010.0677 293.0477 C818.4945 364.5686, 518.2326 331.6895, 329.638 252.6478 C237.8498 214.1786, 541.7235 132.869, 641.093 138.4072 C761.8547 145.1376, 1127.5446 248.2184, 1014.3422 290.8088 C823.1458 362.7431, 523.4302 331.2712, 334.4138 253.7898 C242.658 216.1773, 545.4272 134.1397, 644.4642 139.1887 C765.195 145.3437, 1131.7034 245.8115, 1018.6697 288.6741 C827.8334 361.0397, 528.6185 330.9136, 339.1852 254.9512 C247.4726 218.1746, 549.1303 135.3886, 647.8356 139.9702 C768.5757 145.5747, 1135.9711 243.5341, 1023.0697 286.6952 C832.573 359.5203, 533.7943 330.6494, 343.9489 256.1432 C252.2919 220.1718, 552.8306 136.6058, 651.2061 140.7547 C772.0156 145.8497, 1140.4027 241.4862, 1027.5769 284.9746 C837.387 358.2828, 538.9583 330.5041, 348.7085 257.3516 C257.1294 222.1387, 556.53 137.7961, 654.5738 141.552 C775.5105 146.1848, 1144.9866 239.6929, 1032.1809 283.5339 C842.2666 357.3427, 544.1017 330.4955, 353.4639 258.576 C261.9852 224.0649, 560.2285 138.9464, 657.9412 142.3493 C779.0582 146.5672, 1149.6971 238.1505, 1036.8643 282.3754 C847.2043 356.7128, 549.2169 330.639, 358.2123 259.8283 C266.8542 225.9594, 563.9238 140.0562, 661.3088 143.1466 C782.6553 146.9973, 1154.5156 236.8796, 1041.6108 281.5148 C852.1877 356.4005, 554.3008 330.9263, 362.9564 261.0958 C271.7427 227.8076, 567.6169 141.136, 664.6742 143.953 C786.2907 147.4829, 1159.4139 235.8664, 1046.4003 280.9324 C857.2012 356.3786, 559.3505 331.3509, 367.6969 262.3774 C276.649 229.6105, 571.3083 142.1788, 668.0383 144.7652 C789.9626 148.0251, 1164.3715 235.1329, 1051.2163 280.6532 C862.2354 356.6768, 564.3542 331.9379, 372.4307 263.6828 C281.5694 231.3691, 574.9955 143.1872, 671.4022 145.5773 C793.6625 148.6084, 1169.3607 234.6371, 1056.041 280.6308 C867.2784 357.245, 569.3165 332.6577, 377.1607 265.0027 C286.5041 233.0839, 578.6807 144.1558, 674.7662 146.39 C797.3886 149.2413, 1174.3638 234.4156, 1060.858 280.9004 C872.3183 358.1144, 574.2296 333.5183, 381.8871 266.3349 C291.4572 234.7487, 582.3624 145.1064, 678.1267 147.216 C801.1279 149.9258, 1179.3616 234.4094, 1065.6572 281.3983 C877.3472 359.2185, 579.0967 334.5061, 386.6078 267.6878 C296.4187 236.3806, 586.0403 146.022, 681.4874 148.0421 C804.8824 150.6537, 1184.3347 234.653, 1070.4215 282.1602 C882.3543 360.5932, 583.9086 335.6298, 391.3245 269.0538 C301.3937 237.9649, 589.7153 146.9111, 684.848 148.8682 C808.6457 151.4149, 1189.2762 235.0846, 1075.1499 283.1213 C887.3394 362.1723, 588.6771 336.8541, 396.0381 270.4306 C306.3792 239.5154, 593.3875 147.7753, 688.2072 149.7002 C812.4139 152.2217, 1194.1671 235.7349, 1079.8257 284.3118 C892.2899 363.9846, 593.3909 338.1995, 400.7464 271.8253 C311.3736 241.0325, 597.0551 148.6246, 691.5645 150.5393 C816.183 153.064, 1199.0092 236.5525, 1084.4536 285.6768 C897.2089 365.9719, 598.0602 339.6372, 405.4513 273.2316 C316.375 242.5209, 600.72 149.4494, 694.922 151.3784 C819.9531 153.9386, 1203.7883 237.5497, 1089.0221 287.229 C902.0887 368.1476, 602.6802 341.1701, 410.1534 274.6472 C321.3854 243.9756, 604.3823 150.2536, 698.2794 152.2175 C823.7219 154.841, 1208.5045 238.6962, 1093.5337 288.9397 C906.9326 370.4862, 607.2565 342.786, 414.8509 276.0785 C326.4005 245.4126, 608.0403 151.051, 701.6342 153.0672 C827.4854 155.7782, 1213.1581 239.9833, 1097.9882 290.7943 C911.7371 372.9649, 611.7908 344.4759, 419.5453 277.5197 C331.4207 246.8272, 611.6954 151.8309, 704.9885 153.9184 C831.2443 156.7434, 1217.7388 241.4148, 1102.3774 292.7982 C916.4979 375.5914, 616.2799 346.2405, 424.2372 278.9688 C336.4475 248.2164, 615.3482 152.5961, 708.3429 154.7697 C834.999 157.7299, 1222.2549 242.9569, 1106.7111 294.92 C921.2234 378.3389, 620.7308 348.069, 428.9248 280.4315 C341.4757 249.5939, 618.9972 153.3509, 711.6964 155.6241 C838.7478 158.7396, 1226.7042 244.6097, 1110.9866 297.1568 C925.9102 381.1995, 625.1453 349.9516, 433.61 281.9024 C346.5086 250.9568, 622.6436 154.0996, 715.048 156.4866 C842.4884 159.7787, 1231.0823 246.3764, 1115.1995 299.5092 C930.5535 384.1701, 629.5206 351.8901, 438.2931 283.3798 C351.5462 252.3013, 626.2875 154.8369, 718.3994 157.3491 C846.2235 160.8354, 1235.3972 248.2306, 1119.3591 301.9551 C935.1628 387.2364, 633.8618 353.8796, 442.9725 284.8692 C356.584 253.638, 629.9285 155.5643, 721.7508 158.2116 C849.953 161.9078, 1239.6498 250.1678, 1123.4657 304.4884 C939.7372 390.3887, 638.1723 355.9072, 447.6497 286.3647 C361.625 254.9649, 633.5669 156.288, 725.1005 159.0813 C853.6742 163.005, 1243.8367 252.1938, 1127.5156 307.112 C944.2725 393.626, 642.45 357.9752, 452.3254 287.8657 C366.67 256.2798, 637.2034 157.0055, 728.4493 159.9543 C857.3884 164.1211, 1247.9612 254.2944, 1131.5129 309.8145 C948.7729 396.9411, 646.696 360.0838, 456.9976 289.3768 C371.7148 257.589, 640.8367 157.7154, 731.7979 160.8271 C861.097 165.2505, 1252.0287 256.4612, 1135.4623 312.587 C953.2418 400.3247, 650.9149 362.2226, 461.6685 290.8923 C376.7622 258.8896, 644.4687 158.4184, 735.1466 161.701 C864.8003 166.3945, 1256.0404 258.6902, 1139.3646 315.4252 C957.6797 403.7717, 655.1085 364.3857, 466.3378 292.4124 C381.8124 260.1852, 648.0982 159.1229, 738.4927 162.5835 C868.4954 167.5604, 1259.998 260.9793, 1143.2211 318.3257 C962.0859 407.2768, 659.2758 366.5783, 471.0049 293.9403 C386.863 261.477, 651.7256 159.8202, 741.8391 163.466 C872.1848 168.7394, 1263.8972 263.3295, 1147.0282 321.2903 C966.4591 410.8429, 663.416 368.7963, 475.6706 295.4713 C391.916 262.7605, 655.3516 160.5113, 745.1853 164.3485 C875.8693 169.9305, 1267.746 265.7294, 1150.7932 324.3085 C970.8046 414.4609, 667.5339 371.0331, 480.3352 297.0062 C396.9713 264.0402, 658.9758 161.201, 748.5304 165.2353 C879.5477 171.1374, 1271.5461 268.1765, 1154.5175 327.3769 C975.1227 418.1258, 671.6301 373.2884, 484.9982 298.5461 C402.0276 265.3181, 662.598 161.89, 751.8743 166.1265 C883.2205 172.3595, 1275.2994 270.6689, 1158.202 330.4924 C979.4133 421.8332, 675.705 375.5592, 489.6602 300.0882 C407.0858 266.591, 666.2192 162.5738, 755.2183 167.0178 C886.889 173.5926, 1279.0071 273.2024, 1161.8485 333.6529 C983.679 425.5833, 679.7598 377.845, 494.3217 301.6331 C412.1459 267.8603, 669.8392 163.2527, 758.5623 167.9091 C890.5533 174.8361, 1282.67 275.774, 1165.4579 336.8553 C987.9202 429.3732, 683.7961 380.1412, 498.9819 303.1808 C417.2077 269.1283, 673.4574 163.9339, 761.9042 168.8073 C894.2114 176.0974, 1286.2893 278.3868, 1169.0298 340.1001 C992.1348 433.1992, 687.8132 382.4486, 503.6419 304.7297 C422.2719 270.3922, 677.0749 164.6115, 765.2462 169.7065 C897.8654 177.3699, 1289.8657 281.0351, 1172.5658 343.3834 C996.3251 437.0603, 691.8118 384.7659, 508.3012 306.28 C427.338 271.6528, 680.6914 165.285, 768.5879 170.6056 C901.5158 178.6522, 1293.4027 283.7151, 1176.069 346.7021 C1000.4937 440.9542, 695.7943 387.09, 512.9604 307.8312 C432.4062 272.9108, 684.3071 165.9566, 771.9291 171.5068 C905.1624 179.9462, 1296.9015 286.4257, 1179.5399 350.054 C1004.6401 444.8772, 699.7615 389.4178, 517.6194 309.3826 C437.4769 274.1671, 687.9221 166.6296, 775.2691 172.4131 C908.8043 181.2548, 1300.3639 289.1663, 1182.98 353.438 C1008.7648 448.8267, 703.7137 391.7504, 522.2787 310.9339 C442.55 275.4204, 691.5365 167.299, 778.609 173.3194 C912.4434 182.5729, 1303.7905 291.9336, 1186.39 356.8518 C1012.869 452.8027, 707.6514 394.0858, 526.938 312.4843 C447.6253 276.6705, 695.1505 167.9648, 781.9488 174.2256 C916.0796 183.9005, 1307.1827 294.7263, 1189.7712 360.2946 C1016.954 456.8043, 711.576 396.4217, 531.5978 314.0339 C452.7036 277.9189, 698.7643 168.6317, 785.2877 175.1362 C919.712 185.2416, 1310.542 297.5444, 1193.1243 363.7646 C1021.0185 460.8272, 715.4881 398.757, 536.2581 315.5816 C457.7846 279.1644, 702.3777 169.2973, 788.6257 176.0487 C923.3412 186.5941, 1313.8693 300.386, 1196.4502 367.2607 C1025.0641 464.8716, 719.3878 401.0914, 540.9192 317.127 C462.8687 280.4064, 705.9915 169.9597, 791.9639 176.9613 C926.9681 187.9559, 1317.1653 303.2491, 1199.7499 370.7815 C1029.0916 468.9369, 723.2757 403.4246, 545.5808 318.6705 C467.9551 281.6458, 709.6051 170.6196, 795.302 177.8742 C930.5927 189.3273, 1320.4312 306.1332, 1203.0239 374.3263 C1033.1011 473.0216, 727.1538 405.752, 550.244 320.21 C473.046 282.8822, 713.2192 171.2813, 798.6387 178.7923 C934.2134 190.7134, 1323.6672 309.0398, 1206.2721 377.8947 C1037.0912 477.1233, 731.0208 408.0756, 554.9081 321.7459 C478.14 284.1145, 716.8337 171.9401, 801.9753 179.7103 C937.832 192.1088, 1326.8748 311.9645, 1209.4963 381.4849 C1041.0646 481.2429, 734.8777 410.3954, 559.5732 323.279 C483.2368 285.3441, 720.4487 172.5963, 805.3121 180.6283 C941.449 193.5133, 1330.0557 314.9072, 1212.6976 385.0954 C1045.0212 485.3773, 738.7264 412.7061, 564.2404 324.8058 C488.3383 286.5688, 724.0647 173.2517, 808.6481 181.5486 C945.0634 194.9297, 1333.2107 317.8672, 1215.8767 388.7256 C1048.9615 489.5263, 742.5671 415.009, 568.9092 326.3279 C493.4437 287.7902, 727.6815 173.907, 811.9835 182.4713 C948.6752 196.3579, 1336.3401 320.8434, 1219.0339 392.3746 C1052.8856 493.6889, 746.3994 417.3054, 573.5792 327.846 C498.5521 289.0086, 731.299 174.5597, 815.319 183.394 C952.2855 197.7953, 1339.4457 323.8358, 1222.1703 396.0419 C1056.7939 497.8636, 750.2253 419.5897, 578.2523 329.3553 C503.6663 290.22, 734.9185 175.2097, 818.6544 184.3167 C955.8942 199.2428, 1342.5273 326.8422, 1225.2863 399.7263 C1060.6873 502.0508, 754.0447 421.8636, 582.9269 330.8589 C508.7843 291.4281, 738.5388 175.8605, 821.9888 185.2428 C959.5002 200.7032, 1345.5862 329.8632, 1228.3824 403.4275 C1064.5652 506.2492, 757.8575 424.1284, 587.6033 332.3575 C513.9059 292.6329, 742.1604 176.5097, 825.3232 186.1694 C963.1049 202.1734, 1348.6239 332.8986, 1231.4596 407.1444 C1068.4276 510.4561, 761.6658 426.3771, 592.2833 333.8445 C519.0341 293.8288, 745.7846 177.1558, 828.6574 187.0959 C966.7077 203.6543, 1351.6396 335.9463, 1234.5181 410.8768 C1072.276 514.674, 765.4688 428.6145, 596.9654 335.3249 C524.1663 295.0206, 749.4104 177.8007, 831.9916 188.0234 C970.309 205.1457, 1354.6344 339.0057, 1237.5583 414.6238 C1076.1102 518.9015, 769.267 430.8398, 601.6495 336.7989 C529.3025 296.209, 753.0376 178.4456, 835.3251 188.953 C973.9083 206.6489, 1357.6107 342.0788, 1240.5815 418.385 C1079.9293 523.1348, 773.0629 433.0456, 606.3383 338.2588 C534.4466 297.3868, 756.6683 179.0878, 838.6586 189.8827 C977.506 208.1635, 1360.5669 345.1624, 1243.5874 422.1597 C1083.7347 527.3766, 776.8546 435.2382, 611.0292 339.711 C539.5947 298.5597, 760.3008 179.7277, 841.9919 190.8123 C981.1022 209.6881, 1363.5037 348.2564, 1246.5764 425.9479 C1087.5267 531.6274, 780.6428 437.4168, 615.7226 341.1554 C544.7473 299.7281, 763.9354 180.3672, 845.3251 191.7435 C984.6966 211.2244, 1366.4233 351.3634, 1249.549 429.7491 C1091.303 535.8821, 784.4302 439.5727, 620.421 342.5831 C549.9084 300.8843, 767.574 181.0046, 848.6578 192.6754 C988.2889 212.7733, 1369.325 354.4797, 1252.5059 433.5624 C1095.0663 540.1438, 788.2151 441.7133, 625.1222 344.0017 C555.0744 302.035, 771.2151 181.6401, 851.9907 193.6073 C991.88 214.3325, 1372.2096 357.6045, 1255.4479 437.3871 C1098.8169 544.4122, 791.9979 443.8382, 629.8261 345.4111 C560.2448 303.1801, 774.8588 182.2739, 855.3235 194.5394 C995.4698 215.9024, 1375.0798 360.7403, 1258.3756 441.2231 C1102.5532 548.6829, 795.7823 445.9367, 634.5359 346.8013 C565.4249 304.3114, 778.5074 182.9064, 858.656 195.4728 C999.0572 217.4862, 1377.9342 363.8843, 1261.2892 445.0695 C1106.2766 552.9586, 799.5657 448.0177, 639.2487 348.1807 C570.61 305.4362, 782.1589 183.537, 861.9883 196.4061 C1002.643 219.0808, 1380.7733 367.0356, 1264.1893 448.9261 C1109.9879 557.2396, 803.3488 450.081, 643.9647 349.5494 C575.8001 306.5545, 785.8134 184.166, 865.3209 197.3395 C1006.2275 220.6863, 1383.5999 370.197, 1267.0764 452.7925 C1113.6847 561.5214, 807.1345 452.1157, 648.6867 350.8966 C581.0001 307.6573, 789.4736 184.7927, 868.6531 198.2732 C1009.8097 222.3055, 1386.4126 373.3654, 1269.9509 456.6685 C1117.3695 565.8074, 810.9214 454.1301, 653.4128 352.2309 C586.2063 308.7521, 793.1375 185.4181, 871.9854 199.2073 C1013.39 223.9366, 1389.2112 376.541, 1272.8125 460.5537 C1121.0415 570.0972, 814.7087 456.1248, 658.1419 353.5526 C591.4174 309.8391, 796.805 186.0418, 875.3176 200.1413 C1016.9684 225.5792, 1391.998 379.7257, 1275.6617 464.448 C1124.6989 574.3872, 818.5002 458.0893, 662.8777 354.8513 C596.6392 310.9095, 800.4788 186.6633, 878.6498 201.0753 C1020.5445 227.2357, 1394.7738 382.9168, 1278.5001 468.3504 C1128.3442 578.6793, 822.2944 460.0301, 667.6178 356.1338 C601.8676 311.9694, 804.1571 187.2831, 881.9821 202.0092 C1024.1187 228.9044, 1397.5382 386.1132, 1281.328 472.2605 C1131.9783 582.9744, 826.0915 461.949, 672.3618 357.4019 C607.1019 313.0204, 807.8398 187.9016, 885.3145 202.9431 C1027.6909 230.585, 1400.2936 389.3172, 1284.1456 476.1778 C1135.5984 587.2679, 829.8939 463.8364, 677.112 358.6461 C612.3459 314.0547, 811.5289 188.5182, 888.6467 203.877 C1031.2604 232.2799, 1403.0398 392.5273, 1286.9535 480.1023 C1139.2062 591.5623, 833.7015 465.696, 681.8679 359.87 C617.5986 315.0752, 815.2241 189.1328, 891.9791 204.8105 C1034.8274 233.9881, 1405.7755 395.7427, 1289.7512 484.0338 C1142.8016 595.8583, 837.5126 467.5317, 686.6275 361.0771 C622.8569 316.0848, 818.9241 189.7458, 895.3117 205.7434 C1038.3922 235.7082, 1408.5042 398.9635, 1292.5406 487.9713 C1146.3848 600.1531, 841.3306 469.3362, 691.3934 362.2608 C628.1248 317.0785, 822.6308 190.3575, 898.6443 206.6763 C1041.9541 237.4425, 1411.2272 402.1904, 1295.3224 491.9142 C1149.955 604.4455, 845.1563 471.1068, 696.1656 363.4184 C633.4025 318.054, 826.3448 190.9677, 901.9767 207.6092 C1045.5129 239.1917, 1413.9431 405.421, 1298.0966 495.8625 C1153.5139 608.7383, 848.9876 472.8514, 700.9424 364.5569 C638.6866 319.0172, 830.0647 191.5758, 905.3099 208.5406 C1049.0695 240.9528, 1416.653 408.6554, 1300.8636 499.8156 C1157.0614 613.0304, 852.826 474.5665, 705.7242 365.6734 C643.9783 319.9657, 833.7907 192.1829, 908.6428 209.4718 C1052.6229 242.7273, 1419.3613 411.8956, 1303.6255 503.7727 C1160.5956 617.3173, 856.6756 476.2405, 710.5142 366.7565 C649.2827 320.8904, 837.5263 192.7888, 911.9759 210.4029 C1056.1726 244.5185, 1422.066 415.1384, 1306.3822 507.7333 C1164.1191 621.6025, 860.5329 477.8856, 715.3086 367.818 C654.5934 321.801, 841.2681 193.3938, 915.3091 211.3333 C1059.7192 246.3225, 1424.7682 418.3827, 1309.135 511.6966 C1167.6331 625.8862, 864.3987 479.5016, 720.1078 368.8572 C659.9106 322.6972, 845.021 193.9789, 918.6429 212.2618 C1063.2344 248.1688, 1427.2828 421.7552, 1311.7117 515.7728 C1170.9939 630.2472, 868.2003 481.104, 724.915 369.8601 C665.2584 323.544, 848.7986 194.5072, 921.9767 213.1903 C1066.6353 250.123, 1429.1224 425.5086, 1313.6748 520.1761 C1173.8511 634.8323, 871.7492 482.7577, 729.7278 370.8353 C670.6743 324.297, 852.5977 194.9883, 925.3105 214.1188 C1069.9032 252.1607, 1430.233 429.5651, 1314.9872 524.8153 C1176.1782 639.5403, 875.0428 484.4364, 734.5457 371.7852 C676.1528 324.9656, 856.4155 195.4315, 928.6451 215.0448 C1073.0363 254.2528, 1430.6436 433.8284, 1315.6813 529.5872 C1178.0021 644.2681, 878.108 486.1006, 739.3697 372.7032 C681.6888 325.558, 860.2518 195.8489, 931.9798 215.9698 C1076.0399 256.381, 1430.4243 438.2162, 1315.8223 534.4076 C1179.3727 648.9367, 880.9806 487.7169, 744.2011 373.582 C687.2762 326.0813, 864.1069 196.2491, 935.3145 216.8949 C1078.9272 258.5335, 1429.6619 442.6631, 1315.49 539.2198 C1180.3562 653.5045, 883.6939 489.2787, 749.0372 374.4322 C692.9025 326.5558, 867.9772 196.6373, 938.6497 217.819 C1081.7148 260.6979, 1428.4445 447.1256, 1314.7618 543.9889 C1181.0135 657.9492, 886.2809 490.7746, 753.8787 375.253 C698.5626 326.9894, 871.8624 197.0143, 941.9856 218.7397 C1084.4158 262.8671, 1426.845 451.5804, 1313.6973 548.6946 C1181.3865 662.2564, 888.7692 492.1826, 758.7277 376.0292 C704.2572 327.376, 875.766 197.3853, 945.3215 219.6605 C1087.0428 265.0468, 1424.9388 456.0108, 1312.3613 553.3306 C1181.5266 666.4332, 891.1822 493.5084, 763.5823 376.7685 C709.9796 327.7278, 879.6859 197.7519, 948.6575 220.5813 C1089.6052 267.2345, 1422.7692 460.406, 1310.791 557.8928 C1181.4633 670.4838, 893.5327 494.755, 768.4419 377.4746 C715.7257 328.0498, 883.6215 198.1111, 951.9943 221.4983 C1092.1145 269.427, 1420.3857 464.7614, 1309.0276 562.3842 C1181.2283 674.42, 895.8367 495.9212, 773.3064 378.1459 C721.4941 328.3443, 887.5733 198.4657, 955.3317 222.4139 C1094.5767 271.628, 1417.8276 469.082, 1307.0983 566.807 C1180.8339 678.2426, 898.1083 496.9878, 778.1781 378.7621 C727.2892 328.5965, 891.5468 198.8168, 958.669 223.3295 C1096.9938 273.8451, 1415.1161 473.3612, 1305.0243 571.1639 C1180.3018 681.9641, 900.3522 497.9731, 783.0544 379.3409 C733.1044 328.8225, 895.5378 199.164, 962.0068 224.2438 C1099.3735 276.0746, 1412.2783 477.6001, 1302.8275 575.46 C1179.6479 685.5948, 902.5759 498.8785, 787.9351 379.8812 C738.938 329.022, 899.5471 199.5036, 965.3458 225.1534 C1101.7203 278.3153, 1409.3341 481.7996, 1300.5232 579.6996 C1178.8827 689.1426, 904.7871 499.7003, 792.8205 380.3787 C744.7907 329.1939, 903.576 199.8409, 968.6848 226.063 C1104.0349 280.5743, 1406.3053 485.9681, 1298.1244 583.8865 C1178.0076 692.6085, 906.9933 500.4246, 797.7116 380.8168 C750.6653 329.3251, 907.629 200.1755, 972.0237 226.9725 C1106.3174 282.8572, 1403.2015 490.1017, 1295.6423 588.0246 C1177.0364 696.0046, 909.1953 501.0693, 802.6063 381.2117 C756.5559 329.4288, 911.7029 200.5027, 975.3641 227.877 C1108.5734 285.1569, 1400.0348 494.2007, 1293.0864 592.1176 C1175.9761 699.3384, 911.3975 501.634, 807.504 381.562 C762.4617 329.5054, 915.7979 200.8265, 978.705 228.7797 C1110.8024 287.478, 1396.8164 498.2679, 1290.4648 596.1686 C1174.8306 702.6146, 913.6047 502.1177, 812.4053 381.8651 C768.3829 329.5544, 919.9152 201.149, 982.046 229.6823 C1113.0042 289.8245, 1393.5626 502.3133, 1287.7848 600.1815 C1173.5948 705.8328, 915.8218 502.5033, 817.3103 382.0998 C774.3218 329.5581, 924.0604 201.4682, 985.3872 230.5829 C1115.1775 292.2004, 1390.2756 506.3309, 1285.0524 604.1588 C1172.2809 709.0043, 918.0483 502.8104, 822.2173 382.2848 C780.2728 329.5316, 928.2296 201.781, 988.7303 231.4778 C1117.3267 294.5993, 1386.964 510.3217, 1282.2738 608.1037 C1170.8923 712.1354, 920.2881 503.0386, 827.1257 382.4186 C786.2351 329.4763, 932.423 202.0942, 992.0732 232.3726 C1119.4484 297.028, 1383.6345 514.2901, 1279.4536 612.0197 C1169.4301 715.2302, 922.5443 503.1886, 832.036 382.4996 C792.2086 329.3914, 936.6417 202.4088, 995.4163 233.2674 C1121.5426 299.4879, 1380.3018 518.2439, 1276.5978 615.9091 C1167.8884 718.2882, 924.8184 503.2476, 836.9464 382.5095 C798.1921 329.2603, 940.8901 202.7176, 998.7611 234.1552 C1123.6095 301.9774, 1376.9756 522.1885, 1273.71 619.7753 C1166.2634 721.3131, 927.1147 503.2026, 841.8563 382.4315 C804.1864 329.071, 945.1724 203.0276, 1002.1064 235.0412 C1125.6445 304.5059, 1373.689 526.1528, 1270.7964 623.6215 C1164.5243 724.2915, 929.4388 502.9976, 846.7612 382.1976 C810.1928 328.7678, 949.5034 203.3422, 1005.4517 235.9272 C1127.6377 307.09, 1370.4519 530.1445, 1267.8615 627.4521 C1162.6672 727.2294, 931.7879 502.6346, 851.6559 381.8034 C816.2043 328.3459, 953.8835 203.66, 1008.798 236.8099 C1129.5892 309.7271, 1367.2672 534.1584, 1264.9119 631.2709 C1160.7048 730.1403, 934.1601 502.1391, 856.5372 381.2716 C822.2126 327.8244, 958.3066 203.9799, 1012.1458 237.6862 C1131.5026 312.4099, 1364.1509 538.2053, 1261.9545 635.0844 C1158.632 733.031, 936.5562 501.5044, 861.4001 380.5886 C828.2122 327.1936, 962.774 204.312, 1015.4937 238.5625 C1133.3715 315.1444, 1361.0997 542.2806, 1258.9912 638.8923 C1156.4567 735.9071, 938.9739 500.7554, 866.2432 379.7785 C834.1968 326.474, 967.2792 204.6588, 1018.8416 239.4388 C1135.1891 317.9179, 1358.083 546.375, 1255.9948 642.675 C1154.1538 738.7418, 941.4005 499.8885, 871.0629 378.8388 C840.1625 325.6598, 971.8215 205.0115, 1022.1921 240.3053 C1136.9578 320.7194, 1355.1003 550.4824, 1252.9664 646.4316 C1151.728 741.5394, 943.8359 498.9132, 875.8576 377.7784 C846.1053 324.7609, 976.3972 205.3829, 1025.5426 241.1709 C1138.6732 323.5533, 1352.1543 554.6072, 1249.9082 650.1642 C1149.1799 744.3027, 946.2791 497.8418, 880.6262 376.6067 C852.0217 323.7854, 981.0031 205.7762, 1028.8934 242.0366 C1140.3352 326.4152, 1349.2474 558.7529, 1246.8198 653.8718 C1146.5044 747.0292, 948.7261 496.6775, 885.3657 375.3229 C857.9067 322.7305, 985.637 206.1864, 1032.2455 242.8961 C1141.9452 329.2976, 1346.3784 562.9141, 1243.7042 657.5568 C1143.7118 749.7276, 951.1782 495.4364, 890.0784 373.9425 C863.7601 321.6097, 990.2952 206.6163, 1035.5992 243.7501 C1143.5051 332.196, 1343.5565 567.0989, 1240.5645 661.2211 C1140.7964 752.3971, 953.633 494.1184, 894.7596 372.4605 C869.5756 320.4194, 994.9753 207.0743, 1038.9529 244.604 C1145.0104 335.1117, 1340.7739 571.3033, 1237.3987 664.8629 C1137.7634 755.0375, 956.0914 492.7391, 899.4136 370.8938 C875.3553 319.1736, 999.6729 207.5602, 1042.3069 245.4564 C1146.4644 338.0389, 1338.0419 575.5366, 1234.2114 668.4857 C1134.6089 757.65, 958.5488 491.2993, 904.036 369.2366 C881.0932 317.864, 1004.3868 208.0649, 1045.6637 246.2976 C1147.8704 340.9667, 1335.3541 579.7903, 1231.0024 672.0897 C1131.3419 760.2397, 961.008 489.8119, 908.6306 367.5038 C886.7911 316.506, 1009.1124 208.6024, 1049.0208 247.1389 C1149.2257 343.8992, 1332.7166 584.0761, 1227.7726 675.6749 C1127.9546 762.7996, 963.4663 488.2777, 913.1948 365.6925 C892.4456 315.0962, 1013.8466 209.1743, 1052.3774 247.9801 C1150.5306 346.8337, 1330.1301 588.3947, 1224.5247 679.2438 C1124.4525 765.3328, 965.9229 486.7077, 917.7313 363.8122 C898.0568 313.6395, 1018.587 209.7693, 1055.7369 248.811 C1151.7914 349.7568, 1327.593 592.7433, 1221.2574 682.7949 C1120.8362 767.8378, 968.3763 485.105, 922.2391 361.8652 C903.6232 312.139, 1023.3299 210.3963, 1059.0972 249.6385 C1153.0068 352.6716, 1325.1106 597.1315, 1217.9741 686.3313 C1117.105 770.3131, 970.8268 483.4746, 926.7191 359.8541 C909.144 310.5968, 1028.0723 211.0603, 1062.4575 250.466 C1154.1766 355.5766, 1322.6791 601.5596, 1214.6737 689.8516 C1113.2607 772.7545, 973.2734 481.8243, 931.1736 357.7876 C914.6207 309.0182, 1032.8107 211.7541, 1065.8192 251.2875 C1155.3064 358.464, 1320.3057 606.035, 1211.3589 693.3582 C1109.3007 775.16, 975.712 480.1537, 935.5999 355.661 C920.049 307.3971, 1037.5436 212.4748, 1069.1832 252.1002 C1156.3986 361.3284, 1317.9838 610.553, 1208.0291 696.8506 C1105.2325 777.53, 978.1464 478.4724, 940.003 353.4868 C925.4333 305.7459, 1042.2661 213.2324, 1072.5471 252.9129 C1157.4524 364.1737, 1315.7202 615.1289, 1204.6859 700.3302 C1101.0492 779.855, 980.5722 476.7794, 944.3801 351.2609 C930.7699 304.0591, 1046.9762 214.0254, 1075.9111 253.7244 C1158.4703 366.9963, 1313.5116 619.7632, 1201.3292 703.7971 C1096.7544 782.1322, 982.9881 475.0814, 948.7342 348.9904 C936.0609 302.3389, 1051.6724 214.8368, 1079.2789 254.5211 C1159.4615 369.7831, 1311.3574 624.4525, 1197.9608 707.2522 C1092.3547 784.3635, 985.3954 473.3817, 953.0663 346.6789 C941.3066 300.5907, 1056.3502 215.6831, 1082.6466 255.3178 C1160.4222 372.5433, 1309.2614 629.2147, 1194.5806 710.6957 C1087.8419 786.5337, 987.791 471.679, 957.3751 344.3235 C946.5053 298.8103, 1061.0077 216.5637, 1086.0143 256.1145 C1161.3552 375.2751, 1307.22 634.0512, 1191.1895 714.1287 C1083.2224 788.6412, 990.1752 469.9807, 961.6649 341.9332 C951.6607 297.0019, 1065.644 217.4614, 1089.3851 256.8983 C1162.2687 377.9667, 1305.233 638.962, 1187.7881 717.5513 C1078.4991 790.683, 992.5459 468.2861, 965.9341 339.5067 C956.7709 295.1645, 1070.2559 218.3853, 1092.7568 257.6779 C1163.1621 380.6237, 1303.3003 643.9589, 1184.3771 720.9644 C1073.6713 792.6488, 994.9029 466.5974, 970.184 337.0465 C961.8369 293.2998, 1074.8408 219.3387, 1096.1285 258.4575 C1164.0369 383.2477, 1301.4187 649.0486, 1180.9564 724.3679 C1068.7416 794.5305, 997.2456 464.918, 974.4172 334.5577 C966.8612 291.4094, 1079.3986 220.3092, 1099.5023 259.2285 C1164.8993 385.8317, 1299.589 654.2363, 1177.5277 727.7631 C1063.7128 796.3224, 999.5709 463.2468, 978.632 332.0379 C971.8418 289.4889, 1083.9272 221.2936, 1102.8781 259.9897 C1165.7522 388.374, 1297.8053 659.5237, 1174.0905 731.1497 C1058.5906 798.0196, 1001.8806 461.5865, 982.8312 329.4922 C976.7817 287.5437, 1088.4249 222.3012, 1106.254 260.7511 C1166.5952 390.8817, 1296.0663 664.9252, 1170.6455 734.5289 C1053.376 799.6089, 1004.174 459.9391, 987.0163 326.9234 C981.6827 285.5742, 1092.8906 223.3249, 1109.6307 261.5084 C1167.4324 393.3516, 1294.3702 670.4486, 1167.1935 737.9003 C1048.0713 801.0801, 1006.447 458.3024, 991.1858 324.3289 C986.5432 283.5735, 1097.3254 224.3486, 1113.011 262.2502 C1168.2704 395.7753, 1292.7095 676.0873, 1163.7351 741.2654 C1042.6891 802.437, 1008.7029 456.6799, 995.3428 321.7147 C991.3668 281.549, 1101.7263 225.3882, 1116.3911 262.9919 C1169.1061 398.1646, 1291.0802 681.8609, 1160.2699 744.6238 C1037.2288 803.659, 1010.9407 455.0715, 999.4882 319.082 C996.1548 279.5002, 1106.0931 226.4411, 1119.7715 263.7337 C1169.9424 400.5201, 1289.4801 687.7814, 1156.7996 747.9768 C1031.6948 804.7351, 1013.1566 453.4763, 1003.6208 316.4297 C1000.9065 277.4203, 1110.4283 227.4811, 1123.156 264.4555 C1170.7875 402.8275, 1287.8972 693.8305, 1153.3235 751.3235 C1026.1041 805.6746, 1015.3538 451.8959, 1007.7437 313.7623 C1005.6257 275.3161, 1114.7294 228.5283, 1126.5408 265.1765 C1171.6375 405.102, 1286.3284 700.0345, 1149.8429 754.6659 C1020.4576 806.4553, 1017.5321 450.3307, 1011.8577 311.081 C1010.3135 273.187, 1118.9962 229.581, 1129.9255 265.8975 C1172.4937 407.3449, 1284.7654 706.4019, 1146.3575 758.0031 C1014.7623 807.0643, 1019.6889 448.7791, 1015.9622 308.3853 C1014.9706 271.028, 1123.2316 230.6174, 1133.3136 266.6021 C1173.363 409.5456, 1283.1981 712.9175, 1142.8684 761.3364 C1009.0356 807.5135, 1021.8264 447.2429, 1020.0597 305.6788 C1019.6 268.8433, 1127.4346 231.6475, 1136.7029 267.3009 C1174.2434 411.7129, 1281.6178 719.5968, 1139.3754 764.6658 C1003.2841 807.7858, 1023.9449 445.7216, 1024.151 302.9626 C1024.2035 266.6331, 1131.6053 232.6756, 1140.0924 267.9998 C1175.135 413.8521, 1280.0157 726.4512, 1135.8795 767.9918 C997.517 807.8683, 1026.0427 444.2148, 1028.2356 300.2373 C1028.7815 264.3946, 1135.7462 233.6841, 1143.4843 268.6858 C1176.0422 415.9554, 1278.3796 733.4657, 1132.3804 771.315 C991.751 807.7722, 1028.1218 442.723, 1032.3162 297.5053 C1033.3379 262.1295, 1139.8583 234.6738, 1146.8784 269.3612 C1176.9657 418.0256, 1276.7 740.6434, 1128.8795 774.6355 C985.9988 807.4916, 1030.1829 441.246, 1036.3929 294.7679 C1037.8738 259.839, 1143.9408 235.6545, 1150.2726 270.0366 C1177.903 420.0718, 1274.9645 747.998, 1125.3762 777.9541 C980.27 807.0127, 1032.2253 439.7836, 1040.4667 292.026 C1042.3911 257.5218, 1147.9965 236.6134, 1153.6686 270.7025 C1178.8575 422.0885, 1273.1621 755.5139, 1121.8717 781.2709 C974.582 806.3467, 1034.2509 438.336, 1044.5389 289.2817 C1046.8928 255.1785, 1152.0278 237.5422, 1157.0674 271.353 C1179.8308 424.0731, 1271.2819 763.1796, 1118.3657 784.5866 C968.9492 805.5037, 1036.26 436.9033, 1048.6104 286.5361 C1051.3804 252.8108, 1156.0337 238.4562, 1160.4666 272.0035 C1180.8202 426.0376, 1269.3114 771.0103, 1114.8593 787.9014 C963.3832 804.4671, 1038.2538 435.4855, 1052.6819 283.791 C1055.856 250.4191, 1160.0164 239.3471, 1163.8667 272.6478 C1181.8267 427.9792, 1267.2397 778.9913, 1111.3522 791.2162 C957.8987 803.2502, 1040.2325 434.0829, 1056.7546 281.0476 C1060.3223 248.0029, 1163.9799 240.1984, 1167.2706 273.2719 C1182.8539 429.8891, 1265.0603 787.0928, 1107.8456 794.5308 C952.5114 801.8799, 1042.1989 432.6955, 1060.83 278.3077 C1064.7813 245.5653, 1167.9222 241.0311, 1170.6746 273.896 C1183.897 431.7832, 1262.7592 795.3345, 1104.3392 797.8464 C947.2311 800.3375, 1044.1531 431.324, 1064.9087 275.573 C1069.2351 243.1074, 1171.8456 241.8404, 1174.0791 274.5168 C1184.957 433.6599, 1260.3286 803.7009, 1100.8344 801.1627 C942.0714 798.6362, 1046.0961 429.9682, 1068.9915 272.8444 C1073.6858 240.6286, 1175.755 242.6031, 1177.4879 275.1129 C1186.0377 435.5059, 1257.7684 812.1451, 1097.3307 804.4808 C937.0418 796.8237, 1048.0305 428.6298, 1073.0803 270.1253 C1078.1362 238.134, 1179.6481 243.3449, 1180.897 275.7092 C1187.1342 437.3394, 1255.0649 820.6929, 1093.829 807.8008 C932.1525 794.8735, 1049.957 427.3082, 1077.1755 267.4158 C1082.5875 235.6236, 1183.5259 244.0644, 1184.3059 276.3045 C1188.2461 439.1607, 1252.2134 829.3288, 1090.33 811.1235 C927.4128 792.8021, 1051.8777 426.0044, 1081.2789 264.7182 C1087.0427 233.0995, 1187.3953 244.733, 1187.72 276.8712 C1189.3779 440.9517, 1249.2246 837.9935, 1086.8336 814.4493 C922.8237 790.6705, 1053.7948 424.72, 1085.392 262.0352 C1091.504 230.5659, 1191.2522 245.3807, 1191.1339 277.4379 C1190.5239 442.7331, 1246.0842 846.719, 1083.3409 817.7788 C918.395 788.4469, 1055.7084 423.4547, 1089.5145 259.3672 C1095.9722 228.0232, 1195.0983 246.0071, 1194.5479 278.0045 C1191.6838 444.5059, 1242.7917 855.4861, 1079.8521 821.1124 C914.131 786.1518, 1057.6234 422.2117, 1093.6501 256.7191 C1100.451 225.4785, 1198.9393 246.5836, 1197.9666 278.5411 C1192.8615 446.2501, 1239.3691 864.2391, 1076.3683 824.4511 C910.0233 783.8468, 1059.5391 420.9904, 1097.798 254.0903 C1104.9407 222.9309, 1202.7723 247.1392, 1201.3857 279.0767 C1194.0521 447.9864, 1235.8018 873.0039, 1072.8894 827.7949 C906.0806 781.5046, 1061.4586 419.7936, 1101.9604 251.4856 C1109.444 220.3871, 1206.5975 247.6762, 1204.8046 279.6122 C1195.2544 449.7164, 1232.0929 881.7722, 1069.4166 831.1451 C902.3036 779.1372, 1063.3853 418.6226, 1106.1392 248.9062 C1113.9625 217.8504, 1210.421 248.1662, 1208.2283 280.1171 C1196.4719 451.4195, 1228.2731 890.485, 1065.9503 834.5022 C898.6735 776.8108, 1065.3201 417.4793, 1110.3352 246.3551 C1118.4979 215.3246, 1214.239 248.6379, 1211.6522 280.6197 C1197.6998 453.1157, 1224.3276 899.1719, 1062.4908 837.8662 C895.1996 774.4943, 1067.2659 416.3661, 1114.5507 243.8365 C1123.0526 212.8151, 1218.0522 249.095, 1215.0763 281.1223 C1198.9375 454.8077, 1220.2635 907.8286, 1059.0403 841.2394 C891.8805 772.1982, 1069.2262 415.2857, 1118.7864 241.3522 C1127.6265 210.3276, 1221.8652 249.5089, 1218.5046 281.5929 C1200.1871 456.4729, 1216.1176 916.399, 1055.5981 844.6212 C888.6879 769.9857, 1071.2031 414.2408, 1123.045 238.9072 C1132.2228 207.8673, 1225.675 249.9095, 1221.9337 282.0608 C1201.4448 458.1325, 1211.8733 924.9178, 1052.1654 848.0126 C885.6342 767.8217, 1073.1989 413.234, 1127.3278 236.5046 C1136.8427 205.4389, 1229.4811 250.3007, 1225.3624 282.5288 C1202.7091 459.789, 1207.5387 933.3831, 1048.7441 851.4156 C882.716 765.7142, 1075.2181 412.2695, 1131.6361 234.1486 C1141.4858 203.0514, 1233.2882 250.6531, 1228.7959 282.9621 C1203.9828 461.4179, 1203.1587 941.7416, 1045.3344 854.8298 C879.8977 763.7259, 1077.2639 411.3519, 1135.9735 231.846 C1146.1563 200.712, 1237.0925 250.9996, 1232.2296 283.3935 C1205.261 463.0422, 1198.7092 950.0361, 1041.9379 858.2555 C877.199 761.8104, 1079.3356 410.481, 1140.3385 229.5965" fill="none" stroke="black" stroke-width="0.1" />
</svg>