<?xml version="1.0" standalone="no"?>
<!DOCTYPE svg PUBLIC "-//W3C//DTD SVG 1.1//EN" 
"http://www.w3.org/Graphics/SVG/1.1/DTD/svg11.dtd">
<svg width="1410" height="1000" version="1.1" xmlns="http://www.w3.org/2000/svg">
<path d="M827.847 193.205 C918.558 438.574, 474.543 702.545, 265.147 859.349 C215.891 896.233, 156.545 713.099, 196.300 666.129 C349.040 485.668, 745.265 -26.941, 827.764 194.622 C918.837 439.213, 477.847 704.899, 269.041 861.485 C219.241 898.831, 158.911 713.897, 198.913 666.204 C350.214 485.810, 743.415 -24.067, 827.242 195.950 C919.761 438.782, 481.262 705.935, 273.539 862.073 C223.511 899.678, 161.506 714.398, 201.525 666.279 C351.428 486.034, 741.156 -21.167, 826.508 197.178 C920.651 438.009, 484.560 706.462, 278.080 862.118 C227.949 899.908, 164.189 714.782, 204.138 666.354 C352.665 486.300, 738.719 -18.294, 825.650 198.323 C921.455 437.053, 487.779 706.734, 282.616 861.909 C232.445 899.856, 166.913 715.113, 206.750 666.429 C353.911 486.587, 736.189 -15.440, 824.722 199.412 C922.201 435.975, 490.940 706.828, 287.141 861.522 C236.971 899.605, 169.666 715.407, 209.363 666.503 C355.162 486.887, 733.602 -12.601, 823.745 200.458 C922.895 434.806, 494.058 706.788, 291.654 861.004 C241.514 899.207, 172.441 715.675, 211.975 666.578 C356.418 487.197, 730.982 -9.775, 822.731 201.468 C923.538 433.567, 497.142 706.653, 296.155 860.394 C246.065 898.708, 175.230 715.927, 214.588 666.653 C357.675 487.514, 728.340 -6.958, 821.688 202.449 C924.135 432.268, 500.197 706.436, 300.644 859.704 C250.622 898.123, 178.031 716.165, 217.200 666.728 C358.934 487.836, 725.688 -4.148, 820.623 203.405 C924.689 430.922, 503.231 706.156, 305.124 858.954 C255.182 897.474, 180.842 716.394, 219.813 666.803 C360.193 488.163, 723.033 -1.342, 819.539 204.340 C925.200 429.534, 506.247 705.824, 309.595 858.154 C259.741 896.772, 183.660 716.617, 222.425 666.878 C361.452 488.493, 720.379 1.461, 818.441 205.258 C925.672 428.111, 509.248 705.448, 314.058 857.314 C264.301 896.028, 186.484 716.835, 225.038 666.953 C362.710 488.827, 717.730 4.264, 817.330 206.161 C926.106 426.658, 512.236 705.035, 318.515 856.438 C268.858 895.248, 189.313 717.050, 227.650 667.027 C363.966 489.162, 715.082 7.067, 816.206 207.047 C926.502 425.168, 515.208 704.574, 322.963 855.516 C273.415 894.419, 192.148 717.259, 230.263 667.102 C365.222 489.501, 712.445 9.869, 815.071 207.920 C926.861 423.653, 518.172 704.085, 327.405 854.570 C277.969 893.566, 194.987 717.468, 232.875 667.177 C366.477 489.841, 709.820 12.674, 813.929 208.783 C927.183 422.117, 521.130 703.574, 331.843 853.602 C282.520 892.695, 197.828 717.677, 235.488 667.252 C367.729 490.183, 707.206 15.484, 812.780 209.637 C927.472 420.556, 524.074 703.024, 336.272 852.595 C287.068 891.782, 200.674 717.883, 238.100 667.327 C368.981 490.529, 704.604 18.293, 811.621 210.477 C927.722 418.972, 527.013 702.456, 340.698 851.573 C291.614 890.857, 203.522 718.091, 240.713 667.402 C370.230 490.875, 702.018 21.106, 810.457 211.310 C927.937 417.371, 529.947 701.865, 345.118 850.530 C296.155 889.913, 206.373 718.299, 243.325 667.477 C371.478 491.223, 699.447 23.925, 809.288 212.136 C928.120 415.752, 532.872 701.250, 349.533 849.462 C300.693 888.944, 209.227 718.507, 245.938 667.552 C372.723 491.573, 696.894 26.743, 808.112 212.951 C928.263 414.117, 535.796 700.622, 353.945 848.386 C305.228 887.971, 212.081 718.719, 248.550 667.626 C373.965 491.923, 694.356 29.569, 806.932 213.762 C928.375 412.464, 538.710 699.964, 358.350 847.278 C309.759 886.966, 214.940 718.928, 251.163 667.701 C375.206 492.277, 691.838 32.395, 805.746 214.564 C928.450 410.799, 541.624 699.297, 362.754 846.164 C314.286 885.960, 217.799 719.143, 253.775 667.776 C376.444 492.630, 689.337 35.227, 804.556 215.360 C928.491 409.119, 544.531 698.608, 367.151 845.027 C318.809 884.932, 220.660 719.358, 256.388 667.851 C377.680 492.987, 686.858 38.062, 803.364 216.152 C928.498 407.430, 547.437 697.908, 371.546 843.882 C323.328 883.899, 223.523 719.577, 259.000 667.926 C378.912 493.343, 684.396 40.899, 802.165 216.934 C928.468 405.726, 550.338 697.188, 375.937 842.718 C327.843 882.850, 226.389 719.797, 261.613 668.000 C380.143 493.702, 681.959 43.741, 800.965 217.714 C928.405 404.016, 553.238 696.457, 380.324 841.543 C332.354 881.794, 229.255 720.022, 264.225 668.075 C381.369 494.062, 679.539 46.584, 799.760 218.486 C928.305 402.293, 556.134 695.709, 384.708 840.353 C336.861 880.725, 232.124 720.248, 266.838 668.150 C382.594 494.424, 677.144 49.431, 798.552 219.256 C928.171 400.565, 559.029 694.951, 389.089 839.154 C341.364 879.651, 234.994 720.479, 269.450 668.225 C383.814 494.786, 674.769 52.280, 797.341 220.019 C928.002 398.827, 561.920 694.177, 393.465 837.939 C345.862 878.564, 237.866 720.713, 272.063 668.300 C385.032 495.151, 672.419 55.131, 796.128 220.778 C927.798 397.085, 564.812 693.394, 397.840 836.717 C350.357 877.474, 240.740 720.950, 274.675 668.375 C386.247 495.516, 670.090 57.984, 794.911 221.532 C927.559 395.335, 567.700 692.594, 402.210 835.479 C354.848 876.372, 243.616 721.191, 277.288 668.450 C387.458 495.884, 667.787 60.837, 793.692 222.282 C927.284 393.583, 570.590 691.788, 406.579 834.236 C359.335 875.269, 246.494 721.437, 279.900 668.524 C388.665 496.252, 665.505 63.693, 792.470 223.028 C926.975 391.825, 573.475 690.965, 410.943 832.976 C363.817 874.152, 249.374 721.685, 282.513 668.599 C389.870 496.623, 663.250 66.548, 791.246 223.770 C926.629 390.067, 576.363 690.138, 415.306 831.715 C368.296 873.039, 252.255 721.939, 285.125 668.674 C391.070 496.995, 661.017 69.405, 790.019 224.508 C926.250 388.303, 579.246 689.291, 419.664 830.434 C372.770 871.908, 255.139 722.195, 287.738 668.749 C392.268 497.369, 658.812 72.260, 788.790 225.242 C925.835 386.541, 582.133 688.442, 424.021 829.152 C377.241 870.784, 258.025 722.458, 290.350 668.824 C393.460 497.744, 656.629 75.116, 787.559 225.972 C925.386 384.775, 585.016 687.575, 428.374 827.853 C381.707 869.644, 260.913 722.723, 292.963 668.899 C394.651 498.122, 654.474 77.970, 786.326 226.699 C924.901 383.013, 587.901 686.703, 432.725 826.551 C386.170 868.507, 263.804 722.994, 295.575 668.974 C395.836 498.500, 652.344 80.822, 785.091 227.422 C924.382 381.250, 590.785 685.819, 437.073 825.238 C390.629 867.363, 266.697 723.269, 298.188 669.048 C397.017 498.881, 650.239 83.674, 783.854 228.143 C923.828 379.489, 593.669 684.925, 441.418 823.915 C395.084 866.214, 269.593 723.549, 300.800 669.123 C398.195 499.264, 648.162 86.520, 782.614 228.859 C923.239 377.732, 596.555 684.025, 445.762 822.589 C399.535 865.066, 272.491 723.835, 303.413 669.198 C399.368 499.648, 646.109 89.367, 781.374 229.574 C922.617 375.977, 599.439 683.109, 450.102 821.247 C403.983 863.907, 275.393 724.123, 306.025 669.273 C400.537 500.035, 644.084 92.205, 780.130 230.283 C921.958 374.228, 602.327 682.190, 454.441 819.905 C408.427 862.754, 278.298 724.419, 308.638 669.348 C401.702 500.424, 642.085 95.045, 778.887 230.992 C921.268 372.483, 605.212 681.256, 458.775 818.547 C412.867 861.589, 281.206 724.717, 311.250 669.423 C402.862 500.815, 640.112 97.876, 777.640 231.694 C920.542 370.743, 608.099 680.316, 463.109 817.186 C417.304 860.426, 284.117 725.022, 313.863 669.498 C404.018 501.209, 638.168 100.704, 776.392 232.397 C919.784 369.012, 610.988 679.367, 467.440 815.818 C421.737 859.261, 287.032 725.332, 316.475 669.572 C405.169 501.604, 636.248 103.525, 775.142 233.094 C918.991 367.285, 613.876 678.406, 471.767 814.438 C426.167 858.089, 289.950 725.646, 319.088 669.647 C406.317 502.003, 634.357 106.339, 773.891 233.790 C918.165 365.571, 616.769 677.442, 476.095 813.059 C430.594 856.924, 292.872 725.967, 321.700 669.722 C407.458 502.403, 632.491 109.149, 772.639 234.483 C917.308 363.861, 619.659 676.462, 480.417 811.662 C435.016 855.745, 295.799 726.290, 324.313 669.797 C408.596 502.807, 630.653 111.949, 771.384 235.173 C916.417 362.162, 622.553 675.476, 484.738 810.265 C439.437 854.572, 298.730 726.620, 326.925 669.872 C409.729 503.213, 628.842 114.743, 770.129 235.861 C915.494 360.475, 625.449 674.483, 489.058 808.860 C443.854 853.396, 301.665 726.956, 329.538 669.947 C410.856 503.622, 627.056 117.528, 768.872 236.545 C914.540 358.795, 628.344 673.476, 493.374 807.444 C448.267 852.215, 304.605 727.295, 332.150 670.021 C411.980 504.035, 625.300 120.303, 767.614 237.228 C913.554 357.132, 631.245 672.468, 497.689 806.028 C452.679 851.040, 307.549 727.642, 334.763 670.096 C413.097 504.449, 623.567 123.070, 766.353 237.906 C912.537 355.475, 634.143 671.443, 502.000 804.598 C457.087 849.856, 310.499 727.991, 337.375 670.171 C414.211 504.868, 621.862 125.827, 765.092 238.584 C911.489 353.834, 637.046 670.413, 506.310 803.164 C461.492 848.674, 313.455 728.347, 339.988 670.246 C415.318 505.290, 620.185 128.572, 763.830 239.258 C910.411 352.208, 639.952 669.376, 510.619 801.727 C465.896 847.495, 316.415 728.709, 342.600 670.321 C416.420 505.714, 618.531 131.307, 762.565 239.929 C909.304 350.591, 642.856 668.324, 514.923 800.276 C470.296 846.306, 319.382 729.074, 345.213 670.396 C417.519 506.144, 616.906 134.032, 761.301 240.601 C908.168 348.995, 645.766 667.269, 519.227 798.825 C474.694 845.125, 322.354 729.446, 347.825 670.471 C418.610 506.576, 615.304 136.741, 760.033 241.266 C907.003 347.409, 648.677 666.201, 523.528 797.365 C479.090 843.939, 325.333 729.822, 350.438 670.545 C419.697 507.013, 613.729 139.442, 758.766 241.931 C905.810 345.840, 651.590 665.124, 527.826 795.897 C483.483 842.751, 328.318 730.202, 353.050 670.620 C420.779 507.454, 612.181 142.125, 757.497 242.593 C904.589 344.290, 654.509 664.043, 532.124 794.428 C487.875 841.570, 331.310 730.590, 355.663 670.695 C421.854 507.898, 610.655 144.799, 756.226 243.253 C903.342 342.752, 657.426 662.946, 536.418 792.945 C492.264 840.379, 334.309 730.979, 358.275 670.770 C422.926 508.348, 609.156 147.458, 754.956 243.912 C902.068 341.234, 660.349 661.843, 540.710 791.460 C496.651 839.192, 337.316 731.375, 360.888 670.845 C423.991 508.801, 607.682 150.099, 753.682 244.566 C900.768 339.735, 663.275 660.733, 545.001 789.972 C501.038 838.011, 340.330 731.777, 363.500 670.920 C425.050 509.260, 606.230 152.731, 752.409 245.220 C899.444 338.250, 666.201 659.608, 549.288 788.469 C505.422 836.818, 343.352 732.181, 366.113 670.995 C426.105 509.723, 604.804 155.344, 751.133 245.870 C898.094 336.787, 669.133 658.477, 553.574 786.967 C509.805 835.633, 346.382 732.591, 368.725 671.069 C427.154 510.192, 603.401 157.940, 749.857 246.518 C896.721 335.342, 672.068 657.337, 557.858 785.458 C514.187 834.448, 349.420 733.005, 371.338 671.144 C428.197 510.666, 602.021 160.525, 748.581 247.166 C895.326 333.916, 675.003 656.184, 562.138 783.938 C518.567 833.258, 352.467 733.423, 373.950 671.219 C429.235 511.145, 600.664 163.088, 747.301 247.808 C893.906 332.510, 677.945 655.025, 566.419 782.419 C522.948 832.075, 355.523 733.846, 376.563 671.294 C430.267 511.630, 599.330 165.637, 746.022 248.451 C892.466 331.124, 680.889 653.854, 570.696 780.890 C527.326 830.888, 358.588 734.273, 379.175 671.369 C431.293 512.121, 598.017 168.169, 744.742 249.090 C891.005 329.757, 683.836 652.671, 574.970 779.353 C531.704 829.699, 361.663 734.703, 381.788 671.444 C432.315 512.618, 596.727 170.681, 743.460 249.727 C889.523 328.413, 686.788 651.482, 579.244 777.816 C536.082 828.519, 364.748 735.138, 384.400 671.519 C433.330 513.121, 595.459 173.179, 742.177 250.364 C888.022 327.089, 689.742 650.279, 583.514 776.267 C540.459 827.331, 367.843 735.576, 387.013 671.593 C434.341 513.631, 594.210 175.656, 740.893 250.995 C886.501 325.784, 692.700 649.065, 587.782 774.713 C544.836 826.145, 370.948 736.017, 389.625 671.668 C435.346 514.148, 592.984 178.113, 739.608 251.627 C884.963 324.504, 695.664 647.846, 592.050 773.159 C549.214 824.966, 374.064 736.463, 392.238 671.743 C436.344 514.671, 591.776 180.555, 738.322 252.256 C883.408 323.242, 698.628 646.610, 596.313 771.591 C553.590 823.779, 377.191 736.910, 394.850 671.818 C437.339 515.202, 590.588 182.975, 737.035 252.882 C881.836 322.002, 701.598 645.364, 600.575 770.020 C557.967 822.595, 380.330 737.360, 397.463 671.893 C438.328 515.741, 589.421 185.375, 735.747 253.507 C880.248 320.789, 704.574 644.113, 604.836 768.449 C562.346 821.419, 383.480 737.815, 400.075 671.968 C439.311 516.286, 588.270 187.759, 734.458 254.129 C878.645 319.591, 707.549 642.841, 609.092 766.862 C566.723 820.232, 386.642 738.269, 402.688 672.042 C440.290 516.841, 587.138 190.121, 733.168 254.749 C877.028 318.418, 710.531 641.562, 613.347 765.274 C571.103 819.051, 389.816 738.727, 405.300 672.117 C441.264 517.403, 586.026 192.462, 731.878 255.369 C875.398 317.271, 713.520 640.276, 617.603 763.686 C575.484 817.877, 393.004 739.188, 407.913 672.192 C442.232 517.974, 584.928 194.784, 730.585 255.984 C873.755 316.138, 716.507 638.969, 621.852 762.081 C579.864 816.692, 396.203 739.648, 410.525 672.267 C443.197 518.553, 583.849 197.086, 729.292 256.598 C872.100 315.032, 719.501 637.654, 626.101 760.476 C584.247 815.513, 399.416 740.111, 413.138 672.342 C444.156 519.142, 582.787 199.365, 727.998 257.210 C870.435 313.951, 722.502 636.331, 630.349 758.869 C588.633 814.341, 402.643 740.576, 415.750 672.417 C445.110 519.739, 581.738 201.626, 726.702 257.819 C868.758 312.885, 725.501 634.987, 634.592 757.247 C593.018 813.158, 405.883 741.039, 418.363 672.492 C446.062 520.347, 580.706 203.866, 725.407 258.428 C867.073 311.846, 728.508 633.635, 638.834 755.624 C597.406 811.982, 409.137 741.504, 420.975 672.567 C447.009 520.964, 579.690 206.081, 724.109 259.033 C865.380 310.830, 731.521 632.272, 643.076 754.000 C601.797 810.812, 412.406 741.970, 423.588 672.641 C447.951 521.591, 578.685 208.280, 722.811 259.636 C863.678 309.831, 734.534 630.889, 647.311 752.360 C606.189 809.631, 415.688 742.433, 426.200 672.716 C448.891 522.229, 577.697 210.458, 721.513 260.240 C861.970 308.859, 737.553 629.498, 651.547 750.720 C610.584 808.457, 418.986 742.898, 428.813 672.791 C449.826 522.877, 576.721 212.608, 720.212 260.837 C860.256 307.908, 740.579 628.094, 655.782 749.079 C614.983 807.289, 422.299 743.362, 431.425 672.866 C450.757 523.536, 575.758 214.744, 718.912 261.435 C858.536 306.974, 743.604 626.670, 660.011 747.421 C619.383 806.110, 425.626 743.823, 434.038 672.941 C451.687 524.206, 574.807 216.856, 717.610 262.031 C856.812 306.066, 746.636 625.236, 664.240 745.764 C623.787 804.938, 428.970 744.283, 436.650 673.016 C452.614 524.888, 573.868 218.943, 716.307 262.623 C855.084 305.180, 749.674 623.789, 668.468 744.105 C628.196 803.772, 432.329 744.742, 439.263 673.090 C453.537 525.581, 572.940 221.015, 715.003 263.215 C853.353 304.311, 752.711 622.321, 672.690 742.429 C632.605 802.594, 435.704 745.196, 441.875 673.165 C454.460 526.286, 572.023 223.062, 713.699 263.803 C851.619 303.465, 755.756 620.842, 676.912 740.754 C637.021 801.424, 439.095 745.649, 444.488 673.240 C455.380 527.003, 571.116 225.085, 712.393 264.389 C849.886 302.642, 758.807 619.351, 681.133 739.078 C641.441 800.260, 442.502 746.099, 447.100 673.315 C456.298 527.733, 570.219 227.094, 711.087 264.976 C848.150 301.835, 761.855 617.837, 685.348 737.385 C645.863 799.083, 445.925 746.543, 449.713 673.390 C457.216 528.475, 569.331 229.075, 709.779 265.557 C846.415 301.049, 764.911 616.310, 689.563 735.691 C650.291 797.913, 449.365 746.984, 452.325 673.465 C458.133 529.230, 568.452 231.034, 708.470 266.137 C844.682 300.286, 767.973 614.772, 693.777 733.998 C654.725 796.751, 452.822 747.421, 454.938 673.540 C459.049 529.999, 567.581 232.979, 707.161 266.717 C842.949 299.539, 771.033 613.209, 697.985 732.287 C659.161 795.575, 456.294 747.851, 457.550 673.614 C459.966 530.780, 566.717 234.897, 705.850 267.292 C841.219 298.810, 774.099 611.632, 702.192 730.575 C663.604 794.405, 459.784 748.276, 460.163 673.689 C460.884 531.575, 565.861 236.793, 704.539 267.866 C839.493 298.106, 777.172 610.044, 706.399 728.864 C668.054 793.242, 463.291 748.696, 462.775 673.764 C461.801 532.383, 565.012 238.673, 703.227 268.439 C837.769 297.414, 780.242 608.430, 710.600 727.136 C672.506 792.067, 466.815 749.107, 465.388 673.839 C462.721 533.205, 564.168 240.528, 701.913 269.008 C836.051 296.741, 783.317 606.801, 714.799 725.406 C676.965 790.897, 470.355 749.511, 468.000 673.914 C463.643 534.042, 563.331 242.362, 700.600 269.576 C834.339 296.091, 786.399 605.159, 718.999 723.676 C681.433 789.733, 473.913 749.909, 470.613 673.989 C464.566 534.892, 562.499 244.178, 699.285 270.141 C832.630 295.451, 789.478 603.491, 723.192 721.930 C685.903 788.558, 477.487 750.297, 473.225 674.064 C465.494 535.756, 561.670 245.972, 697.968 270.704 C830.929 294.830, 792.561 601.807, 727.384 720.182 C690.382 787.386, 481.077 750.677, 475.838 674.138 C466.424 536.635, 560.849 247.745, 696.652 271.267 C829.237 294.231, 795.650 600.109, 731.576 718.433 C694.869 786.220, 484.685 751.048, 478.450 674.213 C467.358 537.528, 560.028 249.498, 695.334 271.824 C827.550 293.640, 798.737 598.386, 735.762 716.671 C699.360 785.045, 488.309 751.409, 481.063 674.288 C468.297 538.435, 559.212 251.232, 694.015 272.381 C825.872 293.067, 801.826 596.644, 739.946 714.903 C703.859 783.869, 491.950 751.759, 483.675 674.363 C469.242 539.357, 558.401 252.946, 692.696 272.937 C824.205 292.514, 804.920 594.888, 744.130 713.135 C708.368 782.700, 495.607 752.100, 486.288 674.438 C470.191 540.293, 557.589 254.638, 691.374 273.487 C822.545 291.969, 808.012 593.106, 748.309 711.356 C712.882 781.523, 499.280 752.428, 488.900 674.513 C471.147 541.244, 556.780 256.313, 690.053 274.038 C820.896 291.439, 811.105 591.305, 752.485 709.569 C717.404 780.343, 502.968 752.744, 491.513 674.587 C472.110 542.209, 555.974 257.967, 688.731 274.586 C819.259 290.927, 814.202 589.487, 756.661 707.782 C721.936 779.169, 506.673 753.049, 494.125 674.662 C473.080 543.188, 555.167 259.600, 687.407 275.130 C817.632 290.424, 817.297 587.646, 760.832 705.985 C726.476 777.989, 510.392 753.341, 496.738 674.737 C474.059 544.181, 554.362 261.219, 686.083 275.674 C816.016 289.934, 820.390 585.781, 765.000 704.178 C731.023 776.803, 514.126 753.619, 499.350 674.812 C475.046 545.188, 553.558 262.815, 684.757 276.216 C814.413 289.459, 823.487 583.900, 769.167 702.371 C735.581 775.623, 517.876 753.884, 501.963 674.887 C476.042 546.210, 552.752 264.391, 683.431 276.753 C812.823 288.993, 826.583 581.997, 773.331 700.557 C740.147 774.439, 521.640 754.135, 504.575 674.962 C477.048 547.245, 551.947 265.955, 682.104 277.291 C811.245 288.538, 829.674 580.068, 777.490 698.730 C744.721 773.245, 525.417 754.371, 507.188 675.036 C478.065 548.293, 551.140 267.495, 680.776 277.824 C809.682 288.094, 832.767 578.122, 781.648 696.904 C749.306 772.056, 529.208 754.592, 509.800 675.111 C479.093 549.355, 550.332 269.017, 679.446 278.355 C808.133 287.661, 835.859 576.154, 785.805 695.072 C753.902 770.866, 533.012 754.798, 512.413 675.186 C480.132 550.430, 549.524 270.528, 678.117 278.886 C806.596 287.236, 838.944 574.160, 789.954 693.225 C758.503 769.662, 536.829 754.988, 515.025 675.261 C481.184 551.517, 548.711 272.014, 676.785 279.411 C805.075 286.819, 842.030 572.146, 794.103 691.378 C763.118 768.463, 540.658 755.162, 517.638 675.336 C482.249 552.617, 547.897 273.483, 675.453 279.935 C803.571 286.415, 845.116 570.114, 798.252 689.529 C767.745 767.265, 544.499 755.321, 520.250 675.411 C483.326 553.729, 547.080 274.943, 674.121 280.458 C802.078 286.014, 848.191 568.051, 802.392 687.661 C772.377 766.049, 548.350 755.461, 522.863 675.486 C484.418 554.852, 546.259 276.379, 672.786 280.976 C800.603 285.620, 851.266 565.969, 806.532 685.792 C777.023 764.836, 552.212 755.585, 525.475 675.560 C485.525 555.987, 545.435 277.798, 671.451 281.493 C799.146 285.238, 854.341 563.870, 810.672 683.924 C781.682 763.627, 556.085 755.693, 528.088 675.635 C486.646 557.133, 544.607 279.207, 670.116 282.009 C797.701 284.857, 857.402 561.739, 814.803 682.036 C786.346 762.398, 559.967 755.781, 530.700 675.710 C487.782 558.288, 543.774 280.595, 668.779 282.519 C796.274 284.481, 860.462 559.588, 818.934 680.146 C791.024 761.170, 563.857 755.853, 533.313 675.785 C488.935 559.454, 542.938 281.967, 667.441 283.029 C794.865 284.116, 863.519 557.420, 823.064 678.257 C795.716 759.945, 567.757 755.908, 535.925 675.860 C490.103 560.629, 542.095 283.327, 666.102 283.536 C793.470 283.750, 866.564 555.222, 827.187 676.350 C800.415 758.703, 571.663 755.943, 538.538 675.935 C491.289 561.812, 541.247 284.670, 664.762 284.039 C792.092 283.388, 869.603 553.002, 831.307 674.439 C805.126 757.457, 575.576 755.961, 541.150 676.010 C492.492 563.005, 540.395 285.998, 663.422 284.542 C790.734 283.036, 872.639 550.766, 835.427 672.528 C809.852 756.213, 579.497 755.962, 543.763 676.084 C493.712 564.204, 539.535 287.311, 662.080 285.040 C789.390 282.680, 875.662 548.500, 839.541 670.602 C814.587 754.954, 583.423 755.943, 546.375 676.159 C494.950 565.411, 538.670 288.612, 660.737 285.535 C788.063 282.327, 878.676 546.212, 843.651 668.668 C819.333 753.687, 587.353 755.906, 548.988 676.234 C496.206 566.624, 537.799 289.897, 659.394 286.031 C786.756 281.982, 881.686 543.907, 847.761 666.735 C824.094 752.421, 591.289 755.852, 551.600 676.309 C497.480 567.842, 536.919 291.167, 658.048 286.520 C785.465 281.631, 884.682 541.575, 851.865 664.789 C828.866 751.143, 595.228 755.779, 554.213 676.384 C498.773 569.067, 536.033 292.427, 656.703 287.008 C784.189 281.283, 887.666 539.219, 855.964 662.833 C833.648 749.852, 599.171 755.687, 556.825 676.459 C500.084 570.296, 535.140 293.672, 655.356 287.494 C782.933 280.938, 890.644 536.846, 860.063 660.876 C838.445 748.561, 603.116 755.579, 559.438 676.534 C501.414 571.528, 534.238 294.901, 654.008 287.975 C781.694 280.590, 893.609 534.449, 864.159 658.911 C843.254 747.260, 607.063 755.452, 562.050 676.608 C502.764 572.764, 533.329 296.123, 652.660 288.455 C780.469 280.242, 896.558 532.027, 868.246 656.932 C848.071 745.941, 611.011 755.306, 564.663 676.683 C504.132 574.002, 532.411 297.329, 651.310 288.931 C779.264 279.894, 899.498 529.588, 872.334 654.952 C852.904 744.622, 614.960 755.144, 567.275 676.758 C505.520 575.242, 531.485 298.522, 649.958 289.404 C778.077 279.544, 902.427 527.128, 876.419 652.966 C857.751 743.295, 618.910 754.965, 569.888 676.833 C506.927 576.485, 530.551 299.709, 648.607 289.876 C776.903 279.190, 905.335 524.642, 880.495 650.962 C862.604 741.946, 622.858 754.768, 572.500 676.908 C508.352 577.727, 529.607 300.879, 647.254 290.342 C775.748 278.834, 908.234 522.138, 884.572 648.958 C867.474 740.595, 626.806 754.554, 575.113 676.983 C509.797 578.969, 528.653 302.037, 645.900 290.807 C774.612 278.478, 911.121 519.619, 888.646 646.952 C872.358 739.238, 630.753 754.324, 577.725 677.058 C511.261 580.211, 527.693 303.191, 644.545 291.270 C773.487 278.116, 913.985 517.070, 892.710 644.924 C877.247 737.854, 634.696 754.077, 580.338 677.132 C512.743 581.452, 526.719 304.328, 643.188 291.726 C772.382 277.748, 916.837 514.506, 896.774 642.895 C882.152 736.468, 638.638 753.814, 582.950 677.207 C514.244 582.690, 525.737 305.454, 641.831 292.182 C771.295 277.382, 919.678 511.929, 900.838 640.867 C887.073 735.078, 642.576 753.536, 585.563 677.282 C515.763 583.927, 524.746 306.576, 640.473 292.634 C770.218 277.004, 922.492 509.321, 904.890 638.813 C891.997 733.656, 646.510 753.241, 588.175 677.357 C517.300 585.160, 523.743 307.683, 639.113 293.081 C769.160 276.622, 925.294 506.700, 908.941 636.759 C896.937 732.230, 650.441 752.932, 590.788 677.432 C518.855 586.390, 522.731 308.781, 637.754 293.528 C768.120 276.241, 928.082 504.067, 912.992 634.706 C901.892 730.800, 654.367 752.610, 593.400 677.507 C520.429 587.615, 521.707 309.872, 636.392 293.969 C767.090 275.846, 930.844 501.405, 917.032 632.629 C906.852 729.340, 658.287 752.271, 596.013 677.582 C522.018 588.836, 520.673 310.953, 635.029 294.407 C766.076 275.446, 933.591 498.730, 921.070 630.549 C911.825 727.871, 662.203 751.919, 598.625 677.656 C523.625 590.052, 519.629 312.025, 633.666 294.845 C765.081 275.046, 936.323 496.045, 925.107 628.469 C916.814 726.397, 666.113 751.555, 601.238 677.731 C525.249 591.261, 518.572 313.088, 632.300 295.273 C764.095 274.629, 939.029 493.334, 929.135 626.369 C921.807 724.895, 670.016 751.176, 603.850 677.806 C526.888 592.465, 517.505 314.145, 630.934 295.702 C763.125 274.209, 941.717 490.610, 933.159 624.262 C926.812 723.379, 673.913 750.784, 606.463 677.881 C528.543 593.662, 516.427 315.191, 629.568 296.127 C762.171 273.784, 944.389 487.876, 937.183 622.156 C931.832 721.858, 677.804 750.382, 609.075 677.956 C530.214 594.851, 515.336 316.230, 628.199 296.546 C761.227 273.345, 947.036 485.120, 941.197 620.031 C936.857 720.309, 681.687 749.966, 611.688 678.031 C531.899 596.034, 514.235 317.266, 626.830 296.965 C760.297 272.900, 949.662 482.351, 945.206 617.896 C941.891 718.744, 685.563 749.540, 614.300 678.105 C533.598 597.209, 513.121 318.288, 625.459 297.377 C759.382 272.447, 952.272 479.573, 949.216 615.762 C946.940 717.171, 689.431 749.103, 616.913 678.180 C535.312 598.374, 511.995 319.306, 624.087 297.785 C758.477 271.983, 954.857 476.776, 953.216 613.611 C951.994 715.572, 693.292 748.655, 619.525 678.255 C537.039 599.533, 510.860 320.322, 622.715 298.193 C757.583 271.511, 957.419 473.966, 957.210 611.448 C957.055 713.953, 697.144 748.196, 622.138 678.330 C538.778 600.682, 509.709 321.323, 621.340 298.591 C756.705 271.027, 959.964 471.148, 961.205 609.286 C962.130 712.326, 700.988 747.729, 624.750 678.405 C540.530 601.821, 508.548 322.323, 619.965 298.989 C755.836 270.534, 962.484 468.315, 965.190 607.107 C967.209 710.673, 704.824 747.252, 627.363 678.480 C542.293 602.952, 507.375 323.318, 618.588 299.383 C754.976 270.029, 964.981 465.468, 969.168 604.916 C972.294 708.997, 708.651 746.766, 629.975 678.555 C544.068 604.073, 506.189 324.302, 617.210 299.770 C754.130 269.515, 967.460 462.616, 973.147 602.724 C977.392 707.312, 712.470 746.272, 632.588 678.629 C545.854 605.185, 504.992 325.287, 615.832 300.157 C753.293 268.992, 969.914 459.752, 977.117 600.517 C982.493 705.602, 716.280 745.770, 635.200 678.704 C547.649 606.285, 503.781 326.263, 614.451 300.534 C752.464 268.449, 972.343 456.872, 981.078 598.295 C987.598 703.866, 720.081 745.260, 637.813 678.779 C549.453 607.376, 502.558 327.233, 613.070 300.910 C751.648 267.902, 974.756 453.990, 985.039 596.073 C992.715 702.121, 723.874 744.743, 640.425 678.854 C551.268 608.457, 501.324 328.201, 611.688 301.282 C750.840 267.342, 977.143 451.096, 988.993 593.836 C997.835 700.350, 727.657 744.220, 643.038 678.929 C553.090 609.527, 500.076 329.163, 610.304 301.646 C750.038 266.764, 979.505 448.189, 992.937 591.583 C1002.956 698.551, 731.432 743.688, 645.650 679.004 C554.921 610.588, 498.817 330.121, 608.919 302.010 C749.249 266.183, 981.850 445.281, 996.880 589.330 C1008.088 696.742, 735.197 743.152, 648.263 679.079 C556.759 611.636, 497.544 331.072, 607.532 302.365 C748.465 265.581, 984.170 442.362, 1000.816 587.062 C1013.221 694.907, 738.953 742.610, 650.875 679.153 C558.604 612.675, 496.260 332.023, 606.145 302.717 C747.687 264.967, 986.465 439.431, 1004.741 584.777 C1018.354 693.043, 742.701 742.062, 653.488 679.228 C560.454 613.704, 494.964 332.968, 604.756 303.065 C746.921 264.345, 988.743 436.501, 1008.666 582.491 C1023.497 691.169, 746.439 741.510, 656.100 679.303 C562.311 614.720, 493.653 333.907, 603.365 303.404 C746.159 263.703, 990.997 433.561, 1012.582 580.190 C1028.639 689.267, 750.169 740.952, 658.713 679.378 C564.174 615.728, 492.333 334.850, 601.975 303.743 C745.401 263.050, 993.225 430.610, 1016.488 577.872 C1033.780 687.335, 753.889 740.390, 661.325 679.453 C566.040 616.724, 490.997 335.780, 600.581 304.071 C744.654 262.382, 995.437 427.661, 1020.393 575.553 C1038.929 685.393, 757.601 739.824, 663.938 679.528 C567.912 617.710, 489.651 336.712, 599.187 304.396 C743.911 261.700, 997.625 424.702, 1024.289 573.217 C1044.074 683.422, 761.304 739.254, 666.550 679.602 C569.787 618.685, 488.294 337.642, 597.792 304.717 C743.170 261.002, 999.788 421.734, 1028.174 570.864 C1049.217 681.421, 764.997 738.680, 669.163 679.677 C571.665 619.650, 486.921 338.563, 596.395 305.028 C742.439 260.290, 1001.936 418.768, 1032.059 568.511 C1054.367 679.409, 768.683 738.104, 671.775 679.752 C573.547 620.605, 485.540 339.490, 594.998 305.339 C741.709 259.566, 1004.059 415.793, 1035.931 566.138 C1059.511 677.365, 772.360 737.525, 674.388 679.827 C575.430 621.548, 484.144 340.407, 593.598 305.637 C740.982 258.818, 1006.159 412.809, 1039.795 563.749 C1064.652 675.293, 776.028 736.942, 677.000 679.902 C577.316 622.484, 482.737 341.323, 592.197 305.934 C740.264 258.063, 1008.245 409.831, 1043.658 561.361 C1069.798 673.211, 779.688 736.358, 679.613 679.977 C579.203 623.407, 481.318 342.238, 590.795 306.222 C739.544 257.287, 1010.304 406.839, 1047.506 558.948 C1074.934 671.092, 783.339 735.771, 682.225 680.052 C581.091 624.321, 479.887 343.150, 589.391 306.503 C738.827 256.493, 1012.343 403.844, 1051.346 556.522 C1080.067 668.949, 786.983 735.181, 684.838 680.126 C582.980 625.227, 478.445 344.059, 587.987 306.782 C738.119 255.692, 1014.369 400.854, 1055.187 554.097 C1085.205 666.795, 790.618 734.592, 687.450 680.201 C584.869 626.120, 476.991 344.965, 586.581 307.047 C737.405 254.861, 1016.367 397.847, 1059.008 551.642 C1090.327 664.599, 794.246 733.998, 690.063 680.276 C586.758 627.008, 475.527 345.873, 585.174 307.312 C736.695 254.023, 1018.347 394.840, 1062.824 549.179 C1095.447 662.383, 797.865 733.404, 692.675 680.351 C588.646 627.883, 474.048 346.769, 583.764 307.562 C735.993 253.163, 1020.317 391.838, 1066.640 546.715 C1100.571 660.157, 801.477 732.811, 695.288 680.426 C590.535 628.750, 472.562 347.674, 582.355 307.810 C735.281 252.284, 1022.254 388.817, 1070.432 544.215 C1105.672 657.882, 805.081 732.213, 697.900 680.501 C592.420 629.609, 471.062 348.572, 580.943 308.048 C734.575 251.388, 1024.179 385.799, 1074.223 541.712 C1110.775 655.593, 808.678 731.616, 700.513 680.576 C594.305 630.458, 469.551 349.464, 579.530 308.278 C733.874 250.477, 1026.092 382.785, 1078.010 539.206 C1115.876 653.290, 812.267 731.020, 703.125 680.650 C596.189 631.299, 468.032 350.363, 578.116 308.502 C733.162 249.542, 1027.974 379.751, 1081.773 536.662 C1120.954 650.938, 815.849 730.421, 705.738 680.725 C598.069 632.132, 466.499 351.252, 576.701 308.713 C732.457 248.589, 1029.847 376.722, 1085.536 534.118 C1126.033 648.576, 819.425 729.822, 708.350 680.800 C599.948 632.957, 464.958 352.144, 575.284 308.922 C731.751 247.624, 1031.703 373.691, 1089.290 531.562 C1131.104 646.191, 822.993 729.225, 710.963 680.875 C601.823 633.772, 463.405 353.030, 573.866 309.113 C731.038 246.625, 1033.534 370.644, 1093.024 528.975 C1136.154 643.765, 826.554 728.624, 713.576 680.950 C603.696 634.583, 461.844 353.918, 572.447 309.304 C730.329 245.621, 1035.357 367.604, 1096.758 526.388 C1141.205 641.330, 830.108 728.027, 716.188 681.025 C605.564 635.382, 460.270 354.796, 571.026 309.476 C729.616 244.583, 1037.160 364.553, 1100.475 523.779 C1146.237 638.862, 833.657 727.428, 718.800 681.100 C607.430 636.177, 458.690 355.682, 569.605 309.646 C728.897 243.532, 1038.942 361.494, 1104.178 521.148 C1151.255 636.362, 837.198 726.830, 721.413 681.174 C609.291 636.964, 457.096 356.553, 568.182 309.799 C728.183 242.458, 1040.719 358.440, 1107.880 518.518 C1156.271 633.855, 840.734 726.233, 724.025 681.249 C611.149 637.742, 455.497 357.433, 566.758 309.947 C727.457 241.361, 1042.468 355.367, 1111.557 515.851 C1161.259 631.301, 844.262 725.635, 726.638 681.324 C613.002 638.516, 453.887 358.304, 565.332 310.080 C726.730 240.240, 1044.206 352.293, 1115.227 513.174 C1166.238 628.729, 847.786 725.038, 729.250 681.399 C614.850 639.282, 452.267 359.171, 563.906 310.204 C726.006 239.104, 1045.937 349.221, 1118.893 510.493 C1171.212 626.145, 851.303 724.444, 731.863 681.474 C616.694 640.040, 450.641 360.041, 562.479 310.313 C725.264 237.933, 1047.636 346.124, 1122.528 507.769 C1176.150 623.507, 854.814 723.847, 734.475 681.549 C618.532 640.795, 449.005 360.903, 561.051 310.413 C724.527 236.747, 1049.332 343.033, 1126.162 505.045 C1181.086 620.863, 858.320 723.254, 737.088 681.623 C620.366 641.541, 447.361 361.761, 559.622 310.497 C723.783 235.533, 1051.012 339.931, 1129.781 502.300 C1186.002 618.190, 861.820 722.661, 739.700 681.698 C622.194 642.283, 445.711 362.620, 558.193 310.570 C723.028 234.293, 1052.671 336.814, 1133.378 499.527 C1190.892 615.480, 865.315 722.069, 742.313 681.773 C624.016 643.019, 444.050 363.466, 556.762 310.626 C722.277 233.032, 1054.328 333.702, 1136.975 496.753 C1195.778 612.765, 868.804 721.480, 744.925 681.848 C625.833 643.747, 442.386 364.318, 555.332 310.671 C721.509 231.740, 1055.957 330.565, 1140.540 493.939 C1200.628 610.000, 872.288 720.890, 747.538 681.923 C627.643 644.472, 440.713 365.158, 553.900 310.696 C720.739 230.420, 1057.579 327.424, 1144.096 491.114 C1205.464 607.220, 875.767 720.302, 750.150 681.998 C629.447 645.192, 439.033 365.994, 552.469 310.711 C719.966 229.081, 1059.192 324.281, 1147.644 488.278 C1210.287 604.423, 879.240 719.721, 752.763 682.073 C631.242 645.900, 437.346 366.812, 551.038 310.687 C719.176 227.683, 1060.781 321.106, 1151.158 485.399 C1215.067 601.578, 882.704 719.152, 755.375 682.147 C633.016 646.586, 435.639 367.554, 549.611 310.574 C718.398 226.190, 1062.384 317.922, 1154.671 482.521 C1219.831 598.735, 886.159 718.603, 757.988 682.222 C634.771 647.247, 433.923 368.233, 548.194 310.374 C717.615 224.591, 1063.978 314.703, 1158.155 479.606 C1224.546 595.857, 889.607 718.066, 760.600 682.297 C636.510 647.891, 432.203 368.852, 546.790 310.097 C716.838 222.904, 1065.577 311.462, 1161.622 476.672 C1229.227 592.962, 893.047 717.542, 763.213 682.372 C638.233 648.517, 430.483 369.411, 545.402 309.748 C716.074 221.139, 1067.189 308.209, 1165.083 473.730 C1233.885 590.063, 896.482 717.033, 765.825 682.447 C639.944 649.125, 428.774 369.931, 544.032 309.333 C715.301 219.288, 1068.786 304.913, 1168.500 470.739 C1238.481 587.117, 899.909 716.530, 768.438 682.522 C641.641 649.723, 427.072 370.397, 542.683 308.857 C714.547 217.373, 1070.403 301.611, 1171.918 467.747 C1243.060 584.176, 903.332 716.042, 771.050 682.596 C643.328 650.304, 425.386 370.825, 541.355 308.321 C713.790 215.383, 1072.013 298.274, 1175.300 464.715 C1247.585 581.199, 906.749 715.560, 773.663 682.671 C645.004 650.877, 423.716 371.215, 540.051 307.732 C713.041 213.332, 1073.629 294.917, 1178.664 461.664 C1252.076 578.207, 910.162 715.086, 776.275 682.746 C646.672 651.441, 422.062 371.570, 538.768 307.097 C712.302 211.229, 1075.254 291.545, 1182.015 458.598 C1256.537 575.205, 913.571 714.622, 778.888 682.821 C648.333 651.995, 420.432 371.904, 537.507 306.419 C711.554 209.067, 1076.863 288.133, 1185.322 455.484 C1260.939 572.159, 916.976 714.160, 781.500 682.896 C649.986 652.546, 418.818 372.205, 536.269 305.702 C710.823 206.865, 1078.491 284.718, 1188.629 452.370 C1265.326 569.119, 920.378 713.707, 784.113 682.971 C651.633 653.088, 417.231 372.493, 535.052 304.948 C710.076 204.609, 1080.095 281.259, 1191.883 449.202 C1269.646 566.027, 923.775 713.254, 786.725 683.046 C653.274 653.631, 415.664 372.756, 533.856 304.162 C709.339 202.318, 1081.710 277.789, 1195.128 446.024 C1273.943 562.931, 927.171 712.807, 789.338 683.121 C654.910 654.167, 414.120 373.005, 532.681 303.344 C708.597 199.985, 1083.315 274.292, 1198.339 442.812 C1278.194 559.806, 930.563 712.363, 791.951 683.195 C656.541 654.702, 412.601 373.241, 531.526 302.499 C707.849 197.613, 1084.910 270.766, 1201.517 439.567 C1282.398 556.650, 933.953 711.920, 794.563 683.270 C658.168 655.236, 411.103 373.459, 530.391 301.627 C707.107 195.213, 1086.510 267.228, 1204.681 436.308 C1286.578 553.487, 937.341 711.481, 797.175 683.345 C659.792 655.767, 409.634 373.676, 529.274 300.731 C706.343 192.771, 1088.079 263.646, 1207.787 432.993 C1290.686 550.269, 940.724 711.039, 799.788 683.420 C661.411 656.303, 408.184 373.874, 528.177 299.812 C705.591 190.309, 1089.663 260.060, 1210.892 429.679 C1294.785 547.058, 944.108 710.603, 802.401 683.495 C663.029 656.834, 406.766 374.078, 527.097 298.873 C704.808 187.805, 1091.203 256.425, 1213.925 426.298 C1298.798 543.781, 947.487 710.160, 805.013 683.570 C664.642 657.371, 405.368 374.266, 526.035 297.912 C704.034 185.282, 1092.754 252.781, 1216.952 422.911 C1302.797 540.505, 950.865 709.723, 807.625 683.644 C666.253 657.906, 404.001 374.456, 524.992 296.932 C703.236 182.724, 1094.271 249.098, 1219.918 419.472 C1306.724 537.178, 954.240 709.281, 810.238 683.719 C667.862 658.447, 402.657 374.639, 523.964 295.936 C702.434 180.146, 1095.782 245.396, 1222.861 416.012 C1310.618 533.834, 957.613 708.839, 812.850 683.794 C669.469 658.988, 401.341 374.824, 522.953 294.923 C701.613 177.541, 1097.266 241.663, 1225.754 412.511 C1314.453 530.452, 960.983 708.395, 815.463 683.869 C671.074 659.534, 400.051 375.008, 521.956 293.895 C700.776 174.912, 1098.728 237.902, 1228.604 408.974 C1318.235 527.038, 964.351 707.948, 818.076 683.944 C672.678 660.084, 398.789 375.197, 520.975 292.853 C699.917 172.259, 1100.158 234.109, 1231.399 405.395 C1321.954 523.582, 967.715 707.497, 820.688 684.019 C674.279 660.640, 397.579 375.422, 520.008 291.797 C698.972 169.557, 1101.465 230.231, 1234.025 401.691 C1325.485 519.992, 971.064 707.026, 823.300 684.094 C675.877 661.214, 396.428 375.697, 519.056 290.729 C697.914 166.799, 1102.606 226.258, 1236.429 397.839 C1328.772 516.239, 974.390 706.532, 825.913 684.168 C677.472 661.810, 395.345 376.023, 518.120 289.646 C696.731 163.985, 1103.556 222.196, 1238.578 393.840 C1331.777 512.318, 977.686 706.014, 828.526 684.243 C679.063 662.429, 394.332 376.408, 517.197 288.551 C695.407 161.119, 1104.285 218.058, 1240.438 389.698 C1334.460 508.227, 980.944 705.471, 831.138 684.318 C680.652 663.069, 393.400 376.866, 516.288 287.445 C693.906 158.200, 1104.723 213.858, 1241.921 385.407 C1336.724 503.948, 984.146 704.903, 833.750 684.393 C682.239 663.731, 392.550 377.392, 515.392 286.329 C692.230 155.239, 1104.862 209.629, 1243.020 381.003 C1338.558 499.510, 987.285 704.314, 836.363 684.468 C683.825 664.409, 391.780 377.983, 514.508 285.203 C690.379 152.249, 1104.689 205.408, 1243.718 376.518 C1339.939 494.941, 990.353 703.712, 838.976 684.543 C685.411 665.097, 391.099 378.644, 513.637 284.068 C688.329 149.237, 1104.144 201.241, 1243.941 371.984 C1340.778 490.259, 993.327 703.101, 841.588 684.617 C686.998 665.786, 390.506 379.365, 512.781 282.920 C686.095 146.219, 1103.237 197.172, 1243.700 367.452 C1341.085 485.510, 996.203 702.492, 844.201 684.692 C688.587 666.470, 389.991 380.134, 511.937 281.764 C683.698 143.209, 1102.001 193.232, 1243.038 362.961 C1340.906 480.739, 998.986 701.891, 846.813 684.767 C690.180 667.142, 389.558 380.954, 511.105 280.599 C681.125 140.223, 1100.391 189.486, 1241.898 358.566 C1340.169 475.985, 1001.652 701.309, 849.426 684.842 C691.776 667.789, 389.195 381.806, 510.284 279.426 C678.421 137.268, 1098.494 185.925, 1240.390 354.284 C1338.998 471.283, 1004.227 700.750, 852.038 684.917 C693.377 668.411, 388.900 382.684, 509.475 278.246 C675.604 134.350, 1096.343 182.558, 1238.552 350.133 C1337.436 466.656, 1006.717 700.217, 854.651 684.992 C694.982 669.005, 388.673 383.581, 508.681 277.055 C672.679 131.478, 1093.931 179.421, 1236.373 346.148 C1335.468 462.137, 1009.113 699.719, 857.263 685.067 C696.591 669.563, 388.508 384.493, 507.897 275.857 C669.672 128.652, 1091.328 176.478, 1233.943 342.313 C1333.196 457.725, 1011.441 699.251, 859.875 685.141 C698.204 670.091, 388.401 385.415, 507.125 274.651 C666.596 125.872, 1088.563 173.719, 1231.295 338.624 C1330.661 453.426, 1013.710 698.814, 862.488 685.216 C699.821 670.589, 388.352 386.346, 506.364 273.439 C663.460 123.138, 1085.656 171.135, 1228.457 335.079 C1327.895 449.241, 1015.928 698.407, 865.101 685.291 C701.440 671.059, 388.362 387.281, 505.615 272.219 C660.274 120.450, 1082.631 168.715, 1225.453 331.673 C1324.928 445.171, 1018.101 698.031, 867.713 685.366 C703.063 671.500, 388.433 388.218, 504.879 270.991 C657.043 117.808, 1079.500 166.456, 1222.300 328.404 C1321.776 441.218, 1020.234 697.683, 870.326 685.441 C704.688 671.914, 388.560 389.158, 504.154 269.757 C653.774 115.210, 1076.284 164.336, 1219.024 325.259 C1318.473 437.376, 1022.337 697.362, 872.938 685.516 C706.316 672.303, 388.746 390.100, 503.440 268.516 C650.470 112.655, 1072.996 162.343, 1215.642 322.226 C1315.042 433.637, 1024.416 697.066, 875.551 685.591 C707.945 672.670, 388.990 391.043, 502.737 267.270 C647.136 110.142, 1069.649 160.466, 1212.170 319.299 C1311.500 429.998, 1026.476 696.794, 878.163 685.665 C709.577 673.016, 389.297 391.985, 502.048 266.015 C643.777 107.669, 1066.252 158.695, 1208.616 316.470 C1307.858 426.455, 1028.522 696.544, 880.776 685.740 C711.211 673.341, 389.665 392.925, 501.370 264.754 C640.394 105.237, 1062.812 157.021, 1204.992 313.733 C1304.131 423.004, 1030.556 696.314, 883.388 685.815 C712.846 673.648, 390.094 393.865, 500.703 263.487 C636.989 102.845, 1059.335 155.438, 1201.305 311.080 C1300.329 419.640, 1032.584 696.104, 886.001 685.890 C714.482 673.938, 390.585 394.803, 500.047 262.215 C633.562 100.494, 1055.825 153.943, 1197.559 308.511 C1296.456 416.363, 1034.605 695.913, 888.613 685.965 C716.120 674.211, 391.140 395.737, 499.404 260.936 C630.117 98.183, 1052.286 152.529, 1193.761 306.020 C1292.522 413.170, 1036.624 695.741, 891.226 686.040 C717.760 674.466, 391.763 396.665, 498.774 259.651 C626.658 95.911, 1048.726 151.185, 1189.918 303.599 C1288.536 410.055, 1038.644 695.584, 893.838 686.115 C719.401 674.707, 392.451 397.590, 498.156 258.360 C623.183 93.679, 1045.148 149.908, 1186.036 301.243 C1284.505 407.014, 1040.667 695.444, 896.451 686.189 C721.043 674.934, 393.205 398.509, 497.549 257.064 C619.693 91.487, 1041.553 148.691, 1182.117 298.947 C1280.435 404.045, 1042.695 695.317, 899.063 686.264 C722.687 675.147, 394.026 399.422, 496.953 255.762 C616.191 89.336, 1037.946 147.530, 1178.165 296.708 C1276.330 401.144, 1044.731 695.205, 901.676 686.339 C724.332 675.348, 394.918 400.326, 496.372 254.454 C612.680 87.224, 1034.328 146.422, 1174.184 294.521 C1272.195 398.309, 1046.775 695.106, 904.288 686.414 C725.978 675.537, 395.880 401.220, 495.805 253.139 C609.159 85.155, 1030.699 145.370, 1170.172 292.392 C1268.027 395.545, 1048.828 695.021, 906.901 686.489 C727.626 675.712, 396.912 402.104, 495.249 251.820 C605.631 83.129, 1027.061 144.371, 1166.132 290.317 C1263.832 392.848, 1050.890 694.949, 909.513 686.564 C729.276 675.874, 398.015 402.977, 494.706 250.496 C602.095 81.145, 1023.417 143.415, 1162.069 288.286 C1259.617 390.210, 1052.966 694.888, 912.126 686.638 C730.926 676.025, 399.188 403.837, 494.176 249.166 C598.554 79.204, 1019.769 142.498, 1157.986 286.297 C1255.386 387.630, 1055.057 694.838, 914.738 686.713 C732.579 676.166, 400.437 404.682, 493.662 247.830 C595.012 77.306, 1016.983 140.789, 1153.884 284.346 C1251.057 386.244, 1052.699 694.693, 912.126 686.638 C730.123 676.210, 400.768 403.642, 493.162 246.489 C593.144 76.428, 1014.180 139.145, 1149.758 282.448 C1246.689 384.902, 1050.327 694.558, 909.513 686.564 C727.667 676.240, 401.109 402.591, 492.676 245.142 C591.296 75.564, 1011.367 137.547, 1145.615 280.586 C1242.292 383.592, 1047.946 694.431, 906.901 686.489 C725.211 676.258, 401.461 401.530, 492.204 243.791 C589.469 74.714, 1008.543 135.993, 1141.458 278.757 C1237.869 382.313, 1045.556 694.312, 904.288 686.414 C722.754 676.265, 401.824 400.459, 491.747 242.435 C587.664 73.876, 1005.712 134.480, 1137.286 276.959 C1233.421 381.062, 1043.159 694.199, 901.676 686.339 C720.296 676.263, 402.199 399.376, 491.306 241.073 C585.882 73.053, 1002.867 133.025, 1133.095 275.209 C1228.940 379.852, 1040.749 694.097, 899.063 686.264 C717.839 676.246, 402.590 398.282, 490.883 239.705 C584.124 72.242, 1000.017 131.610, 1128.892 273.487 C1224.435 378.669, 1038.333 694.002, 896.451 686.189 C715.382 676.219, 402.993 397.178, 490.477 238.332 C582.390 71.444, 997.161 130.232, 1124.678 271.792 C1219.910 377.511, 1035.911 693.914, 893.838 686.115 C712.925 676.183, 403.411 396.063, 490.087 236.955 C580.679 70.659, 994.297 128.897, 1120.451 270.130 C1215.360 376.382, 1033.481 693.834, 891.226 686.040 C710.467 676.136, 403.843 394.939, 489.715 235.573 C578.993 69.887, 991.426 127.609, 1116.210 268.503 C1210.784 375.285, 1031.042 693.762, 888.613 685.965 C708.009 676.078, 404.290 393.805, 489.362 234.186 C577.332 69.127, 988.550 126.355, 1111.961 266.899 C1206.191 374.211, 1028.598 693.697, 886.001 685.890 C705.551 676.011, 404.754 392.661, 489.027 232.794 C575.697 68.380, 985.670 125.135, 1107.703 265.319 C1201.578 373.159, 1026.150 693.639, 883.388 685.815 C703.094 675.935, 405.237 391.507, 488.715 231.397 C574.091 67.647, 982.784 123.964, 1103.430 263.777 C1196.939 372.140, 1023.691 693.591, 880.776 685.740 C700.637 675.845, 405.740 390.342, 488.425 229.995 C572.513 66.926, 979.895 122.826, 1099.151 262.255 C1192.283 371.143, 1021.229 693.549, 878.163 685.665 C698.180 675.748, 406.263 389.168, 488.157 228.589 C570.965 66.218, 977.006 121.718, 1094.864 260.754 C1187.610 370.165, 1018.763 693.513, 875.551 685.591 C695.724 675.643, 406.807 387.984, 487.912 227.179 C569.446 65.524, 974.110 120.657, 1090.566 259.286 C1182.913 369.218, 1016.289 693.487, 872.938 685.516 C693.269 675.525, 407.374 386.791, 487.693 225.764 C567.959 64.844, 971.214 119.628, 1086.260 257.839 C1178.199 368.291, 1013.811 693.467, 870.326 685.441 C690.815 675.400, 407.965 385.588, 487.499 224.346 C566.504 64.177, 968.317 118.628, 1081.949 256.410 C1173.470 367.382, 1011.329 693.454, 867.713 685.366 C688.362 675.266, 408.581 384.377, 487.333 222.924 C565.083 63.526, 965.418 117.673, 1077.627 255.012 C1168.718 366.502, 1008.840 693.450, 865.101 685.291 C685.911 675.121, 409.226 383.156, 487.197 221.499 C563.698 62.890, 962.519 116.750, 1073.300 253.633 C1163.950 365.642, 1006.348 693.453, 862.488 685.216 C683.462 674.967, 409.901 381.926, 487.092 220.072 C562.350 62.269, 959.622 115.855, 1068.967 252.270 C1159.167 364.799, 1003.853 693.461, 859.875 685.142 C681.015 674.806, 410.608 380.688, 487.021 218.642 C561.042 61.667, 956.723 115.005, 1064.625 250.937 C1154.360 363.984, 1001.351 693.479, 857.263 685.067 C678.572 674.634, 411.350 379.442, 486.985 217.211 C559.775 61.083, 953.828 114.185, 1060.278 249.621 C1149.538 363.187, 998.846 693.504, 854.651 684.992 C676.131 674.454, 412.130 378.188, 486.988 215.780 C558.553 60.519, 950.937 113.394, 1055.926 248.319 C1144.701 362.407, 996.339 693.533, 852.038 684.917 C673.695 674.268, 412.950 376.927, 487.033 214.349 C557.377 59.977, 948.047 112.650, 1051.565 247.048 C1139.840 361.655, 993.824 693.573, 849.425 684.842 C671.264 674.070, 413.814 375.659, 487.121 212.921 C556.250 59.459, 945.162 111.935, 1047.201 245.790 C1134.964 360.919, 991.308 693.617, 846.813 684.767 C668.838 673.867, 414.727 374.386, 487.258 211.496 C555.176 58.967, 942.283 111.252, 1042.832 244.549 C1130.071 360.202, 988.789 693.667, 844.201 684.692 C666.419 673.658, 415.690 373.108, 487.445 210.077 C554.157 58.504, 939.409 110.615, 1038.455 243.334 C1125.156 359.510, 986.264 693.724, 841.588 684.618 C664.007 673.440, 416.710 371.828, 487.687 208.666 C553.197 58.074, 936.542 110.008, 1034.075 242.132 C1120.224 358.834, 983.737 693.785, 838.976 684.543 C661.606 673.219, 417.794 370.548, 487.993 207.268 C552.304 57.684, 933.686 109.439, 1029.691 240.947 C1115.273 358.179, 981.207 693.849, 836.363 684.468 C659.216 672.994, 418.948 369.269, 488.366 205.886 C551.481 57.337, 930.838 108.914, 1025.300 239.785 C1110.300 357.548, 978.672 693.918, 833.751 684.393 C656.838 672.766, 420.173 367.995, 488.807 204.525 C550.730 57.039, 928.000 108.424, 1020.906 238.635 C1105.310 356.932, 976.137 693.987, 831.138 684.318 C654.473 672.538, 421.473 366.730, 489.321 203.189 C550.054 56.797, 925.173 107.978, 1016.506 237.506 C1100.298 356.337, 973.597 694.056, 828.526 684.243 C652.125 672.311, 422.854 365.479, 489.912 201.885 C549.458 56.617, 922.356 107.576, 1012.102 236.394 C1095.265 355.763, 971.054 694.122, 825.913 684.168 C649.798 672.090, 424.333 364.249, 490.595 200.628 C548.956 56.519, 919.554 107.214, 1007.695 235.294 C1090.214 355.205, 968.511 694.183, 823.300 684.094 C647.490 671.878, 425.899 363.044, 491.360 199.419 C548.538 56.501, 916.762 106.903, 1003.283 234.217 C1085.141 354.670, 965.964 694.238, 820.688 684.019 C645.204 671.674, 427.553 361.871, 492.208 198.266 C548.205 56.572, 913.979 106.637, 998.867 233.155 C1080.049 354.151, 963.416 694.280, 818.076 683.944 C642.946 671.489, 429.310 360.744, 493.152 197.191" fill="none" stroke="black" stroke-width="0.1" />
<path d="M493.152 197.191 C547.969 56.757, 911.208 106.415, 994.448 232.104 C1074.941 353.645, 960.868 694.307, 815.463 683.869 C640.713 671.325, 431.154 359.664, 494.176 196.191 C547.817 57.051, 908.442 106.250, 990.023 231.077 C1069.812 353.162, 958.315 694.321, 812.851 683.794 C638.505 671.177, 433.079 358.637, 495.274 195.274 C547.744 57.458, 905.680 106.128, 985.596 230.062 C1064.669 352.689, 955.764 694.312, 810.238 683.719 C636.326 671.060, 435.088 357.677, 496.450 194.458 C547.751 57.998, 902.920 106.054, 981.166 229.061 C1059.514 352.229, 953.212 694.281, 807.625 683.644 C634.173 670.971, 437.163 356.781, 497.685 193.737 C547.826 58.660, 900.155 106.033, 976.731 228.082 C1054.343 351.784, 950.658 694.231, 805.013 683.570 C632.042 670.908, 439.293 355.951, 498.971 193.108 C547.957 59.439, 897.385 106.051, 972.293 227.113 C1049.164 351.347, 948.104 694.163, 802.401 683.495 C629.927 670.866, 441.458 355.173, 500.290 192.552 C548.132 60.310, 894.605 106.112, 967.852 226.161 C1043.974 350.922, 945.547 694.098, 799.788 683.420 C627.808 670.821, 443.621 354.402, 501.613 192.006 C548.323 61.199, 891.810 106.206, 963.407 225.228 C1038.770 350.510, 942.988 694.032, 797.175 683.345 C625.690 670.777, 445.789 353.648, 502.944 191.479 C548.535 62.120, 889.002 106.328, 958.959 224.305 C1033.556 350.106, 940.427 693.967, 794.563 683.270 C623.566 670.730, 447.954 352.901, 504.278 190.960 C548.764 63.057, 886.179 106.484, 954.508 223.401 C1028.330 349.717, 937.863 693.904, 791.951 683.195 C621.441 670.682, 450.120 352.167, 505.618 190.457 C549.011 64.019, 883.342 106.672, 950.054 222.513 C1023.091 349.338, 935.297 693.842, 789.338 683.121 C619.313 670.631, 452.286 351.442, 506.962 189.965 C549.275 65.001, 880.491 106.886, 945.597 221.636 C1017.842 348.967, 932.730 693.781, 786.725 683.046 C617.181 670.579, 454.449 350.727, 508.310 189.483 C549.556 66.002, 877.623 107.137, 941.136 220.780 C1012.579 348.611, 930.158 693.723, 784.113 682.971 C615.047 670.524, 456.613 350.025, 509.663 189.015 C549.855 67.027, 874.740 107.418, 936.673 219.938 C1007.306 348.265, 927.585 693.668, 781.500 682.896 C612.907 670.465, 458.774 349.328, 511.017 188.552 C550.169 68.065, 871.843 107.724, 932.208 219.107 C1002.021 347.927, 925.011 693.610, 778.888 682.821 C610.766 670.408, 460.936 348.648, 512.378 188.109 C550.503 69.131, 868.929 108.069, 927.738 218.299 C996.724 347.603, 922.432 693.561, 776.276 682.746 C608.618 670.340, 463.092 347.970, 513.739 187.665 C550.850 70.204, 865.998 108.441, 923.266 217.504 C991.415 347.289, 919.852 693.510, 773.663 682.671 C606.470 670.276, 465.251 347.309, 515.107 187.242 C551.217 71.307, 863.052 108.841, 918.792 216.720 C986.097 346.982, 917.270 693.463, 771.051 682.597 C604.315 670.205, 467.404 346.653, 516.475 186.821 C551.598 72.420, 860.089 109.278, 914.314 215.959 C980.765 346.691, 914.683 693.420, 768.438 682.522 C602.157 670.130, 469.557 346.009, 517.847 186.413 C551.996 73.553, 857.108 109.743, 909.834 215.211 C975.422 346.408, 912.095 693.380, 765.826 682.447 C599.995 670.051, 471.708 345.374, 519.221 186.013 C552.409 74.702, 854.111 110.236, 905.352 214.476 C970.069 346.132, 909.505 693.344, 763.213 682.372 C597.827 669.968, 473.854 344.746, 520.598 185.619 C552.838 75.864, 851.096 110.765, 900.866 213.763 C964.703 345.872, 906.910 693.312, 760.600 682.297 C595.657 669.880, 476.001 344.132, 521.978 185.240 C553.284 77.048, 848.063 111.324, 896.378 213.065 C959.327 345.620, 904.313 693.286, 757.988 682.222 C593.479 669.783, 478.142 343.521, 523.358 184.860 C553.744 78.239, 845.012 111.910, 891.888 212.380 C953.940 345.377, 901.714 693.261, 755.375 682.147 C591.300 669.687, 480.283 342.926, 524.743 184.498 C554.222 79.455, 841.943 112.533, 887.395 211.716 C948.541 345.147, 899.111 693.244, 752.763 682.073 C589.114 669.580, 482.419 342.336, 526.129 184.138 C554.714 80.679, 838.855 113.187, 882.899 211.070 C943.131 344.927, 896.504 693.234, 750.150 681.998 C586.923 669.466, 484.553 341.756, 527.516 183.787 C555.221 81.918, 835.748 113.870, 878.401 210.438 C937.710 344.716, 893.895 693.227, 747.538 681.923 C584.728 669.349, 486.685 341.187, 528.906 183.445 C555.745 83.175, 832.622 114.585, 873.901 209.825 C932.279 344.516, 891.282 693.230, 744.926 681.848 C582.526 669.219, 488.811 340.622, 530.296 183.104 C556.282 84.437, 829.475 115.336, 869.397 209.234 C926.835 344.329, 888.664 693.237, 742.313 681.773 C580.322 669.084, 490.938 340.073, 531.691 182.780 C556.837 85.723, 826.310 116.118, 864.892 208.658 C921.382 344.152, 886.043 693.255, 739.701 681.698 C578.111 668.938, 493.059 339.529, 533.085 182.456 C557.406 87.015, 823.124 116.928, 860.384 208.099 C915.918 343.983, 883.418 693.279, 737.088 681.623 C575.895 668.784, 495.178 338.994, 534.481 182.140 C557.990 88.322, 819.917 117.778, 855.874 207.565 C910.442 343.830, 880.788 693.314, 734.475 681.549 C573.675 668.618, 497.294 338.471, 535.880 181.833 C558.589 89.643, 816.690 118.661, 851.361 207.051 C904.956 343.688, 878.153 693.362, 731.863 681.474 C571.448 668.437, 499.406 337.951, 537.278 181.527 C559.203 90.969, 813.442 119.576, 846.846 206.555 C899.460 343.556, 875.514 693.417, 729.251 681.399 C569.218 668.250, 501.516 337.447, 538.679 181.235 C559.833 92.317, 810.172 120.523, 842.329 206.079 C893.954 343.435, 872.870 693.485, 726.638 681.324 C566.981 668.047, 503.622 336.948, 540.081 180.944 C560.477 93.671, 806.881 121.511, 837.809 205.631 C888.436 343.331, 870.219 693.569, 724.026 681.249 C564.740 667.826, 505.724 336.458, 541.483 180.659 C561.136 95.035, 803.568 122.535, 833.287 205.206 C882.908 343.239, 867.562 693.667, 721.413 681.174 C562.494 667.591, 507.825 335.980, 542.888 180.383 C561.811 96.414, 800.232 123.594, 828.763 204.803 C877.370 343.160, 864.899 693.782, 718.801 681.099 C560.243 667.335, 509.920 335.506, 544.293 180.108 C562.499 97.798, 796.874 124.689, 824.236 204.424 C871.823 343.095, 862.229 693.912, 716.188 681.025 C557.987 667.064, 512.014 335.046, 545.700 179.844 C563.203 99.198, 793.494 125.821, 819.708 204.070 C866.266 343.043, 859.552 694.062, 713.576 680.950 C555.727 666.771, 514.104 334.593, 547.107 179.583 C563.923 100.606, 790.090 126.999, 815.177 203.750 C860.697 343.011, 856.864 694.240, 710.963 680.875 C553.462 666.448, 516.189 334.146, 548.515 179.324 C564.656 102.019, 786.663 128.217, 810.645 203.459 C855.119 342.996, 854.168 694.436, 708.351 680.800 C551.194 666.103, 518.273 333.714, 549.925 179.077 C565.405 103.450, 783.212 129.477, 806.110 203.198 C849.532 342.998, 851.462 694.662, 705.738 680.725 C548.921 665.727, 520.352 333.287, 551.335 178.831 C566.169 104.884, 779.738 130.781, 801.574 202.971 C843.936 343.020, 848.744 694.918, 703.126 680.650 C546.646 665.318, 522.428 332.869, 552.746 178.590 C566.947 106.327, 776.240 132.130, 797.036 202.778 C838.330 343.062, 846.014 695.205, 700.513 680.576 C544.368 664.876, 524.501 332.462, 554.159 178.358 C567.741 107.782, 772.717 133.529, 792.496 202.625 C832.716 343.126, 843.270 695.533, 697.901 680.501 C542.087 664.389, 526.569 332.061, 555.571 178.125 C568.550 109.239, 769.171 134.979, 787.956 202.513 C827.093 343.216, 840.510 695.901, 695.288 680.426 C539.806 663.858, 528.634 331.672, 556.985 177.901 C569.374 110.707, 765.600 136.484, 783.414 202.447 C821.461 343.333, 837.732 696.317, 692.676 680.351 C537.524 663.275, 530.694 331.291, 558.400 177.682 C570.214 112.181, 762.006 138.059, 778.872 202.444 C815.822 343.489, 834.929 696.797, 690.063 680.276 C535.244 662.620, 532.738 330.915, 559.814 177.462 C571.074 113.648, 758.392 139.859, 774.337 202.666 C810.169 343.801, 832.039 697.443, 687.451 680.201 C532.982 661.782, 534.757 330.548, 561.230 177.254 C571.962 115.112, 754.776 141.964, 769.828 203.203 C804.519 344.333, 829.025 698.329, 684.838 680.126 C530.749 660.674, 536.744 330.184, 562.647 177.047 C572.880 116.553, 751.177 144.361, 765.367 204.051 C798.895 345.083, 825.881 699.469, 682.226 680.052 C528.554 659.281, 538.694 329.822, 564.064 176.842 C573.828 117.963, 747.616 147.032, 760.975 205.201 C793.320 346.043, 822.605 700.862, 679.613 679.977 C526.406 657.599, 540.604 329.468, 565.482 176.647 C574.810 119.344, 744.107 149.956, 756.667 206.638 C787.816 347.205, 819.190 702.519, 677.000 679.902 C524.316 655.615, 542.471 329.114, 566.900 176.452 C575.825 120.678, 740.663 153.105, 752.459 208.344 C782.398 348.554, 815.631 704.435, 674.388 679.827 C522.294 653.328, 544.293 328.765, 568.319 176.261 C576.873 121.962, 737.295 156.453, 748.359 210.297 C777.081 350.075, 811.925 706.601, 671.775 679.752 C520.357 650.745, 546.069 328.422, 569.738 176.078 C577.955 123.196, 734.010 159.973, 744.375 212.477 C771.872 351.753, 808.064 709.012, 669.163 679.677 C518.518 647.863, 547.798 328.081, 571.158 175.895 C579.067 124.366, 730.809 163.638, 740.510 214.860 C766.779 353.572, 804.042 711.650, 666.551 679.603 C516.793 644.696, 549.483 327.745, 572.578 175.718 C580.211 125.474, 727.695 167.422, 736.763 217.427 C761.803 355.516, 799.852 714.500, 663.938 679.528 C515.200 641.255, 551.124 327.416, 574.000 175.546 C581.384 126.518, 724.666 171.304, 733.132 220.156 C756.946 357.571, 795.485 717.547, 661.326 679.453 C513.755 637.550, 552.719 327.089, 575.421 175.374 C582.586 127.488, 721.725 175.264, 729.620 223.035 C752.210 359.727, 790.932 720.768, 658.713 679.378 C512.479 633.600, 554.274 326.770, 576.843 175.209 C583.814 128.389, 718.865 179.282, 726.218 226.044 C747.589 361.969, 786.185 724.141, 656.101 679.303 C511.387 629.424, 555.790 326.457, 578.265 175.048 C585.068 129.216, 716.082 183.340, 722.919 229.166 C743.079 364.287, 781.238 727.641, 653.488 679.228 C510.498 625.040, 557.267 326.148, 579.687 174.887 C586.346 129.964, 713.372 187.422, 719.720 232.390 C738.676 366.670, 776.086 731.236, 650.876 679.154 C509.825 620.482, 558.709 325.849, 581.111 174.734 C587.647 130.639, 710.730 191.517, 716.614 235.704 C734.376 369.110, 770.723 734.902, 648.263 679.079 C509.384 615.770, 560.114 325.555, 582.534 174.583 C588.972 131.232, 708.161 195.616, 713.602 239.104 C730.181 371.606, 765.144 738.611, 645.651 679.004 C509.188 610.932, 561.486 325.267, 583.958 174.433 C590.318 131.742, 705.651 199.705, 710.672 242.574 C726.079 374.144, 759.355 742.321, 643.038 678.929 C509.242 606.010, 562.828 324.989, 585.382 174.291 C591.685 132.177, 703.199 203.775, 707.817 246.107 C722.066 376.721, 753.357 746.006, 640.426 678.854 C509.552 601.033, 564.136 324.717, 586.807 174.151 C593.074 132.526, 700.809 207.822, 705.042 249.703 C718.145 379.336, 747.157 749.633, 637.813 678.779 C510.119 596.035, 565.416 324.449, 588.231 174.010 C594.483 132.789, 698.471 211.836, 702.334 253.349 C714.305 381.979, 740.771 753.162, 635.201 678.704 C510.935 591.062, 566.668 324.194, 589.657 173.879 C595.912 132.978, 696.183 215.813, 699.689 257.041 C710.543 384.649, 734.212 756.566, 632.588 678.629 C511.994 586.144, 567.890 323.944, 591.082 173.749 C597.362 133.079, 693.948 219.749, 697.109 260.779 C706.860 387.345, 727.497 759.816, 629.976 678.555 C513.281 581.317, 569.087 323.699, 592.508 173.619 C598.831 133.098, 691.757 223.639, 694.581 264.553 C703.246 390.059, 720.654 762.881, 627.363 678.480 C514.775 576.621, 570.258 323.466, 593.934 173.497 C600.321 133.042, 689.616 227.484, 692.111 268.365 C699.705 392.794, 713.705 765.740, 624.750 678.405 C516.455 572.082, 571.403 323.238, 595.361 173.376 C601.831 132.904, 687.517 231.278, 689.688 272.206 C696.228 395.544, 706.678 768.374, 622.138 678.330 C518.295 567.725, 572.522 323.016, 596.787 173.256 C603.360 132.687, 685.464 235.021, 687.313 276.078 C692.816 398.309, 699.603 770.767, 619.526 678.255 C520.264 563.580, 573.618 322.805, 598.214 173.144 C604.910 132.403, 683.452 238.715, 684.980 279.975 C689.464 401.086, 692.506 772.910, 616.913 678.180 C522.334 559.659, 574.690 322.598, 599.641 173.032 C606.479 132.043, 681.482 242.358, 682.688 283.896 C686.170 403.875, 685.416 774.799, 614.301 678.105 C524.475 555.974, 575.738 322.398, 601.068 172.921 C608.068 131.612, 679.553 245.951, 680.434 287.840 C682.933 406.674, 678.363 776.429, 611.688 678.031 C526.654 552.538, 576.764 322.207, 602.496 172.818 C609.678 131.122, 677.664 249.496, 678.215 291.802 C679.748 409.481, 671.367 777.807, 609.076 677.956 C528.846 549.349, 577.767 322.022, 603.924 172.715 C611.308 130.567, 675.814 252.994, 676.029 295.784 C676.614 412.296, 664.452 778.939, 606.463 677.881 C531.021 546.408, 578.747 321.841, 605.352 172.614 C612.958 129.951, 674.001 256.446, 673.872 299.781 C673.530 415.117, 657.639 779.832, 603.851 677.806 C533.156 543.711, 579.705 321.670, 606.780 172.519 C614.628 129.285, 672.226 259.856, 671.744 303.794 C670.492 417.945, 650.942 780.501, 601.238 677.731 C535.229 541.249, 580.641 321.504, 608.208 172.425 C616.319 128.565, 670.487 263.224, 669.641 307.820 C667.499 420.777, 644.375 780.957, 598.626 677.656 C537.223 539.012, 581.555 321.342, 609.637 172.332 C618.030 127.794, 668.784 266.553, 667.562 311.858 C664.549 423.614, 637.950 781.215, 596.013 677.581 C539.120 536.989, 582.448 321.190, 611.066 172.246 C619.762 126.985, 667.115 269.847, 665.504 315.907 C661.639 426.455, 631.673 781.290, 593.401 677.507 C540.909 535.165, 583.319 321.041, 612.495 172.161 C621.515 126.132, 665.479 273.105, 663.466 319.966 C658.769 429.299, 625.549 781.198, 590.788 677.432 C542.581 533.526, 584.169 320.896, 613.924 172.076 C623.288 125.238, 663.875 276.331, 661.445 324.034 C655.935 432.145, 619.582 780.953, 588.176 677.357 C544.127 532.061, 584.999 320.760, 615.353 171.999 C625.082 124.316, 662.303 279.528, 659.439 328.109 C653.137 434.994, 613.772 780.570, 585.563 677.282 C545.544 530.751, 585.807 320.626, 616.782 171.921 C626.898 123.359, 660.760 282.697, 657.446 332.191 C650.372 437.844, 608.118 780.063, 582.951 677.207 C546.829 529.585, 586.594 320.497, 618.212 171.844 C628.734 122.371, 659.246 285.839, 655.465 336.278 C647.638 440.695, 602.619 779.445, 580.338 677.132 C547.982 528.550, 587.361 320.374, 619.641 171.775 C630.592 121.363, 657.758 288.958, 653.493 340.369 C644.934 443.547, 597.270 778.729, 577.726 677.057 C549.002 527.631, 588.108 320.254, 621.071 171.706 C632.472 120.328, 656.295 292.054, 651.528 344.465 C642.257 446.399, 592.067 777.924, 575.113 676.983 C549.892 526.817, 588.835 320.137, 622.501 171.637 C634.373 119.270, 654.857 295.128, 649.569 348.562 C639.605 449.251, 587.006 777.043, 572.501 676.908 C550.655 526.099, 589.542 320.027, 623.931 171.575 C636.296 118.200, 653.439 298.184, 647.612 352.661 C636.976 452.102, 582.081 776.095, 569.888 676.833 C551.295 525.464, 590.230 319.919, 625.361 171.514 C638.240 117.110, 652.042 301.220, 645.656 356.761 C634.368 454.951, 577.286 775.087, 567.276 676.758 C551.816 524.903, 590.900 319.812, 626.792 171.452 C640.206 116.004, 650.662 304.238, 643.699 360.859 C631.778 457.798, 572.615 774.028, 564.663 676.683 C552.224 524.411, 591.551 319.712, 628.222 171.398 C642.193 114.891, 649.297 307.240, 641.738 364.956 C629.205 460.642, 568.063 772.925, 562.051 676.608 C552.523 523.976, 592.186 319.614, 629.652 171.344 C644.202 113.765, 647.945 310.226, 639.769 369.049 C626.644 463.483, 563.622 771.783, 559.438 676.534 C552.721 523.592, 592.803 319.517, 631.083 171.291 C646.233 112.628, 646.602 313.195, 637.791 373.138 C624.094 466.319, 559.286 770.609, 556.826 676.459 C552.821 523.255, 593.405 319.426, 632.514 171.244 C648.284 111.489, 645.267 316.149, 635.800 377.221 C621.551 469.150, 555.051 769.407, 554.213 676.384 C552.831 522.958, 593.994 319.337, 633.944 171.198 C650.356 110.343, 643.934 319.087, 633.793 381.295 C619.010 471.973, 550.909 768.181, 551.601 676.309 C552.757 522.696, 594.569 319.250, 635.375 171.151 C652.448 109.189, 642.602 322.008, 631.766 385.360 C616.471 474.788, 546.854 766.936, 548.988 676.234 C552.605 522.467, 595.134 319.169, 636.806 171.112 C654.559 108.038, 641.265 324.914, 629.716 389.413 C613.927 477.594, 542.882 765.675, 546.376 676.159 C552.381 522.265, 595.692 319.091, 638.237 171.073 C656.687 106.883, 639.916 327.800, 627.635 393.450 C611.372 480.387, 538.985 764.400, 543.763 676.084 C552.094 522.087, 596.243 319.017, 639.668 171.034 C658.832 105.725, 638.554 330.666, 625.521 397.470 C608.802 483.166, 535.159 763.115, 541.151 676.010 C551.749 521.933, 596.793 318.951, 641.099 171.001 C660.992 104.572, 637.169 333.512, 623.366 401.469 C606.211 485.927, 531.397 761.821, 538.538 675.935 C551.353 521.798, 597.346 318.891, 642.530 170.970 C663.164 103.418, 635.755 336.332, 621.164 405.441 C603.591 488.666, 527.695 760.521, 535.926 675.860 C550.914 521.682, 597.887 318.832, 643.961 170.938 C665.356 102.262, 634.336 339.136, 618.937 409.399 C600.965 491.396, 524.058 759.216, 533.313 675.785 C550.419 521.582, 598.361 318.761, 645.392 170.912 C667.597 101.109, 633.008 341.967, 616.779 413.396 C598.429 494.161, 520.518 757.905, 530.701 675.710 C549.807 521.487, 598.757 318.669, 646.824 170.887 C669.894 99.955, 631.785 344.829, 614.705 417.437 C595.996 496.968, 517.073 756.591, 528.088 675.635 C549.075 521.393, 599.078 318.554, 648.255 170.863 C672.248 98.804, 630.655 347.718, 612.703 421.514 C593.655 499.812, 513.714 755.279, 525.476 675.560 C548.235 521.297, 599.324 318.419, 649.686 170.843 C674.659 97.666, 629.615 350.635, 610.769 425.624 C591.402 502.690, 510.435 753.970, 522.863 675.486 C547.295 521.197, 599.495 318.260, 651.117 170.825 C677.127 96.540, 628.659 353.577, 608.899 429.763 C589.230 505.600, 507.228 752.667, 520.251 675.411 C546.263 521.090, 599.591 318.072, 652.549 170.808 C679.656 95.428, 627.784 356.542, 607.090 433.929 C587.139 508.542, 504.089 751.372, 517.638 675.336 C545.144 520.976, 599.610 317.858, 653.980 170.795 C682.247 94.339, 626.985 359.532, 605.338 438.120 C585.122 511.513, 501.010 750.087, 515.026 675.261 C543.947 520.852, 599.556 317.613, 655.412 170.784 C684.898 93.272, 626.255 362.543, 603.636 442.331 C583.172 514.512, 497.987 748.812, 512.413 675.186 C542.679 520.718, 599.427 317.333, 656.843 170.773 C687.614 92.228, 625.591 365.575, 601.980 446.560 C581.286 517.537, 495.014 747.550, 509.801 675.111 C541.345 520.574, 599.221 317.018, 658.275 170.767 C690.395 91.217, 624.993 368.627, 600.371 450.807 C579.463 520.589, 492.089 746.301, 507.188 675.037 C539.948 520.419, 598.940 316.665, 659.706 170.762 C693.242 90.240, 624.452 371.699, 598.800 455.069 C577.695 523.665, 489.205 745.065, 504.576 674.962 C538.497 520.251, 598.585 316.268, 661.138 170.758 C696.157 89.296, 623.964 374.788, 597.266 459.344 C575.978 526.765, 486.359 743.845, 501.963 674.887 C536.995 520.073, 598.153 315.828, 662.569 170.758 C699.142 88.394, 623.531 377.897, 595.768 463.633 C574.313 529.890, 483.548 742.640, 499.351 674.812 C535.445 519.883, 597.645 315.339, 664.000 170.761 C702.196 87.537, 623.144 381.022, 594.300 467.931 C572.692 533.038, 480.769 741.452, 496.738 674.737 C533.854 519.680, 597.063 314.797, 665.432 170.763 C705.323 86.724, 622.801 384.163, 592.859 472.238 C571.112 536.208, 478.018 740.280, 494.126 674.662 C532.223 519.466, 596.404 314.201, 666.863 170.769 C708.523 85.965, 622.502 387.320, 591.445 476.554 C569.571 539.402, 475.293 739.126, 491.513 674.587 C530.556 519.241, 595.670 313.546, 668.295 170.778 C711.796 85.262, 622.240 390.493, 590.051 480.877 C568.064 542.618, 472.591 737.990, 488.901 674.513 C528.857 519.004, 594.862 312.825, 669.726 170.787 C715.146 84.615, 622.015 393.680, 588.679 485.207 C566.590 545.857, 469.910 736.872, 486.288 674.438 C527.128 518.757, 593.979 312.037, 671.158 170.800 C718.571 84.035, 621.823 396.881, 587.324 489.542 C565.144 549.117, 467.247 735.773, 483.675 674.363 C525.372 518.498, 593.023 311.178, 672.589 170.815 C722.072 83.523, 621.660 400.097, 585.983 493.882 C563.723 552.400, 464.601 734.694, 481.063 674.288 C523.592 518.229, 591.994 310.239, 674.021 170.831 C725.651 83.082, 621.527 403.325, 584.657 498.226 C562.325 555.706, 461.970 733.635, 478.450 674.213 C521.789 517.949, 590.894 309.221, 675.452 170.850 C729.308 82.720, 621.417 406.566, 583.339 502.573 C560.946 559.033, 459.352 732.597, 475.838 674.138 C519.967 517.660, 589.724 308.116, 676.883 170.872 C733.041 82.443, 621.331 409.820, 582.031 506.922 C559.584 562.383, 456.745 731.580, 473.225 674.063 C518.126 517.361, 588.487 306.918, 678.314 170.894 C736.852 82.250, 621.265 413.085, 580.728 511.274 C558.235 565.755, 454.148 730.584, 470.613 673.989 C516.270 517.053, 587.185 305.625, 679.746 170.919 C740.740 82.152, 621.216 416.361, 579.429 515.626 C556.897 569.149, 451.559 729.610, 468.000 673.914 C514.399 516.736, 585.820 304.232, 681.177 170.947 C744.703 82.154, 621.183 419.648, 578.131 519.979 C555.566 572.566, 448.977 728.659, 465.388 673.839 C512.516 516.409, 584.396 302.730, 682.608 170.975 C748.740 82.257, 621.162 422.944, 576.833 524.332 C554.240 576.005, 446.401 727.731, 462.775 673.764 C510.621 516.075, 582.916 301.118, 684.039 171.007 C752.850 82.470, 621.152 426.251, 575.533 528.683 C552.916 579.465, 443.829 726.826, 460.163 673.689 C508.718 515.733, 581.384 299.391, 685.470 171.041 C757.030 82.800, 621.151 429.567, 574.228 533.034 C551.591 582.949, 441.260 725.945, 457.550 673.614 C506.806 515.383, 579.806 297.542, 686.901 171.076 C761.277 83.247, 621.155 432.890, 572.916 537.382 C550.262 586.453, 438.694 725.089, 454.938 673.540 C504.888 515.026, 578.186 295.569, 688.332 171.113 C765.588 83.821, 621.162 436.222, 571.595 541.728 C548.926 589.980, 436.129 724.257, 452.325 673.465 C502.964 514.663, 576.530 293.467, 689.763 171.154 C769.960 84.527, 621.170 439.561, 570.263 546.070 C547.579 593.529, 433.564 723.450, 449.713 673.390 C501.036 514.292, 574.844 291.232, 691.194 171.195 C774.388 85.365, 621.177 442.906, 568.917 550.409 C546.220 597.098, 430.998 722.669, 447.101 673.315 C499.106 513.916, 573.135 288.861, 692.625 171.239 C778.867 86.346, 621.181 446.257, 567.557 554.742 C544.846 600.689, 428.431 721.913, 444.488 673.240 C497.173 513.534, 571.411 286.352, 694.056 171.286 C783.390 87.472, 621.177 449.613, 566.178 559.070 C543.451 604.299, 425.862 721.183, 441.876 673.165 C495.241 513.147, 569.679 283.700, 695.486 171.333 C787.955 88.744, 621.165 452.973, 564.780 563.391 C542.036 607.930, 423.289 720.480, 439.263 673.090 C493.309 512.754, 567.948 280.908, 696.917 171.384 C792.551 90.169, 621.141 456.337, 563.358 567.705 C540.595 611.579, 420.712 719.803, 436.650 673.016 C491.379 512.358, 566.226 277.973, 698.347 171.437 C797.173 91.749, 621.103 459.703, 561.913 572.011 C539.126 615.246, 418.131 719.152, 434.038 672.941 C489.451 511.957, 564.521 274.892, 699.778 171.490 C801.814 93.485, 621.049 463.070, 560.440 576.308 C537.627 618.931, 415.545 718.527, 431.425 672.866 C487.527 511.553, 562.846 271.673, 701.208 171.547 C806.464 95.380, 620.974 466.437, 558.936 580.593 C536.092 622.630, 412.953 717.929, 428.813 672.791 C485.609 511.146, 561.206 268.311, 702.638 171.607 C811.117 97.435, 620.878 469.804, 557.402 584.869 C534.522 626.345, 410.355 717.356, 426.200 672.716 C483.696 510.735, 559.613 264.812, 704.069 171.666 C815.763 99.645, 620.755 473.167, 555.831 589.130 C532.909 630.071, 407.751 716.809, 423.588 672.641 C481.791 510.323, 558.077 261.181, 705.499 171.730 C820.392 102.017, 620.604 476.528, 554.222 593.377 C531.253 633.809, 405.139 716.287, 420.975 672.566 C479.894 509.909, 556.604 257.419, 706.929 171.796 C824.997 104.545, 620.422 479.884, 552.574 597.610 C529.551 637.557, 402.520 715.790, 418.363 672.492 C478.005 509.494, 555.208 253.534, 708.359 171.861 C829.568 107.222, 620.203 483.231, 550.878 601.823 C527.796 641.309, 399.892 715.316, 415.750 672.417 C476.129 509.079, 553.895 249.534, 709.788 171.932 C834.096 110.053, 619.947 486.572, 549.137 606.018 C525.989 645.066, 397.257 714.866, 413.138 672.342 C474.263 508.663, 552.672 245.423, 711.218 172.004 C838.574 113.028, 619.650 489.902, 547.347 610.193 C524.126 648.825, 394.614 714.438, 410.525 672.267 C472.410 508.247, 551.550 241.212, 712.648 172.075 C842.991 116.137, 619.304 493.217, 545.499 614.342 C522.200 652.579, 391.963 714.031, 407.913 672.192 C470.572 507.834, 550.535 236.911, 714.077 172.153 C847.339 119.385, 618.910 496.519, 543.595 618.466 C520.212 656.328, 389.302 713.644, 405.300 672.117 C468.749 507.422, 549.630 232.526, 715.506 172.231 C851.613 122.757, 618.464 499.803, 541.632 622.562 C518.158 660.069, 386.634 713.275, 402.688 672.042 C466.942 507.012, 548.845 228.071, 716.936 172.310 C855.803 126.243, 617.956 503.065, 539.601 626.624 C516.030 663.793, 383.957 712.923, 400.075 671.968 C465.154 506.607, 548.184 223.558, 718.365 172.394 C859.904 129.841, 617.387 506.304, 537.500 630.651 C513.828 667.498, 381.272 712.586, 397.463 671.893 C463.385 506.205, 547.647 218.994, 719.794 172.478 C863.910 133.536, 616.752 509.516, 535.328 634.640 C511.551 671.179, 378.580 712.262, 394.850 671.818 C461.637 505.808, 547.239 214.390, 721.223 172.564 C867.816 137.322, 616.048 512.697, 533.080 638.587 C509.193 674.831, 375.879 711.950, 392.238 671.743 C459.910 505.418, 546.963 209.769, 722.651 172.654 C871.617 141.185, 615.263 515.842, 530.746 642.483 C506.748 678.443, 373.171 711.647, 389.625 671.668 C458.208 505.034, 546.818 205.131, 724.080 172.745 C875.310 145.115, 614.397 518.946, 528.327 646.327 C504.216 682.011, 370.456 711.350, 387.013 671.593 C456.532 504.658, 546.803 200.493, 725.508 172.838 C878.892 149.102, 613.446 522.006, 525.818 650.114 C501.593 685.529, 367.735 711.059, 384.400 671.519 C454.882 504.292, 546.918 195.866, 726.936 172.935 C882.362 153.136, 612.405 525.017, 523.216 653.836 C498.878 688.989, 365.008 710.770, 381.788 671.444 C453.260 503.934, 547.159 191.261, 728.365 173.032 C885.719 157.202, 611.269 527.971, 520.516 657.488 C496.066 692.381, 362.276 710.480, 379.175 671.369 C451.669 503.589, 547.525 186.697, 729.792 173.133 C888.960 161.288, 610.029 530.861, 517.709 661.059 C493.153 695.692, 359.540 710.187, 376.563 671.294 C450.110 503.256, 548.009 182.162, 731.220 173.236 C892.090 165.398, 608.701 533.693, 514.813 664.558 C490.152 698.933, 356.800 709.893, 373.950 671.219 C448.578 502.933, 548.608 177.648, 732.648 173.339 C895.113 169.535, 607.296 536.472, 511.839 667.991 C487.074 702.112, 354.056 709.601, 371.338 671.144 C447.068 502.621, 549.319 173.154, 734.075 173.449 C898.027 173.710, 605.826 539.206, 508.797 671.364 C483.928 705.236, 351.309 709.312, 368.725 671.069 C445.577 502.316, 550.138 168.673, 735.503 173.558 C900.836 177.916, 604.296 541.896, 505.693 674.679 C480.719 708.309, 348.559 709.028, 366.113 670.995 C444.102 502.018, 551.065 164.196, 736.930 173.669 C903.540 182.162, 602.720 544.550, 502.539 677.948 C477.459 711.344, 345.805 708.751, 363.500 670.920 C442.639 501.726, 552.099 159.732, 738.356 173.786 C906.139 186.445, 601.097 547.169, 499.337 681.169 C474.148 714.339, 343.048 708.481, 360.888 670.845 C441.187 501.439, 553.238 155.272, 739.783 173.902 C908.633 190.764, 599.434 549.756, 496.092 684.347 C470.790 717.299, 340.288 708.219, 358.275 670.770 C439.744 501.157, 554.482 150.818, 741.210 174.022 C911.022 195.123, 597.739 552.316, 492.811 687.488 C467.393 720.232, 337.524 707.967, 355.663 670.695 C438.307 500.878, 555.830 146.369, 742.636 174.144 C913.305 199.520, 596.014 554.852, 489.497 690.594 C463.958 723.140, 334.756 707.726, 353.050 670.620 C436.875 500.601, 557.280 141.930, 744.062 174.267 C915.484 203.945, 594.258 557.360, 486.149 693.664 C460.484 726.021, 331.985 707.493, 350.438 670.545 C435.449 500.329, 558.834 137.503, 745.488 174.396 C917.555 208.406, 592.477 559.848, 482.773 696.702 C456.978 728.881, 329.210 707.272, 347.825 670.471 C434.027 500.059, 560.490 133.085, 746.913 174.526 C919.522 212.896, 590.675 562.317, 479.372 699.713 C453.439 731.724, 326.430 707.062, 345.213 670.396 C432.608 499.791, 562.247 128.680, 748.339 174.657 C921.382 217.411, 588.852 564.767, 475.947 702.696 C449.872 734.551, 323.646 706.864, 342.600 670.321 C431.190 499.524, 564.104 124.293, 749.764 174.794 C923.136 221.952, 587.011 567.202, 472.501 705.655 C446.275 737.363, 320.857 706.677, 339.988 670.246 C429.774 499.259, 566.060 119.924, 751.189 174.930 C924.785 226.510, 585.153 569.619, 469.033 708.589 C442.651 740.162, 318.064 706.502, 337.375 670.171 C428.360 498.996, 568.114 115.582, 752.613 175.072 C926.329 231.084, 583.278 572.022, 465.546 711.498 C439.000 742.947, 315.266 706.339, 334.763 670.096 C426.947 498.734, 570.263 111.264, 754.037 175.215 C927.768 235.671, 581.388 574.411, 462.041 714.387 C435.324 745.721, 312.463 706.188, 332.150 670.021 C425.533 498.473, 572.506 106.974, 755.461 175.360 C929.104 240.265, 579.486 576.788, 458.519 717.256 C431.624 748.487, 309.655 706.049, 329.538 669.947 C424.120 498.213, 574.841 102.720, 756.885 175.511 C930.337 244.866, 577.572 579.154, 454.983 720.106 C427.901 751.244, 306.841 705.922, 326.925 669.872 C422.706 497.953, 577.267 98.499, 758.308 175.661 C931.469 249.465, 575.647 581.509, 451.431 722.938 C424.155 753.994, 304.021 705.807, 324.313 669.797 C421.292 497.694, 579.780 94.320, 759.731 175.817 C932.502 254.063, 573.712 583.855, 447.867 725.753 C420.387 756.737, 301.196 705.705, 321.700 669.722 C419.877 497.435, 582.378 90.182, 761.154 175.975 C933.437 258.652, 571.767 586.192, 444.289 728.551 C416.598 759.475, 298.365 705.614, 319.088 669.647 C418.461 497.176, 585.057 86.090, 762.577 176.136 C934.277 263.230, 569.814 588.519, 440.700 731.334 C412.788 762.207, 295.527 705.535, 316.475 669.572 C417.044 496.918, 587.817 82.049, 763.998 176.301 C935.023 267.795, 567.852 590.840, 437.098 734.102 C408.958 764.934, 292.684 705.469, 313.863 669.498 C415.625 496.660, 590.652 78.057, 765.420 176.467 C935.680 272.338, 565.883 593.153, 433.486 736.856 C405.109 767.657, 289.834 705.414, 311.250 669.423 C414.206 496.402, 593.560 74.123, 766.841 176.639 C936.246 276.862, 563.907 595.460, 429.864 739.597 C401.240 770.377, 286.978 705.370, 308.638 669.348 C412.784 496.144, 596.538 70.245, 768.262 176.813 C936.729 281.359, 561.923 597.760, 426.232 742.324 C397.352 773.092, 284.115 705.338, 306.025 669.273 C411.361 495.886, 599.581 66.427, 769.683 176.991 C937.128 285.828, 559.935 600.055, 422.591 745.039 C393.446 775.805, 281.246 705.317, 303.413 669.198 C409.937 495.628, 602.687 62.672, 771.103 177.172 C937.448 290.266, 557.940 602.345, 418.941 747.742 C389.522 778.515, 278.370 705.308, 300.800 669.123 C408.510 495.369, 605.852 58.978, 772.522 177.356 C937.693 294.668, 555.940 604.630, 415.283 750.435 C385.581 781.223, 275.487 705.309, 298.188 669.048 C407.082 495.110, 609.073 55.354, 773.941 177.546 C937.863 299.036, 553.936 606.912, 411.617 753.116 C381.623 783.930, 272.597 705.321, 295.575 668.974 C405.652 494.851, 612.344 51.793, 775.360 177.736 C937.965 303.362, 551.927 609.189, 407.944 755.788 C377.648 786.634, 269.701 705.344, 292.963 668.899 C404.220 494.592, 615.665 48.305, 776.777 177.934 C937.999 307.651, 549.914 611.464, 404.264 758.450 C373.657 789.338, 266.797 705.376, 290.350 668.824 C402.786 494.332, 619.029 44.883, 778.195 178.133 C937.971 311.894, 547.897 613.735, 400.577 761.103 C369.650 792.040, 263.887 705.419, 287.738 668.749 C401.349 494.072, 622.434 41.535, 779.612 178.338 C937.883 316.094, 545.877 616.005, 396.884 763.747 C365.628 794.741, 260.970 705.472, 285.125 668.674 C399.911 493.811, 625.877 38.257, 781.028 178.547 C937.740 320.247, 543.853 618.272, 393.185 766.383 C361.590 797.442, 258.046 705.535, 282.513 668.599 C398.471 493.550, 629.353 35.052, 782.443 178.760 C937.543 324.354, 541.827 620.538, 389.480 769.011 C357.537 800.142, 255.114 705.607, 279.900 668.524 C397.028 493.288, 632.859 31.920, 783.858 178.978 C937.297 328.412, 539.797 622.803, 385.770 771.631 C353.470 802.841, 252.176 705.689, 277.288 668.450 C395.583 493.026, 636.393 28.860, 785.272 179.200 C937.005 332.421, 537.766 625.067, 382.055 774.245 C349.389 805.540, 249.231 705.779, 274.675 668.375 C394.136 492.764, 639.949 25.874, 786.686 179.427 C936.671 336.380, 535.732 627.331, 378.336 776.851 C345.294 808.239, 246.278 705.878, 272.063 668.300 C392.687 492.501, 643.526 22.960, 788.098 179.659 C936.297 340.289, 533.696 629.594, 374.612 779.451 C341.186 810.938, 243.319 705.986, 269.450 668.225 C391.236 492.238, 647.121 20.120, 789.510 179.898 C935.885 344.150, 531.658 631.859, 370.883 782.046 C337.064 813.638, 240.353 706.102, 266.838 668.150 C389.782 491.973, 650.730 17.351, 790.920 180.140 C935.441 347.959, 529.618 634.123, 367.151 784.634 C332.930 816.337, 237.380 706.226, 264.225 668.075 C388.326 491.710, 654.351 14.656, 792.330 180.390 C934.966 351.718, 527.578 636.389, 363.415 787.217 C328.783 819.037, 234.400 706.359, 261.613 668.000 C386.867 491.445, 657.981 12.031, 793.738 180.644 C934.464 355.428, 525.536 638.656, 359.676 789.796 C324.623 821.737, 231.413 706.499, 259.000 667.926 C385.407 491.180, 661.616 9.478, 795.146 180.906 C933.937 359.088, 523.493 640.926, 355.934 792.370 C320.453 824.439, 228.420 706.646, 256.388 667.851 C383.943 490.915, 665.255 6.996, 796.552 181.174 C933.386 362.700, 521.449 643.198, 352.189 794.941 C316.270 827.142, 225.419 706.801, 253.775 667.776 C382.477 490.649, 668.896 4.583, 797.957 181.449 C932.817 366.263, 519.406 645.473, 348.442 797.508 C312.077 829.846, 222.412 706.964, 251.163 667.701 C381.009 490.383, 672.536 2.241, 799.360 181.733 C932.229 369.780, 517.362 647.752, 344.692 800.072 C307.873 832.552, 219.398 707.133, 248.550 667.626 C379.538 490.116, 676.172 -0.036, 800.762 182.021 C931.628 373.248, 515.318 650.034, 340.942 802.633 C303.658 835.260, 216.377 707.309, 245.938 667.551 C378.064 489.851, 679.803 -2.240, 802.161 182.323 C931.010 376.675, 513.274 652.323, 337.189 805.192 C299.434 837.970, 213.349 707.492, 243.325 667.477 C376.587 489.584, 683.426 -4.381, 803.560 182.629 C930.384 380.055, 511.232 654.616, 333.436 807.750 C295.199 840.682, 210.314 707.682, 240.713 667.402 C375.107 489.318, 687.040 -6.452, 804.955 182.947 C929.748 383.393, 509.190 656.916, 329.682 810.307 C290.956 843.398, 207.273 707.878, 238.100 667.327 C373.625 489.051, 690.643 -8.456, 806.348 183.276 C929.104 386.691, 507.150 659.224, 325.928 812.864 C286.703 846.118, 204.225 708.081, 235.488 667.252 C372.139 488.784, 694.233 -10.400, 807.740 183.612 C928.456 389.946, 505.111 661.538, 322.174 815.421 C282.443 848.842, 201.170 708.291, 232.875 667.177 C370.649 488.519, 697.808 -12.269, 809.127 183.966 C927.801 393.168, 503.075 663.863, 318.422 817.980 C278.174 851.572, 198.108 708.507, 230.263 667.102 C369.156 488.254, 701.366 -14.076, 810.511 184.331 C927.144 396.352, 501.041 666.198, 314.670 820.541 C273.898 854.307, 195.039 708.729, 227.650 667.027 C367.659 487.988, 704.906 -15.820, 811.892 184.708 C926.488 399.498, 499.011 668.544, 310.922 823.106 C269.615 857.049, 191.963 708.958, 225.038 666.953 C366.157 487.725, 708.424 -17.490, 813.267 185.106 C925.829 402.617, 496.985 670.906, 307.177 825.676 C265.326 859.800, 188.880 709.194, 222.425 666.878 C364.650 487.463, 711.920 -19.093, 814.637 185.521 C925.170 405.705, 494.964 673.282, 303.435 828.252 C261.031 862.561, 185.790 709.437, 219.813 666.803 C363.138 487.201, 715.391 -20.628, 816.001 185.955 C924.514 408.765, 492.950 675.678, 299.700 830.836 C256.732 865.335, 182.691 709.688, 217.200 666.728 C361.620 486.942, 718.833 -22.091, 817.357 186.412 C923.861 411.800, 490.943 678.094, 295.973 833.431 C252.430 868.123, 179.585 709.946, 214.588 666.653 C360.095 486.684, 722.245 -23.477, 818.705 186.895 C923.210 414.815, 488.945 680.536, 292.255 836.040 C248.126 870.929, 176.470 710.213, 211.975 666.578 C358.561 486.431, 725.620 -24.777, 820.039 187.415 C922.560 417.815, 486.959 683.011, 288.550 838.667 C243.821 873.758, 173.346 710.490, 209.363 666.503 C357.016 486.181, 728.953 -25.988, 821.357 187.973 C921.912 420.805, 484.987 685.525, 284.861 841.318 C239.519 876.616, 170.212 710.777, 206.750 666.429 C355.458 485.937, 732.235 -27.097, 822.654 188.577 C921.264 423.788, 483.035 688.087, 281.195 844.000 C235.222 879.512, 167.066 711.078, 204.138 666.354 C353.881 485.702, 735.450 -28.079, 823.918 189.249 C920.610 426.780, 481.110 690.718, 277.562 846.726 C230.938 882.461, 163.906 711.397, 201.525 666.279 C352.277 485.478, 738.574 -28.907, 825.133 190.005 C919.945 429.788, 479.223 693.439, 273.978 849.515 C226.675 885.485, 160.730 711.739, 198.913 666.204 C350.634 485.268, 741.560 -29.542, 826.273 190.869 C919.265 432.823, 477.407 696.302, 270.480 852.411 C222.459 888.639, 157.531 712.121, 196.300 666.129 C348.910 485.086, 744.256 -29.845, 827.240 191.920 C918.539 435.905, 475.738 699.432, 267.170 855.519 C218.360 892.047, 154.297 712.585, 193.688 666.054 C347.019 484.928, 745.559 -29.383, 827.847 193.205" fill="none" stroke="black" stroke-width="0.1" />
</svg>