<?xml version="1.0" standalone="no"?>
<!DOCTYPE svg PUBLIC "-//W3C//DTD SVG 1.1//EN" 
"http://www.w3.org/Graphics/SVG/1.1/DTD/svg11.dtd">
<svg width="1410" height="1000" version="1.1" xmlns="http://www.w3.org/2000/svg">
<path d="M760.3672 162.2173 C710.9824 237.5082, 1126.8972 86.9596, 1060.141 147.3848 C992.2714 208.8178, 806.066 90.1615, 755.5959 166.5361 C705.5557 242.2602, 1125.8131 90.9694, 1057.7451 151.0104 C988.5378 212.0564, 802.2759 94.2205, 750.7697 170.7932 C699.7043 246.7105, 1124.6526 94.9167, 1055.3196 154.6164 C984.8232 215.3178, 798.3044 98.1325, 745.893 174.9923 C693.9312 251.1929, 1123.4287 98.8082, 1052.8712 158.2068 C981.128 218.6036, 794.1652 101.9029, 740.9698 179.1369 C688.2305 255.7087, 1122.1543 102.6516, 1050.4061 161.7859 C977.4516 221.9144, 790.3102 105.8441, 736.0035 183.23 C682.1647 259.9495, 1121.036 106.7167, 1047.9098 165.3431 C973.5512 224.9576, 785.9255 109.3818, 730.9824 187.2556 C676.5107 264.4611, 1119.6478 110.4495, 1045.4044 168.8941 C969.9114 228.3224, 782.0199 113.2339, 725.9257 191.2363 C670.3148 268.5664, 1118.199 114.1328, 1042.8672 172.4223 C966.2697 231.6911, 777.6089 116.7094, 720.8359 195.1746 C664.5503 272.9661, 1116.7184 117.7811, 1040.3197 175.9431 C962.6403 235.0802, 773.4592 120.3524, 715.7153 199.0729 C658.4675 277.117, 1115.3821 121.6429, 1037.7493 179.4473 C958.8159 238.2201, 769.1207 123.8304, 710.5534 202.9163 C652.4883 281.3242, 1113.8346 125.2326, 1035.163 182.9397 C955.1774 241.6106, 764.741 127.2599, 705.3642 206.7227 C646.4953 285.5058, 1112.2289 128.7543, 1032.5616 186.421 C951.5688 245.0473, 760.4727 130.7581, 700.151 210.4963 C640.345 289.5527, 1110.6285 132.3018, 1029.9398 189.8867 C947.9133 248.4264, 755.9095 134.0186, 694.9126 214.2347 C634.4347 293.7682, 1109.1212 135.9879, 1027.3093 193.3461 C944.1445 251.6528, 751.6839 137.5116, 689.6431 217.9292 C628.1303 297.6623, 1107.4039 139.3956, 1024.6548 196.7869 C940.5437 255.1228, 746.9818 140.63, 684.3549 221.5969 C622.2578 301.8788, 1105.6743 142.786, 1021.9959 200.2244 C936.947 258.6036, 742.7436 144.0944, 679.049 225.239 C615.8933 305.6969, 1104.0604 146.3724, 1019.3126 203.6429 C933.1814 261.8482, 738.0095 147.1547, 673.7167 228.8423 C609.9646 309.843, 1102.3042 149.7474, 1016.6248 207.0578 C929.554 265.2991, 733.6263 150.4773, 668.3675 232.4204 C603.6567 313.6754, 1100.4824 153.0434, 1013.9175 210.4573 C925.9543 268.7987, 728.9314 153.5468, 663.0043 235.9776 C597.6278 317.7198, 1098.7542 156.4865, 1011.2031 213.8512 C922.2443 272.1382, 724.4244 156.7497, 657.6212 239.5046 C591.3745 321.5702, 1096.9515 159.8306, 1008.4734 217.2327 C918.5798 275.5532, 719.7512 159.8088, 652.2223 243.0073 C585.2532 325.5161, 1095.0657 163.0524, 1005.7347 220.6069 C914.9831 279.0768, 715.1445 162.9148, 646.8123 246.4928 C579.0444 329.3807, 1093.25 166.3959, 1002.9839 223.9714 C911.2897 282.4579, 710.4849 165.9661, 641.3865 249.9537 C572.8561 333.2507, 1091.3917 169.6815, 1000.2229 227.3274 C907.6193 285.8804, 705.7878 168.9767, 635.947 253.3931 C566.6776 337.1187, 1089.4458 172.8357, 997.4526 230.6758 C904.0207 289.4205, 701.1353 172.019, 630.4988 256.8186 C560.438 340.927, 1087.5695 176.1128, 994.6712 234.0149 C900.3278 292.8178, 696.3674 174.9558, 625.0372 260.2227 C554.2852 344.7985, 1085.6443 179.3164, 991.8828 237.3482 C896.6711 296.2775, 691.7087 177.9756, 619.5649 263.6097 C548.0036 348.5523, 1083.6454 182.4122, 989.0828 240.6718 C893.0668 299.8267, 686.8852 180.8541, 614.0857 266.9854 C541.8706 352.4253, 1081.7301 185.649, 986.2774 243.9909 C889.3657 303.2244, 682.219 183.8551, 608.5945 270.3417 C535.5587 356.1366, 1079.7306 188.7591, 983.4604 247.3 C885.7278 306.7302, 677.3472 186.6777, 603.0957 273.6854 C529.4344 360.0016, 1077.6921 191.8076, 980.6393 250.6057 C882.1216 310.2913, 672.6679 189.6609, 597.5914 277.0201 C523.1094 363.6877, 1075.7357 195.0054, 977.8068 253.9016 C878.408 313.6819, 667.7567 192.4376, 592.0764 280.337 C516.9914 367.5449, 1073.6729 198.026, 974.9713 257.1949 C874.7978 317.2463, 663.0564 195.3924, 586.5566 283.6459 C510.6562 371.2079, 1071.6088 201.0574, 972.1248 260.4788 C871.1665 320.7808, 658.1208 198.1421, 581.0315 286.946 C504.5424 375.0587, 1069.5905 204.1669, 969.2759 263.7606 C867.4835 324.2323, 653.3931 201.0648, 575.4985 290.233 C498.2079 378.7098, 1067.4795 207.1307, 966.4169 267.0334 C863.8751 327.813, 648.4366 203.7884, 569.9623 293.5145 C492.0926 382.5493, 1065.405 210.1579, 963.5558 270.3047 C860.225 331.3264, 643.6868 206.6881, 564.4208 296.787 C485.7629 386.1948, 1063.3082 213.1577, 960.6853 273.5675 C856.5789 334.8506, 638.7141 209.3904, 558.8748 300.0517 C479.644 390.0221, 1061.1724 216.0912, 957.8132 276.829 C852.9695 338.4391, 633.9394 212.2655, 553.3262 303.3123 C473.3247 393.6682, 1059.0697 219.0922, 954.9323 280.0827 C849.3084 341.9438, 628.9579 214.9557, 547.7729 306.5647 C467.2 397.4831, 1056.9181 222.0094, 952.05 283.3351 C845.6946 345.5306, 624.149 217.7973, 542.2175 309.8134 C460.9008 401.139, 1054.759 224.9235, 949.16 286.5808 C842.0729 349.107, 619.1621 220.4811, 536.6599 313.0584 C454.7727 404.9455, 1052.6111 227.8573, 946.2687 289.8252 C838.4371 352.6609, 614.3267 223.2976, 531.0994 316.2986 C448.4897 408.6095, 1050.4203 230.7256, 943.3706 293.0636 C834.8315 356.2689, 609.3362 225.9769, 525.538 319.5372 C442.3578 412.4075, 1048.2419 233.6165, 940.4712 296.3008 C831.2105 359.8517, 604.4727 228.769, 519.975 322.7729 C436.0972 416.0871, 1046.0397 236.4737, 937.566 299.5329 C827.6022 363.4583, 599.4828 231.4489, 514.4111 326.0073 C429.9597 419.8762, 1043.8292 239.318, 934.6594 302.7636 C823.9996 367.0751, 594.5894 234.2159, 508.847 329.241 C423.7265 423.5768, 1041.6096 242.1532, 931.748 305.9901 C820.3966 370.6927, 589.6015 236.8993, 503.2825 332.4744 C417.5859 427.3603, 1039.3777 244.9688, 928.8352 309.2153 C816.8033 374.3274, 584.6833 239.6466, 497.7184 335.7082 C411.3772 431.0808, 1037.1359 247.773, 925.9186 312.437 C813.2124 377.9667, 579.6974 242.335, 492.1548 338.943 C405.2363 434.8622, 1034.8765 250.5493, 923.0004 315.6573 C809.6364 381.6313, 574.7544 245.0643, 486.5925 342.18 C399.0557 438.6071, 1032.6244 253.3427, 920.0794 318.875 C806.047 385.2734, 569.7718 247.7598, 481.031 345.4184 C392.9158 442.3885, 1030.3336 256.0723, 917.1568 322.0913 C802.4941 388.9771, 564.809 250.4769, 475.472 348.6611 C386.7613 446.1569, 1028.0559 258.8289, 914.2321 325.3057 C798.9235 392.6498, 559.8253 253.1779, 469.9147 351.9067 C380.6309 449.9474, 1025.7678 261.5704, 911.306 328.5188 C795.3606 396.3349, 554.8466 255.8863, 464.3595 355.1559 C374.4996 453.7375, 1023.4392 264.2462, 908.3784 331.7306 C791.8361 400.0838, 549.8629 258.5953, 458.8083 358.4118 C368.3812 457.5403, 1021.1496 266.9925, 905.4495 334.9412 C788.2691 403.7593, 544.8688 261.2976, 453.2589 361.6709 C362.2766 461.3564, 1018.7948 269.6301, 902.5199 338.1511 C784.7672 407.5429, 539.884 264.0142, 447.7143 364.9383 C356.1726 465.1747, 1016.4637 272.3122, 899.5893 341.36 C781.2391 411.2798, 534.8828 266.7203, 442.1735 368.2117 C350.0922 469.0156, 1014.1371 275.0051, 896.6583 344.5687 C777.7053 415.0052, 529.8917 269.4396, 436.6358 371.4908 C344.0081 472.8546, 1011.7284 277.5622, 893.7267 347.7768 C774.2546 418.8663, 524.8887 272.1563, 431.1052 374.7816 C337.9499 476.7198, 1009.4 280.2589, 890.795 350.9848 C770.7214 422.5866, 519.8923 274.8825, 425.5778 378.0778 C331.8913 480.5858, 1006.9902 282.8217, 887.8632 354.1927 C767.2711 426.4417, 514.8913 277.6122, 420.0571 381.3853 C325.8509 484.4712, 1004.5915 285.4077, 884.9315 357.4008 C763.8094 430.2735, 509.8807 280.34, 414.5426 384.7031 C319.8322 488.379, 1002.2382 288.0721, 882.0004 360.6093 C760.3026 434.0274, 504.8863 283.0868, 409.0321 388.0275 C313.8054 492.281, 999.7284 290.4808, 879.0695 363.8181 C756.9561 438.0394, 499.8636 285.8199, 403.5326 391.3701 C307.8286 496.2332, 997.3569 293.1228, 876.14 367.028 C753.4708 441.8186, 494.8873 288.5999, 398.0377 394.7203 C301.8151 500.1536, 994.9044 295.6355, 873.2104 370.238 C750.0681 445.7282, 489.8418 291.3257, 392.551 398.0838 C295.8864 504.1549, 992.4127 298.0876, 870.2831 373.4501 C746.7102 449.7032, 484.8811 294.1386, 387.0742 401.4634 C289.8933 508.1011, 990.0181 300.7034, 867.356 376.6621 C743.2531 453.513, 479.8275 296.8726, 381.6027 404.8516 C284.0029 512.1436, 987.4399 303.0249, 864.4316 379.8769 C739.9891 457.6249, 474.8747 299.7118, 376.1447 408.2616 C278.0397 516.1243, 984.9825 305.5491, 861.5075 383.0918 C736.6022 461.5328, 469.8255 302.4715, 370.6947 411.6842 C272.1877 520.2097, 982.5141 308.0574, 858.5867 386.3097 C733.233 465.4626, 464.8699 305.324, 365.2531 415.1203 C266.2599 524.2292, 979.8792 310.3093, 855.6665 389.5283 C730.0351 469.6521, 459.8312 308.1171, 359.827 418.5808 C260.4451 528.3572, 977.4275 312.8555, 852.7499 392.7499 C726.657 473.5512, 454.8738 310.9901, 354.4085 422.0531 C254.5651 532.4285, 974.8244 315.1707, 849.8345 395.9728 C723.436 477.6855, 449.8498 313.8168, 349.0039 425.547 C248.7786 536.5896, 972.2153 317.484, 846.9227 399.1989 C720.2282 481.8281, 444.8859 316.7106, 343.6134 429.0626 C242.9609 540.7269, 969.7275 319.9907, 844.0131 402.4269 C716.9008 485.7797, 439.8859 319.58, 338.2316 432.5917 C237.1961 544.9154, 966.9692 322.0911, 841.1068 405.6579 C713.856 490.1465, 434.9112 322.4909, 332.8702 436.1514 C231.4469 549.1238, 964.3902 324.474, 838.2035 408.8918 C710.6343 494.2344, 429.9476 325.4228, 327.5212 439.7299 C225.7116 553.3486, 961.8273 326.8868, 835.3033 412.1283 C707.4022 498.2976, 424.9489 328.3337, 322.1838 443.3257 C220.034 557.6293, 958.9581 328.8538, 832.4075 415.3687 C704.4912 502.8172, 420.0337 331.3408, 316.871 446.9578 C214.323 561.8859, 956.3776 331.2599, 829.5142 418.6113 C701.2906 506.8993, 415.015 334.2662, 311.5705 450.6075 C208.7386 566.2596, 953.6808 333.5016, 826.6265 421.859 C698.2197 511.157, 410.1469 337.3396, 306.2868 454.2819 C203.0389 570.5348, 950.7841 335.4711, 823.7407 425.1083 C695.3564 515.6917, 405.1039 340.28, 301.0283 457.9921 C197.5624 575.0145, 948.1442 337.8174, 820.8621 428.3641 C692.2455 519.8602, 400.2967 343.4393, 295.7843 461.7226 C191.8817 579.3158, 945.3046 339.8954, 817.9846 431.6208 C689.3402 524.3002, 395.2218 346.3823, 290.5627 465.4844 C186.5101 583.8962, 942.3633 341.8455, 815.1159 434.8853 C686.5562 528.8846, 390.4921 349.6487, 285.3676 469.2829 C180.8502 588.2263, 939.6398 344.1147, 812.2473 438.1498 C683.5501 533.1481, 385.3796 352.5945, 280.1899 473.1049 C175.6033 592.9242, 936.6746 346.0637, 809.3895 441.4238 C680.8119 537.7523, 380.6869 355.9265, 275.0393 476.9636 C169.9954 597.3091, 933.6355 347.9409, 806.5317 444.6979 C678.1487 542.4288, 375.6204 358.9573, 269.9186 480.8617 C164.8167 602.0742, 930.8201 350.1269, 803.6848 447.9813 C675.2791 546.8135, 370.9318 362.3296, 264.8188 484.787 C159.3057 606.5519, 927.7411 351.9906, 800.8388 451.2656 C672.6798 551.5237, 365.9192 365.4458, 259.7499 488.7523 C154.1772 611.366, 924.5476 353.7311, 798.0032 454.5589 C670.2177 556.3755, 361.2362 368.8701, 254.7167 492.7627 C148.7935 615.9617, 921.6025 355.8123, 795.17 457.8542 C667.507 560.8892, 356.2886 372.0857, 249.7087 496.8045 C143.7218 620.8294, 918.4694 357.6763, 792.3467 461.158 C665.0075 565.6378, 351.5991 375.5431, 244.7334 500.8867 C138.46 625.5356, 915.0077 359.1748, 789.5272 464.4651 C662.8497 570.7596, 346.7334 378.8818, 239.8035 505.0234 C133.4629 630.4698, 911.9097 361.1407, 786.717 467.7801 C660.3404 575.4279, 342.048 382.3921, 234.9044 509.1965 C128.3486 635.3051, 908.7678 363.0783, 783.9122 471.0995 C657.886 580.1337, 337.2576 385.8341, 230.0375 513.4072 C123.4026 640.2838, 904.9507 364.2735, 781.1161 474.4264 C656.1357 585.5986, 332.5822 389.4088, 225.2289 517.6844 C118.4591 645.2629, 901.6268 366.0756, 778.327 477.7591 C653.8972 590.4662, 327.8986 392.9991, 220.4592 522.0048 C113.6012 650.3125, 898.2715 367.8734, 775.5459 481.0985 C651.7063 595.3514, 323.214 396.6112, 215.7292 526.3687 C108.8232 655.4274, 894.5585 369.3214, 772.7736 484.4452 C649.8965 600.6015, 318.6402 400.3444, 211.0524 530.7896 C104.0417 660.5352, 890.6199 370.5882, 770.0085 487.7978 C648.3298 606.0446, 313.9771 404.0376, 206.4372 535.2747 C99.4712 665.8114, 886.9976 372.2348, 767.254 491.1592 C646.4626 611.1244, 309.524 407.9267, 201.8711 539.8095 C94.7908 670.991, 883.2852 373.8351, 764.5059 494.5259 C644.6991 616.2607, 304.8687 411.6775, 197.357 544.3963 C90.4141 676.413, 879.037 374.9648, 761.7704 497.9027 C643.5048 621.8881, 300.5531 415.7369, 192.915 549.0531 C85.8448 681.6659, 874.7657 376.1527, 759.0404 501.284 C642.3439 627.4654, 295.9354 419.5868, 188.5455 553.7778 C81.7191 687.2645, 870.6927 377.592, 756.325 504.6771 C641.0105 632.8142, 291.7668 423.822, 184.2407 558.5613 C77.2775 692.5951, 866.4911 378.9808, 753.6143 508.0738 C639.8165 638.2203, 287.179 427.7529, 180.0046 563.4059 C73.3883 698.3525, 861.9188 380.1181, 750.9202 511.4838 C639.031 643.9034, 283.1684 432.1705, 175.851 568.3217 C69.0915 703.765, 856.8427 380.9351, 748.23 514.8969 C638.7636 649.9115, 278.65 436.2275, 171.798 573.3206 C65.4984 709.7049, 852.1647 382.1798, 745.5584 518.3245 C638.1288 655.5208, 274.8271 440.8531, 167.8306 578.3873 C61.3866 715.2111, 847.3061 383.3771, 742.89 521.7546 C637.6823 661.181, 270.3725 445.0195, 163.9544 583.5242 C58.0828 721.3176, 842.2777 384.543, 740.2422 525.2007 C637.4485 666.9034, 266.7337 449.839, 160.1757 588.7332 C54.1648 726.9142, 836.8098 385.5086, 737.5969 528.6487 C637.6638 672.8279, 262.3767 454.1426, 156.5095 594.0226 C51.1828 733.1885, 830.7504 386.2104, 734.9743 532.1139 C638.5224 679.0469, 258.968 459.1941, 152.978 599.4025 C47.5295 738.8945, 825.0481 387.3066, 732.3536 535.5806 C639.0215 684.8747, 254.7491 463.6631, 149.5668 604.859 C44.9187 745.3378, 819.1251 388.4041, 729.7574 539.0657 C639.7917 690.7357, 251.5628 468.9228, 146.2839 610.3936 C41.5405 751.1447, 812.9463 389.5054, 727.163 542.5521 C640.8224 696.5931, 247.4984 473.5565, 143.1376 616.0069 C39.3046 757.7369, 806.5265 390.6363, 724.5947 546.0578 C642.1476 702.4568, 244.5582 479.0309, 140.1367 621.6995 C36.2445 763.6448, 799.8314 391.8031, 722.028 549.5646 C643.7522 708.2838, 240.6802 483.8418, 137.2903 627.4712 C34.4216 770.3765, 792.2422 392.7457, 719.489 553.0917 C646.3136 714.3683, 238.0268 489.547, 134.6311 633.3318 C31.7582 776.3898, 784.826 394.0116, 716.9518 556.62 C648.701 720.1308, 234.4079 494.5717, 132.1523 639.2704 C30.4111 783.2412, 777.3231 395.4723, 714.4438 560.1691 C651.2316 725.7376, 232.0444 500.484, 129.8571 645.2821 C28.1858 789.3491, 769.5456 397.0651, 711.938 563.7197 C654.041 731.2117, 228.7076 505.7126, 127.7549 651.3636 C27.3098 796.2823, 761.5346 398.8303, 709.4624 567.2914 C657.1432 736.5518, 226.647 511.8152, 125.8547 657.5111 C25.5712 802.4716, 753.2792 400.7842, 706.9899 570.8654 C660.4946 741.704, 223.6303 517.247, 124.165 663.7197 C25.1998 809.4558, 744.8321 402.9662, 704.5485 574.4606 C664.0978 746.6667, 221.8914 523.5223, 122.6935 669.9838 C23.9968 815.7053, 736.1937 405.3909, 702.1115 578.0588 C667.8986 751.3892, 219.2449 529.1589, 121.4474 676.2969 C24.1426 822.6936, 727.4291 408.0935, 699.7059 581.6781 C671.8852 755.8729, 217.8239 535.5712, 120.4325 682.6519 C23.5342 828.9878, 718.0536 411.0229, 697.3066 585.3015 C676.4941 760.13, 215.6085 541.4133, 119.6717 689.0423 C24.2199 835.9252, 708.7743 414.3196, 694.9385 588.9455 C681.0641 764.0599, 214.5314 547.9362, 119.1635 695.4575 C24.2801 842.2291, 699.7955 417.9734, 692.5792 592.595 C685.3452 767.6454, 212.7698 553.9578, 118.8978 701.8868 C25.5024 849.0647, 690.8733 421.9554, 690.2507 596.2644 C689.6269 770.9414, 211.9939 560.5331, 118.8748 708.3211 C26.231 855.3546, 682.0398 426.2548, 687.934 599.9412 C693.8387 773.9346, 210.7184 566.72, 119.093 714.7515 C27.9357 862.0269, 673.3633 430.8683, 685.6469 603.6364 C697.9479 776.6506, 210.2087 573.2976, 119.5493 721.1696 C29.3554 868.2823, 664.8774 435.7753, 683.3754 607.3414 C701.8935 779.0941, 209.4278 579.6235, 120.2391 727.567 C31.5092 874.7493, 656.6368 440.9584, 681.1317 611.0632 C705.645 781.2966, 209.1487 586.1606, 121.1563 733.9363 C33.6186 880.9482, 648.2322 446.4691, 678.9083 614.7971 C709.5968 783.1931, 208.8917 592.6105, 122.3101 740.2676 C36.1776 887.1588, 639.6678 452.3422, 676.7101 618.546 C713.7534 784.7544, 208.829 599.0626, 123.71 746.5489 C39.0342 893.2671, 632.1942 458.2878, 674.5378 622.3098 C716.8693 786.2849, 209.124 605.618, 125.3184 752.7792 C41.9516 899.1697, 624.4186 464.5956, 672.3873 626.0862 C720.3254 787.4742, 209.1981 611.9356, 127.1505 758.947 C45.5337 905.1864, 616.5665 471.2516, 670.2694 629.8809 C723.9183 788.3507, 210.0851 618.5808, 129.2137 765.0413 C48.7702 910.7268, 608.6935 478.2565, 668.1687 633.6854 C727.5608 788.8973, 210.2948 624.7236, 131.5131 771.0507 C53.149 916.6024, 600.8771 485.62, 666.1086 637.5118 C731.2224 789.1295, 211.8319 631.436, 134.0522 776.963 C56.6889 921.7109, 593.1497 493.3284, 664.0601 641.3445 C734.8127 789.031, 212.1515 637.3555, 136.8324 782.7661 C61.9162 927.3987, 585.6039 501.3796, 662.0613 645.2034 C738.3149 788.6441, 214.2669 644.0446, 139.853 788.4483 C65.8421 932.0701, 578.2683 509.7351, 660.0706 649.0664 C741.6185 787.9644, 214.8884 649.808, 143.1113 793.998 C71.7226 937.4077, 570.9997 518.531, 658.134 652.9568 C744.9559 786.9008, 217.2838 656.2743, 146.6118 799.3983 C76.3266 941.7389, 564.2134 527.48, 656.2099 656.8535 C747.8336 785.7028, 218.6286 662.046, 150.3411 804.6429 C82.4283 946.4576, 557.9258 536.5586, 654.3329 660.773 C750.3051 784.4271, 221.044 668.148, 154.2867 809.7265 C87.8989 950.5212, 552.0334 545.7874, 652.4795 664.7037 C752.4262 783.0288, 223.1116 673.9027, 158.439 814.6423 C94.1263 954.5988, 546.5755 555.1213, 650.6649 668.6525 C754.1891 781.5673, 225.4735 679.6088, 162.7876 819.3854 C100.4526 958.3794, 541.5646 564.5114, 648.8867 672.6177 C755.5771 780.0878, 228.2825 685.3287, 167.3209 823.9518 C106.7037 961.7921, 537.0034 573.9073, 647.1372 676.5958 C756.5734 778.6339, 230.5071 690.6151, 172.0271 828.3398 C113.8782 965.2848, 532.9086 583.2708, 645.4387 680.5959 C757.2061 777.2614, 234.0712 696.2885, 176.8938 832.549 C120.0444 968.0281, 529.2436 592.5538, 643.7572 684.6031 C757.4446 775.9883, 236.0854 701.1514, 181.9089 836.5803 C128.0425 971.234, 526.0331 601.7376, 642.1431 688.6381 C757.3654 774.8743, 240.0013 706.6072, 187.0605 840.4359 C134.4268 973.488, 523.2153 610.7825, 640.5445 692.6791 C756.9271 773.915, 242.5276 711.3594, 192.3369 844.1188 C142.4374 976.1079, 520.8087 619.6722, 639.0077 696.7441 C756.2039 773.1622, 246.2452 716.4061, 197.7271 847.6335 C149.4933 978.0921, 518.7604 628.386, 637.5007 700.8202 C755.1849 772.6101, 249.5323 721.1441, 203.2208 850.9848 C157.1819 980.0612, 517.0584 636.917, 636.0407 704.9134 C753.9167 772.2775, 252.8668 725.7586, 208.8082 854.1779 C165.0099 981.8384, 515.5577 645.4851, 634.6305 709.0238 C752.5461 771.9451, 256.9293 730.4727, 214.486 857.2076 C172.2959 983.1862, 514.3359 653.8998, 633.2504 713.1447 C750.9595 771.7889, 259.8311 734.6677, 220.2462 860.0775 C180.8967 984.7411, 513.5501 661.8569, 631.9423 717.2889 C749.0878 772.1371, 264.3687 739.2549, 226.0742 862.8062 C188.0103 985.613, 512.9937 669.6131, 630.6558 721.4398 C747.0327 772.7003, 267.3931 743.2693, 231.9633 865.4001 C196.7459 986.7987, 512.6855 677.1873, 629.4449 725.6136 C744.8833 773.492, 271.7389 747.5585, 237.9075 867.8655 C204.2808 987.4451, 512.5752 684.5745, 628.2686 729.7969 C742.6074 774.4899, 275.5814 751.6031, 243.9011 870.2083 C212.4128 988.0952, 512.6606 691.7855, 627.1471 733.9955 C740.2478 775.6946, 279.3613 755.5374, 249.9394 872.4346 C220.6955 988.6243, 512.7701 699.2908, 626.0864 738.2097 C737.9814 776.6403, 284.0374 759.5782, 256.026 874.525 C228.1856 988.7698, 513.1682 706.2693, 625.0575 742.4319 C735.4971 778.126, 287.2351 763.183, 262.1495 876.5042 C237.2153 989.1417, 513.783 712.9842, 624.1182 746.675 C732.9788 779.9155, 292.1663 767.0903, 268.3042 878.3835 C244.5874 988.9986, 514.5147 719.553, 623.2072 750.924 C730.4018 781.8625, 295.9085 770.6737, 274.4872 880.168 C253.1953 989.0011, 515.3899 725.9891, 622.3728 755.189 C727.8359 783.9741, 300.3578 774.3245, 280.6958 881.8626 C261.1525 988.7516, 516.2595 732.7724, 621.5912 759.4636 C725.3762 785.7629, 304.9829 777.9104, 286.9342 883.4434 C268.9945 988.3391, 517.3529 739.0186, 620.8586 763.7473 C722.7975 788.1016, 308.7899 781.298, 293.1935 884.9388 C277.6899 987.9637, 518.592 745.0692, 620.212 768.0445 C720.2473 790.6615, 313.9685 784.8277, 299.4704 886.358 C285.0589 987.2813, 519.9071 751.0156, 619.5977 772.3466 C717.6866 793.3348, 317.7665 788.116, 305.7635 887.7045 C293.8306 986.711, 521.2723 757.1984, 619.0776 776.6611 C715.2608 795.8011, 322.7301 791.472, 312.0754 888.9606 C301.4828 985.8813, 522.7584 763.1156, 618.6055 780.9808 C712.8131 798.5405, 327.4326 794.7361, 318.4019 890.1398 C309.4232 984.9941, 524.3662 768.756, 618.196 785.3074 C710.3719 801.5671, 331.7442 797.9211, 324.7397 891.2578 C317.7745 984.0702, 526.0669 774.3203, 617.8708 789.6407 C708.0072 804.683, 337.1749 801.1371, 331.0874 892.3171 C325.0341 982.9858, 527.7605 780.2042, 617.5813 793.9768 C705.7163 807.4909, 341.1667 804.205, 337.4487 893.2925 C333.7506 981.9022, 529.6215 785.6591, 617.4001 798.3188 C703.4796 810.7335, 346.5558 807.2841, 343.8183 894.2111 C341.0952 980.6772, 531.5466 790.9803, 617.2633 802.6621 C701.2689 814.1107, 351.438 810.3072, 350.1948 895.0801 C348.9581 979.4177, 533.5243 796.3868, 617.1996 807.0074 C699.1501 817.4092, 356.2126 813.2833, 356.5793 895.8905 C356.9441 978.0917, 535.5696 801.8361, 617.2189 811.3529 C697.1287 820.6669, 361.9184 816.1916, 362.9715 896.6356 C364.0195 976.6908, 537.6929 806.952, 617.2758 815.6984 C695.1083 824.2524, 366.1817 819.1023, 369.3686 897.3386 C372.5414 975.2283, 539.9111 812.03, 617.4526 820.0406 C693.2328 827.8692, 371.9778 821.9109, 375.7701 897.9999 C379.5461 973.762, 542.1364 817.3829, 617.6689 824.3806 C691.4254 831.2137, 377.0756 824.6973, 382.1784 898.5936 C387.2609 972.1963, 544.4683 822.3194, 617.9683 828.7161 C689.6821 834.9573, 381.7917 827.4885, 388.5898 899.1516 C395.3641 970.564, 546.8834 827.2073, 618.3787 833.0417 C688.0774 838.7295, 385.113 830.4477, 395.004 899.675 C404.8695 968.724, 549.4252 832.3029, 618.9931 837.3422 C686.7511 842.2504, 387.9963 833.5445, 401.4229 900.14 C414.8308 966.643, 552.1629 837.0553, 619.8516 841.6004 C685.7202 846.0233, 390.7715 836.7999, 407.8439 900.5712 C424.9163 964.3426, 555.0865 841.6762, 620.975 845.7965 C685.0334 849.8024, 393.4854 840.2468, 414.2671 900.9728 C435.082 961.7962, 558.1904 846.4061, 622.3814 849.9063 C684.7305 853.306, 396.2018 843.8852, 420.6932 901.3232 C445.268 958.9567, 561.5087 850.7859, 624.0852 853.902 C684.8103 856.926, 398.9942 847.7399, 427.1208 901.6433 C455.3986 955.8365, 565.032 854.9543, 626.095 857.7538 C685.2979 860.468, 401.392 852.1563, 433.5496 901.938 C465.9552 952.1037, 568.7747 859.1017, 628.4523 861.403 C686.2595 863.6322, 404.5773 856.4338, 439.9804 902.186 C475.7343 948.3916, 572.7219 862.8161, 631.1103 864.838 C687.6206 866.7948, 408.114 860.8095, 446.4122 902.4088 C485.174 944.5116, 576.851 866.2463, 634.0518 868.033 C689.3678 869.7609, 412.0529 865.208, 452.8446 902.6097 C494.2171 940.5439, 581.1387 869.604, 637.2532 870.9684 C691.4751 872.2867, 416.4207 869.5251, 459.2784 902.7661 C502.8329 936.5475, 585.5789 872.4536, 640.686 873.6309 C693.8954 874.7676, 420.9413 874.1274, 465.7126 902.9036 C511.3017 932.2053, 590.1556 875.0152, 644.3408 875.9799 C696.6235 876.9108, 426.1951 878.0629, 472.1471 903.0181 C519.0137 928.4701, 594.8304 877.3981, 648.1583 878.0531 C699.579 878.6847, 431.8272 881.6857, 478.5823 903.0972 C526.3354 924.9656, 599.588 879.3512, 652.1077 879.8618 C702.7173 880.3538, 437.7663 885.0241, 485.0175 903.1597 C533.3371 921.7054, 604.408 881.1111, 656.1635 881.4184 C706.0058 881.7143, 443.9655 888.0559, 491.453 903.1979 C540.0669 918.6991, 609.2773 882.6482, 660.3026 882.7382 C709.4122 882.8248, 450.3775 890.7815, 497.8887 903.2093 C546.5726 915.9438, 614.184 883.8606, 664.5059 883.8377 C712.9105 883.8157, 456.9598 893.2255, 504.3242 903.2064 C552.8978 913.4421, 619.1177 884.9573, 668.7576 884.7336 C716.4783 884.5187, 463.6778 895.3936, 510.7599 903.1774 C559.0792 911.1657, 624.0706 885.8047, 673.0446 885.4424 C720.0982 885.0943, 470.502 897.3066, 517.1953 903.1298 C565.1468 909.1098, 629.0355 886.4306, 677.3563 885.9801 C723.7561 885.5475, 477.4079 898.998, 523.6307 903.0698 C571.1272 907.2537, 634.0087 887.009, 681.6848 886.3614 C727.4388 885.7399, 484.3764 900.4706, 530.0656 902.9824 C577.0395 905.5648, 638.9843 887.3223, 686.0235 886.5999 C731.1403 885.9071, 491.3924 901.7605, 536.5005 902.8835 C582.9006 904.0388, 643.9603 887.5259, 690.3675 886.7081 C734.852 885.9241, 498.4439 902.8814, 542.9352 902.7701 C588.7229 902.6556, 648.9348 887.6486, 694.7127 886.6972 C738.5676 885.7857, 505.5217 903.8464, 549.3694 902.6364 C594.5161 901.3906, 653.9039 887.58, 699.0566 886.5773 C742.2864 885.6173, 512.6185 904.6818, 555.8035 902.4935 C600.2882 900.2394, 658.8685 887.4621, 703.3966 886.3574 C746.0017 885.3005, 519.7294 905.4009, 562.2371 902.3339 C606.0441 899.1732, 663.826 887.2222, 707.7311 886.0447 C749.7135 884.9187, 526.868 906.204, 568.6705 902.1614 C611.7704 897.9932, 668.7728 886.8398, 712.0568 885.6263 C753.4185 884.4667, 533.9965 906.7076, 575.1035 901.981 C617.5057 897.1055, 673.7126 886.4435, 716.374 885.1299 C757.1135 883.8755, 541.1276 907.1151, 581.536 901.783 C623.2369 896.2803, 678.6412 885.9014, 720.6822 884.5615 C760.8019 883.2827, 548.2598 907.4474, 587.9684 901.5779 C628.9664 895.5178, 683.5605 885.3068, 724.9811 883.926 C764.4811 882.6093, 555.397 907.7455, 594.4003 901.3635 C634.6897 894.7711, 688.47 884.6599, 729.27 883.2242 C768.1502 881.8561, 562.5609 908.1267, 600.8322 901.1372 C640.3848 893.9137, 693.3642 883.8906, 733.545 882.4435 C771.8074 881.0655, 569.6882 908.254, 607.2636 900.9056 C646.117 893.3073, 698.2484 883.0959, 737.8099 881.6094 C775.4541 880.195, 576.8113 908.3262, 613.6946 900.6639 C651.8527 892.7369, 703.1209 882.2288, 742.0647 880.7255 C779.0927 879.2963, 583.9433 908.4133, 620.1255 900.4157 C657.5788 892.1373, 707.9803 881.2918, 746.308 879.7876 C782.7219 878.3585, 591.0944 908.558, 626.5562 900.1633 C663.2842 891.4689, 712.8251 880.3207, 750.537 878.7865 C786.3369 877.3301, 598.2014 908.4898, 632.9865 899.9017 C669.0348 891.0018, 717.6567 879.2708, 754.756 877.7449 C789.9459 876.2975, 605.3016 908.389, 639.4166 899.6373 C674.7919 890.5623, 722.4766 878.1903, 758.9655 876.665 C793.5477 875.2194, 612.4432 908.436, 645.8467 899.3685 C680.5058 889.9601, 727.2786 877.0507, 763.1595 875.5265 C797.137 874.0832, 619.5387 908.3028, 652.2766 899.0953 C686.267 889.5356, 732.0661 875.8592, 767.343 874.3499 C800.72 872.9219, 626.616 908.1091, 658.7062 898.8203 C692.0466 889.1696, 736.8407 874.641, 771.5173 873.1416 C804.2983 871.7242, 633.7253 908.0275, 665.1359 898.5422 C697.7925 888.6807, 741.5966 873.3645, 775.6776 871.8853 C807.8677 870.4882, 640.8056 907.8546, 671.5654 898.2632 C703.5681 888.2842, 746.3356 872.0487, 779.8263 870.5917 C811.4317 869.2167, 647.8551 907.5947, 677.9951 897.9835 C709.3759 887.9766, 751.0601 870.7042, 783.9667 869.2714 C814.9941 867.9203, 654.9372 907.4515, 684.4246 897.7035 C715.1489 887.5466, 755.7638 869.3104, 788.093 867.9073 C818.5503 866.5854, 661.9847 907.22, 690.8542 897.4244 C720.9576 887.2102, 760.4489 867.8842, 792.2083 866.5109 C822.1041 865.2183, 669.0004 906.9177, 697.2838 897.1464 C726.7992 886.9495, 765.1172 866.4258, 796.3159 865.0919 C825.6602 863.8372, 676.0563 906.7583, 703.7134 896.8715 C732.5981 886.546, 769.7608 864.9294, 800.408 863.629 C829.2112 862.4069, 683.0557 906.4672, 710.1433 896.5987 C738.4558 886.2839, 774.3846 863.4, 804.4912 862.1414 C832.7659 860.9594, 690.0358 906.1594, 716.5732 896.3299 C744.3331 886.0475, 778.9882 861.8439, 808.5664 860.632 C836.3261 859.4944, 697.053 905.9892, 723.0035 896.0664 C750.1714 885.6782, 783.563 860.2542, 812.6256 859.0798 C839.8848 857.9784, 703.9943 905.6602, 729.434 895.8066 C756.0881 885.4825, 788.1161 858.629, 816.678 857.5102 C843.4537 856.4614, 710.9447 905.405, 735.8647 895.5547 C761.9949 885.2261, 792.6425 856.9818, 820.7196 855.9127 C847.0296 854.9108, 717.8857 905.1775, 742.2957 895.3098 C767.9106 884.9551, 797.139 855.3122, 824.7485 854.284 C850.6121 853.3208, 724.7692 904.8627, 748.7267 895.0703 C773.8849 884.7872, 801.6096 853.5975, 828.7713 852.6397 C854.2114 851.7426, 731.6815 904.6838, 755.1584 894.8435 C779.8291 884.5029, 806.0446 851.8672, 832.7793 850.9598 C857.819 850.1099, 738.5302 904.4197, 761.5904 894.6252 C785.8381 884.3264, 810.4492 850.1238, 836.7792 849.2609 C861.4433 848.4525, 745.3586 904.1775, 768.0225 894.4144 C791.8665 884.1428, 814.8199 848.3213, 840.7705 847.5415 C865.0886 846.8108, 752.1885 904.0239, 774.4552 894.2211 C797.8929 883.9027, 819.1499 846.5185, 844.748 845.7904 C868.7494 845.1077, 758.9439 903.7836, 780.8883 894.0381 C803.9946 883.7766, 823.4464 844.7054, 848.7197 844.0266 C872.4351 843.3896, 765.7153 903.6629, 787.3216 893.8653 C810.0786 883.546, 827.6971 842.8167, 852.6776 842.2319 C876.1446 841.6824, 772.4216 903.506, 793.7556 893.7147 C816.2281 883.4007, 831.9065 840.9468, 856.6273 840.4191 C879.8812 839.9228, 779.0958 903.3773, 800.1896 893.5773 C822.4088 883.2546, 836.0731 839.0602, 860.5685 838.5881 C883.647 838.1432, 785.7623 903.3328, 806.6241 893.4533 C828.5958 883.0482, 840.188 837.0997, 864.4961 836.7281 C887.4437 836.3772, 792.3442 903.2349, 813.0589 893.3549 C834.8673 882.9533, 844.2585 835.1572, 868.4186 834.8572 C891.2764 834.5734, 798.9381 903.2759, 819.494 893.275 C841.1253 882.751, 848.272 833.1901, 872.3264 832.956 C895.1401 832.734, 805.4511 903.2699, 825.9294 893.2124 C847.4636 882.6364, 852.2365 831.1719, 876.2272 831.0402 C899.0444 830.9149, 811.9347 903.3379, 832.365 893.1771 C853.8299 882.5017, 856.1454 829.137, 880.1183 829.105 C902.9879 829.0744, 818.3876 903.4799, 838.8007 893.1685 C860.2256 882.3459, 859.9941 827.0948, 883.9973 827.1456 C906.9688 827.1942, 824.7581 903.5908, 845.2361 893.1821 C866.702 882.2712, 863.7923 825.0298, 887.8715 825.1764 C910.9935 825.3172, 831.1475 903.8703, 851.6717 893.2213 C873.1589 882.0725, 867.5234 822.8776, 891.7289 823.1749 C915.0579 823.4615, 837.4249 904.0975, 858.1068 893.3003 C879.725 882.0142, 871.1978 820.7576, 895.5813 821.1638 C919.1669 821.5566, 843.6956 904.4476, 864.5415 893.4075 C886.2968 881.8857, 874.8094 818.605, 899.4218 819.1298 C923.3162 819.6393, 849.9094 904.8323, 870.9759 893.5447 C892.9239 881.7847, 878.3616 816.397, 903.2524 817.0773 C927.5082 817.7404, 856.0608 905.2548, 877.409 893.7205 C899.6101 881.7255, 881.8566 814.1414, 907.0759 815.0115 C931.7451 815.8627, 862.2084 905.8308, 883.8408 893.9424 C906.2983 881.6006, 885.2799 811.8829, 910.8844 812.9185 C936.0209 813.9352, 868.2519 906.3696, 890.2711 894.2025 C913.0859 881.5958, 888.6505 809.5982, 914.6881 810.8167 C940.3395 812.0172, 874.3118 907.082, 896.6996 894.5034 C919.8556 881.4931, 891.9548 807.2567, 918.4769 808.688 C944.6944 810.1028, 880.2797 907.7891, 903.1258 894.8502 C926.7116 881.4922, 895.2077 804.8181, 922.2584 806.5463 C949.0897 808.2606, 886.2177 908.6223, 909.5483 895.2605 C933.5914 881.4908, 898.3941 802.3961, 926.0294 804.3866 C953.5248 806.367, 892.1243 909.5587, 915.9673 895.7228 C940.4965 881.4888, 901.5204 799.9208, 929.7883 802.2054 C957.9944 804.485, 897.9417 910.5052, 922.3819 896.2413 C947.4814 881.5926, 904.598 797.4003, 933.5416 800.0148 C962.5003 802.6307, 903.7971 911.6773, 928.7914 896.8203 C954.4219 881.585, 907.6106 794.8078, 937.2773 797.7943 C967.0347 800.7899, 909.5212 912.8059, 935.1946 897.4648 C961.4791 881.7586, 910.5844 792.1048, 941.0078 795.5651 C971.5992 799.0446, 915.2562 914.1459, 941.589 898.1921 C968.5112 881.8813, 913.3948 790.2653, 944.7246 793.3133 C976.2416 796.3795, 920.9846 915.3449, 947.9937 898.8152 C975.5706 881.9381, 916.1458 789.3217, 948.4313 791.0448 C980.8688 792.776, 926.7769 916.219, 954.4197 899.1582 C982.6089 881.7602, 919.011 788.0573, 952.1295 788.7623 C985.3849 789.4703, 932.669 916.9601, 960.8537 899.2952 C989.5663 881.2994, 921.9262 786.6041, 955.8119 786.4543 C989.83 786.304, 938.5087 917.4036, 967.289 899.2667 C996.5765 880.8102, 924.8828 785.059, 959.4885 784.1374 C994.227 783.2123, 944.4586 917.8372, 973.7223 899.0954 C1003.4764 880.0396, 927.8537 783.4473, 963.1482 781.7936 C998.5782 780.1335, 950.3513 918.0305, 980.1508 898.7942 C1010.4221 879.2533, 930.847 781.8124, 966.7992 779.4368 C1002.8901 777.0519, 956.2792 918.1328, 986.5723 898.3699 C1017.3202 878.3102, 933.8599 780.1921, 970.4389 777.0623 C1007.1584 773.9204, 962.2455 918.1513, 992.9844 897.8212 C1024.1627 877.2006, 936.8878 778.5697, 974.0637 774.6649 C1011.3806 770.7453, 968.1442 917.9324, 999.3846 897.149 C1031.0469 876.085, 939.9504 777.0042, 977.6819 772.2578 C1015.5516 767.494, 974.1656 917.7465, 1005.7698 896.3458 C1037.7827 874.6683, 943.0375 775.4971, 981.2805 769.821 C1019.6546 764.1255, 980.0853 917.2593, 1012.1357 895.4009 C1044.5787 873.2748, 946.1779 774.0793, 984.8708 767.3724 C1023.6829 760.6448, 986.0551 916.6732, 1018.4766 894.3018 C1051.2769 871.6692, 949.389 772.8109, 988.4476 764.9044 C1027.6055 756.9777, 992.0464 915.9252, 1024.7841 893.025 C1057.8873 869.8691, 952.6998 771.7321, 992.0087 762.4134 C1031.387 753.0782, 997.9556 914.8398, 1031.0455 891.5406 C1064.486 867.9946, 956.1782 770.9382, 995.5621 759.9114 C1034.9718 748.8774, 1003.9822 913.652, 1037.2423 889.8057 C1070.8423 865.7156, 959.9147 770.5803, 999.0939 757.3792 C1038.2345 744.191, 1009.8674 911.9481, 1043.34 887.7511 C1077.1385 863.3184, 964.1254 770.8892, 1002.6158 754.8332 C1040.9731 738.8327, 1015.7271 909.8024, 1049.278 885.2741 C1083.1426 860.5165, 969.3268 772.4104, 1006.1242 752.2683 C1042.6447 732.2778, 1021.4959 907.0108, 1054.9191 882.1863 C1088.646 857.1361, 976.8315 775.9526, 1009.6129 749.6771 C1041.9153 723.7856, 1026.787 902.9785, 1059.9288 878.1708 C1093.3635 853.1439, 990.73 782.3458, 1013.092 747.0729 C1034.8385 712.7711, 1031.0248 897.3766, 1063.3453 872.7817 C1095.9581 847.9644, 1015.8135 785.4163, 1016.5504 744.4412 C1017.2553 705.2354, 1032.3938 890.3688, 1063.4594 866.4412 C1094.8351 842.2745, 1037.5924 777.268, 1019.9933 741.7894 C1003.2407 708.0173, 1030.8442 883.8346, 1060.6143 860.7056 C1090.7349 837.3042, 1044.6592 770.809, 1023.4251 739.1231 C1003.2174 708.9689, 1028.5969 877.9227, 1057.0316 855.3596 C1085.8694 832.4765, 1047.8984 766.6104, 1026.8293 736.4218 C1006.7904 707.7092, 1026.0212 871.9728, 1053.3484 850.0821 C1081.1298 827.8275, 1051.1249 762.5162, 1030.2211 733.7048 C1010.3415 706.3051, 1023.275 866.1935, 1049.569 844.873 C1076.3711 823.1404, 1054.3098 758.5652, 1033.5967 730.9677 C1013.8901 704.7113, 1020.4092 860.6503, 1045.7059 839.726 C1071.567 818.3349, 1057.502 754.7271, 1036.9453 728.1979 C1017.3666 702.9306, 1017.2415 855.1428, 1041.7642 834.639 C1066.9056 813.6178, 1060.7278 751.0196, 1040.2793 725.4103 C1020.7682 700.9751, 1013.9048 849.8395, 1037.7487 829.61 C1062.2651 808.8099, 1064.0006 747.443, 1043.5931 722.5988 C1024.0712 698.8326, 1010.4124 844.7694, 1033.6638 824.6371 C1057.6392 803.8781, 1067.3292 743.993, 1046.8785 719.7541 C1027.2502 696.4899, 1006.6263 839.7848, 1029.5138 819.7184 C1053.1721 798.9761, 1070.7345 740.6817, 1050.1462 716.8892 C1030.3069 693.9621, 1002.6586 835.0136, 1025.3027 814.8519 C1048.7596 793.9666, 1074.2736 737.4595, 1053.392 713.9993 C1033.1761 691.2872, 998.5486 830.5234, 1021.0238 810.0446 C1044.3463 788.7938, 1077.8563 734.3937, 1056.6042 711.0723 C1035.9285 688.3833, 994.1509 826.128, 1016.6891 805.2879 C1040.1033 783.6379, 1081.5231 731.4636, 1059.795 708.1219 C1038.5492 685.2983, 989.5735 821.9225, 1012.3043 800.5774 C1035.9325 778.3895, 1085.2853 728.6483, 1062.963 705.1471 C1041.0266 682.0522, 984.9452 818.0231, 1007.8721 795.9112 C1031.7076 772.923, 1089.1255 725.921, 1066.0911 702.1302 C1043.3463 678.6387, 980.0724 814.2051, 1003.3957 791.2878 C1027.6343 767.4711, 1093.0535 723.2778, 1069.1908 699.0845 C1045.5232 675.0889, 975.0575 810.5513, 998.8764 786.7059 C1023.6115 761.9433, 1097.1133 720.6557, 1072.2618 696.01 C1047.5109 671.4641, 969.9475 807.1088, 994.3069 782.1742 C1019.5767 756.3077, 1101.179 718.1572, 1075.2988 692.9013 C1049.4321 667.6584, 964.8304 803.9042, 989.7009 777.6793 C1015.4682 750.5089, 1105.2883 715.6948, 1078.2893 689.748 C1051.2216 663.7352, 959.5427 800.7545, 985.0608 773.22 C1011.4614 744.7334, 1109.4424 713.2681, 1081.2432 686.5607 C1052.8986 659.7157, 954.2054 797.7521, 980.3883 768.7947 C1007.4359 738.8811, 1113.6393 710.8552, 1084.1577 683.3373 C1054.459 655.6167, 948.8375 794.895, 975.6837 764.4034 C1003.3735 732.9537, 1117.9069 708.4024, 1087.0295 680.0756 C1055.8657 651.4859, 943.5731 792.2947, 970.9413 760.0529 C999.1249 726.8505, 1122.1128 706.008, 1089.8418 676.7625 C1057.2239 647.2027, 938.2393 789.7524, 966.1727 755.7313 C994.8937 720.7507, 1126.3132 703.6019, 1092.5995 673.4038 C1058.4834 642.8453, 932.9139 787.3188, 961.379 751.4374 C990.6027 714.5997, 1130.4977 701.1792, 1095.3003 669.9993 C1059.6498 638.418, 927.6486 785.0167, 956.5616 747.1699 C986.2018 708.3712, 1134.7021 698.6757, 1097.9384 666.5461 C1060.6722 633.9777, 922.4628 782.8564, 951.7158 742.935 C981.6623 702.0673, 1138.8406 696.1694, 1100.5068 663.041 C1061.6273 629.4408, 917.3898 780.8326, 946.8465 738.7269 C976.9602 695.682, 1142.901 693.6481, 1102.9979 659.4802 C1062.5105 624.812, 912.469 778.9427, 941.9583 734.5412 C972.0654 689.2094, 1146.8914 691.0746, 1105.4021 655.8602 C1063.2933 620.12, 907.6887 777.1563, 937.0517 730.3767 C966.9918 682.6778, 1150.8337 688.4031, 1107.7125 652.1794 C1063.938 615.4069, 903.027 775.449, 932.1241 726.2373 C961.757 676.1195, 1154.6803 685.6785, 1109.9243 648.4386 C1064.4844 610.6296, 898.2227 773.657, 927.1769 722.1209 C956.632 669.6931, 1158.4155 682.9486, 1112.0529 644.65 C1064.9797 605.7644, 893.3859 771.8445, 922.2153 718.0223 C951.5142 663.3237, 1162.0764 680.1777, 1114.1047 640.8193 C1065.3983 600.8581, 888.5221 770.0162, 917.2401 713.9404 C946.3989 657.0037, 1165.7035 677.3257, 1116.0856 636.9514 C1065.7089 595.9597, 883.6232 768.1771, 912.248 709.8784 C941.2878 650.7345, 1169.256 674.4537, 1118.0009 633.0507 C1065.9652 591.0172, 878.6992 766.3309, 907.2418 705.8344 C936.1758 644.5084, 1172.718 671.5889, 1119.8552 629.1203 C1066.1932 586.0096, 873.8761 764.5293, 902.2246 701.8037 C930.9406 638.2651, 1176.1133 668.6914, 1121.645 625.1601 C1066.3604 580.9762, 869.0974 762.7397, 897.1973 697.7858 C925.6417 632.0357, 1179.4781 665.7148, 1123.3705 621.1716 C1066.4286 575.9662, 864.1187 760.8646, 892.1569 693.7844 C920.5218 625.9227, 1182.7612 662.7556, 1125.0464 617.1621 C1066.4822 570.8976, 859.1237 758.9839, 887.1069 689.795 C915.4004 619.8392, 1185.9785 659.7971, 1126.6758 613.1334 C1066.5101 565.7908, 854.1555 757.1116, 882.0495 685.8154 C910.2379 613.7668, 1189.146 656.8188, 1128.2592 609.0864 C1066.4969 560.6677, 849.4754 755.3444, 876.9847 681.8448 C904.7693 607.6097, 1192.286 653.7621, 1129.7825 605.0164 C1066.3904 555.5776, 844.4368 753.4384, 871.91 677.8871 C899.6459 601.6135, 1195.3326 650.7582, 1131.2676 600.9323 C1066.3035 550.4072, 839.3942 751.5275, 866.83 673.9362 C894.5167 595.6351, 1198.3389 647.7398, 1132.7163 596.8351 C1066.1849 545.2255, 834.5573 749.6835, 861.7448 669.9916 C889.1697 589.6041, 1201.3016 644.6916, 1134.1195 592.7221 C1066.0193 540.0424, 829.725 747.8316, 856.6545 666.0539 C883.8084 583.5946, 1204.2144 641.6253, 1135.4788 588.5944 C1065.8162 534.8484, 824.657 745.895, 851.5591 662.1227 C878.6765 577.6803, 1207.0659 638.5829, 1136.8075 584.4568 C1065.6149 529.611, 819.6803 743.9813, 846.4611 658.1953 C873.4474 571.7509, 1209.8778 635.5281, 1138.1025 580.3084 C1065.3861 524.3646, 815.0031 742.1497, 841.3601 654.2709 C867.9103 565.7482, 1212.6385 632.4497, 1139.351 576.146 C1065.1156 519.1142, 809.9229 740.1836, 836.2567 650.3502 C862.7764 559.8829, 1215.35 629.3871, 1140.5735 571.9755 C1064.8438 513.832, 804.9156 738.2314, 831.152 646.4309 C857.5665 554.0071, 1218.0199 626.3246, 1141.7677 567.797 C1064.5571 508.5338, 800.2977 736.377, 826.0468 642.5123 C851.963 548.0383, 1220.6334 623.2484, 1142.9174 563.6061 C1064.2385 503.2248, 795.217 734.3779, 820.9413 638.5942 C846.8269 542.2102, 1223.2006 620.1896, 1144.0446 559.409 C1063.922 497.8862, 790.2654 732.4028, 815.837 634.6748 C841.563 536.3565, 1225.7311 617.1252, 1145.1447 555.2047 C1063.5883 492.5389, 785.631 730.4948, 810.7339 630.7537 C835.9821 530.4351, 1228.2079 614.0529, 1146.2053 550.9904 C1063.2297 487.1796, 780.558 728.4573, 805.6321 626.8303 C830.8467 524.634, 1230.6343 611.0076, 1147.2463 546.7711 C1062.8834 481.7834, 775.7513 726.4709, 800.5339 622.903 C825.4503 518.7761, 1233.0129 607.9647, 1148.2577 542.5446 C1062.5258 476.3706, 771.0391 724.4865, 795.4395 618.9708 C819.9667 512.9071, 1235.3531 604.9066, 1149.2368 538.3105 C1062.1422 470.9578, 765.9845 722.4034, 790.3485 615.0338 C814.8352 507.1236, 1237.6621 601.8539, 1150.1985 534.0725 C1061.7554 465.5321, 761.3903 720.4083, 785.2617 611.0916 C809.2486 501.246, 1239.8635 598.8705, 1151.1256 529.8268 C1061.4089 460.0217, 756.5289 718.3258, 780.1825 607.1397 C803.9468 495.4332, 1242.0674 595.8352, 1152.0299 525.5761 C1061.0134 454.553, 751.5623 716.2019, 775.1086 603.1804 C798.7618 489.6459, 1244.2386 592.8043, 1152.9163 521.3217 C1060.6149 449.0727, 747.1516 714.1725, 770.041 599.2137 C793.03 483.7542, 1246.3137 589.8202, 1153.7649 517.0595 C1060.2384 443.5302, 742.1443 711.9932, 764.9818 595.2362 C787.9159 477.9849, 1248.3376 586.8684, 1154.5991 512.7945 C1059.8851 437.9497, 737.5026 709.8605, 759.9324 591.2461 C782.4539 472.1469, 1250.3551 583.8677, 1155.4066 508.5243 C1059.4839 432.4078, 732.8704 707.7029, 754.8907 587.2454 C776.9979 466.3124, 1252.3254 580.8726, 1156.1881 504.2493 C1059.0782 426.8508, 727.9071 705.4595, 749.858 583.2343 C771.8931 460.5395, 1254.1647 578.0109, 1156.9563 499.9719 C1058.7798 421.1556, 723.6566 703.3099, 744.8395 579.2054 C766.1006 454.6436, 1256.0006 575.0745, 1157.6875 495.688 C1058.4093 415.5222, 718.757 701.0135, 739.8325 575.1623 C760.9835 448.8597, 1257.8202 572.126, 1158.4053 491.4019 C1058.0282 409.8965, 714.1926 698.7477, 734.8365 571.1057 C755.5521 443.0209, 1259.5734 569.2078, 1159.0991 487.1118 C1057.6664 404.2326, 709.7087 696.4623, 729.853 567.0337 C750.0648 437.1716, 1261.1478 566.4521, 1159.7675 482.8177 C1057.4354 398.3982, 704.8445 694.0747, 724.8888 562.9384 C744.9985 431.3742, 1262.8044 563.562, 1160.4241 478.5219 C1057.0963 392.6948, 700.7598 691.7739, 719.9381 558.8262 C739.1765 425.4626, 1264.3937 560.6782, 1161.0446 474.2206 C1056.7526 386.9742, 695.9472 689.3284, 715.002 554.6969 C734.1149 419.6548, 1265.885 557.8806, 1161.6536 469.9176 C1056.4856 381.1643, 691.5877 686.9111, 710.0838 550.5463 C728.6343 413.7801, 1267.2266 555.2018, 1162.2377 465.6112 C1056.3206 375.2287, 687.1893 684.4393, 705.1882 546.3688 C723.2383 407.9051, 1268.6327 552.3915, 1162.7994 461.3019 C1056.0442 369.4187, 682.5464 681.8977, 700.3106 542.1707 C718.124 402.0565, 1269.9911 549.5998, 1163.3475 456.9908 C1055.7883 363.5866, 678.5654 679.4013, 695.4515 537.951 C712.3825 396.125, 1271.1903 546.9202, 1163.8627 452.6756 C1055.6279 357.6345, 673.8942 676.7709, 690.6157 533.7047 C707.3806 390.2679, 1272.2585 544.3521, 1164.3672 448.359 C1055.5793 351.5684, 669.8353 674.1613, 685.8073 529.4266 C701.8191 384.3312, 1273.3903 541.6443, 1164.8439 444.0394 C1055.4092 345.6357, 665.4948 671.473, 681.022 525.1236 C696.5866 378.4209, 1274.4572 538.961, 1165.3024 439.7179 C1055.2678 339.675, 661.1679 668.7417, 676.2604 520.7944 C691.3882 372.5009, 1275.3969 536.3694, 1165.7434 435.3945 C1055.2203 333.6188, 657.2653 666.0018, 671.5261 516.4348 C685.819 366.532, 1276.0851 533.9797, 1166.1559 431.0685 C1055.3708 327.3561, 652.7867 663.1407, 666.8281 512.0367 C680.9001 360.602, 1276.91 531.3975, 1166.558 426.7414 C1055.3605 321.2835, 649.1239 660.3051, 662.1585 507.6082 C675.2203 354.5921, 1277.6393 528.8417, 1166.9276 422.4113 C1055.3813 315.1785, 644.8408 657.3578, 657.5189 503.148 C670.2228 348.6251, 1278.295 526.3168, 1167.2837 418.0801 C1055.4493 309.041, 640.9204 654.3879, 652.9111 498.6553 C664.9252 342.6183, 1278.5844 524.1019, 1167.6173 413.7471 C1055.8441 302.5906, 637.1099 651.3519, 648.3479 494.1173 C659.607 336.5876, 1278.9678 521.7172, 1167.9271 409.4124 C1056.0944 296.3065, 632.9305 648.2258, 643.8231 489.541 C654.7355 330.567, 1279.3193 519.3125, 1168.2247 405.0768 C1056.3516 290.0406, 629.6229 645.0978, 639.3362 484.9273 C649.0663 324.48, 1279.5521 516.9402, 1168.4878 400.739 C1056.6593 283.7383, 625.4972 641.8502, 634.8896 480.275 C644.2979 318.4285, 1279.6764 514.6203, 1168.74 396.4005 C1057.0547 277.3827, 622.05 638.5781, 630.4859 475.5822 C638.9352 312.3254, 1279.3204 512.6664, 1168.9646 392.0606 C1057.8815 270.6599, 618.3949 635.2043, 626.1413 470.834 C633.8996 306.2112, 1279.1898 510.4236, 1169.1692 387.7195 C1058.4379 264.2227, 614.6885 631.7579, 621.8449 466.0423 C629.012 300.0819, 1278.9406 508.22, 1169.3567 383.3777 C1059.0797 257.7458, 611.6032 628.264, 617.5995 461.2058 C623.6042 293.9146, 1278.5474 506.0537, 1169.5126 379.0348 C1059.8029 251.2297, 607.8153 624.6647, 613.4077 456.3225 C619.0075 287.7534, 1278.0281 503.9299, 1169.6569 374.6914 C1060.63 244.6708, 604.9021 621.0177, 609.2727 451.3914 C613.6489 281.5502, 1277.0811 502.0635, 1169.7688 370.347 C1061.8245 237.8546, 601.5067 617.2603, 605.2078 446.4021 C608.9134 275.3372, 1276.0742 500.1518, 1169.8629 366.0022 C1063.0426 231.0833, 598.3129 613.4185, 601.2131 441.3566 C604.1168 269.097, 1275.0598 498.1518, 1169.9362 361.657 C1064.2252 224.3997, 595.5831 609.4962, 597.2863 436.258 C598.9914 262.8338, 1273.8691 496.1843, 1169.9789 357.3114 C1065.5239 217.6837, 592.2412 605.4763, 593.4315 431.1051 C594.6229 256.5548, 1272.5115 494.2539, 1170.0085 352.9657 C1066.9642 210.9313, 589.894 601.3722, 589.6525 425.8962 C589.4107 250.2547, 1270.9535 492.352, 1170.0026 348.6199 C1068.5345 204.1515, 586.9404 597.1685, 585.9536 420.6297 C584.9658 243.934, 1269.17 490.5047, 1169.9783 344.2743 C1070.2948 197.319, 584.2612 592.8679, 582.3409 415.3039 C580.4189 237.5927, 1266.7938 488.9341, 1169.9313 339.9287 C1072.6075 190.2139, 582.1288 588.4456, 578.8334 409.9082 C575.5355 231.2368, 1264.6006 487.099, 1169.8511 335.5837 C1074.6669 183.3732, 579.3594 583.9304, 575.4212 404.4518 C571.4802 224.8469, 1262.1968 485.2781, 1169.7557 331.2389 C1076.907 176.5204, 577.5732 579.2912, 572.1097 398.9336 C566.6427 218.464, 1259.5522 483.4583, 1169.6241 326.8949 C1079.3159 169.6698, 575.3572 574.5538, 568.9044 393.3532 C562.4479 212.0508, 1256.6749 481.6349, 1169.4695 322.5518 C1081.9121 162.8267, 573.1685 569.7111, 565.811 387.7102 C558.45 205.6174, 1253.5592 479.7996, 1169.2939 318.2096 C1084.7051 155.999, 571.9566 564.7179, 562.8354 382.004 C553.7103 199.214, 1250.1797 477.9358, 1169.0773 313.8692 C1087.6797 149.2057, 569.9157 559.6498, 559.9836 376.2351 C550.0479 192.7534, 1246.5544 476.0382, 1168.8423 309.5298 C1090.8635 142.4502, 568.6042 554.4352, 557.262 370.4037 C545.9165 186.3186, 1242.6665 474.09, 1168.575 305.1922 C1094.2452 135.7514, 567.5245 549.0908, 554.6767 364.5102 C541.8262 179.8901, 1238.1412 472.2283, 1168.2732 300.8569 C1098.1975 128.9764, 566.022 543.6554, 552.247 358.5507 C538.4698 173.4166, 1233.6796 470.1439, 1167.9507 296.5231 C1102.0417 122.4268, 565.5878 538.0304, 549.9686 352.5323 C534.3483 167.0213, 1228.9991 467.939, 1167.5861 292.1927 C1106.0193 116.0065, 564.8102 532.3181, 547.8457 346.4572 C530.8812 160.5966, 1224.0728 465.6188, 1167.191 287.8649 C1110.1808 109.7091, 563.9117 526.5128, 545.8844 340.3282 C527.8582 154.155, 1218.9156 463.1681, 1166.7722 283.5394 C1114.5238 103.549, 564.3061 520.4755, 544.0905 334.1485 C523.8782 147.8519, 1213.5116 460.5649, 1166.3035 279.2189 C1119.0123 97.5538, 563.9988 514.4022, 542.4694 327.9212 C520.9451 141.4836, 1207.895 457.7971, 1165.8051 274.9018 C1123.6519 91.732, 563.7759 508.2259, 541.0262 321.6501 C518.2834 135.1302, 1202.0908 454.8481, 1165.2791 270.5879 C1128.4218 86.0999, 564.9094 501.786, 539.7656 315.3401 C514.6321 128.9706, 1196.0905 451.699, 1164.6982 266.2811 C1133.2756 80.6836, 565.298 495.3445, 538.6915 308.9956 C512.0978 122.7373, 1189.9441 448.3405, 1164.084 261.9789 C1138.2059 75.4875, 565.8209 488.8042, 537.807 302.6217 C509.8088 116.5435, 1183.6761 444.7627, 1163.4374 257.6815 C1143.1901 70.5213, 567.5411 482.0009, 537.1149 296.2238 C506.7091 110.5718, 1177.2933 440.954, 1162.735 253.3928 C1148.1746 65.8042, 568.8829 475.1736, 536.6169 289.808 C504.3756 104.5844, 1170.8464 436.9115, 1161.9897 249.1115 C1153.1343 61.3361, 570.215 468.2816, 536.3137 283.3796 C502.4413 98.6352, 1164.0168 432.6401, 1161.2061 244.8371 C1158.3964 57.1143, 572.2778 461.1927, 536.2174 276.9446 C500.1915 92.873, 1152.634 427.9764, 1160.3713 240.5722 C1168.1012 53.3497, 575.0852 453.8796, 536.4828 270.5169 C497.9221 87.3525, 1137.3086 422.1818, 1159.4761 236.3197 C1181.6052 50.7789, 577.7385 446.5446, 537.2446 264.1293 C496.7986 81.9298, 1123.0579 415.3092, 1158.5343 232.0772 C1193.9243 49.2915, 580.9172 439.0897, 538.4675 257.8134 C496.0724 76.7708, 1108.2717 407.1392, 1157.5435 227.8459 C1206.6584 49.1233, 585.2743 431.3871, 540.1723 251.6098 C495.1346 72.0885, 1095.0604 398.2251, 1156.486 223.6308 C1217.6746 49.7097, 590.0313 423.6281, 542.3074 245.5409 C494.6582 67.732, 1083.7797 389.0284, 1155.3611 219.4331 C1226.6248 50.5907, 594.7863 415.9331, 544.8092 239.6136 C494.9165 63.5919, 1073.5045 379.4626, 1154.176 215.2522 C1234.4454 51.8602, 599.9854 408.1966, 547.6464 233.8384 C495.4029 59.7983, 1063.3453 369.1868, 1152.9266 211.0901 C1242.0117 53.8692, 605.6351 400.431, 550.8185 228.2401 C496.1097 56.3881, 1054.9249 359.1941, 1151.6084 206.9492 C1247.7102 55.6202, 612.489 392.3559, 554.2679 222.8084 C496.1723 53.6262, 1047.6327 349.3935, 1150.1969 202.8388 C1252.1003 57.2283, 619.0192 384.4441, 557.9575 217.5364 C497.0376 51.0166, 1041.0886 339.6797, 1148.7039 198.7577 C1255.5826 58.8, 625.823 376.4966, 561.8627 212.4224 C498.0626 48.759, 1035.2153 330.1057, 1147.1256 194.7091 C1258.2279 60.2899, 632.9954 368.4557, 565.9622 207.4626 C499.1099 46.9037, 1029.9349 320.7108, 1145.4553 190.6975 C1260.1005 61.6694, 640.5278 360.2939, 570.2364 202.6522 C500.1494 45.4689, 1025.1761 311.5258, 1143.6857 186.7288 C1261.2571 62.9196, 648.4114 351.9779, 574.6678 197.9857 C501.1555 44.4765, 1020.8596 302.561, 1141.8088 182.8095 C1261.7614 64.0449, 656.6461 343.4648, 579.2409 193.4579 C502.0979 43.959, 1016.9285 293.8374, 1139.8162 178.9478 C1261.6526 65.0411, 665.2275 334.7047, 583.9418 189.063 C502.9536 43.9544, 1013.3197 285.3601, 1137.6984 175.1533 C1260.9752 65.9228, 674.146 325.6406, 588.7587 184.7949 C503.7095 44.507, 1009.9823 277.1399, 1135.4456 171.4373 C1259.7601 66.7026, 683.3754 316.215, 593.6804 180.6484 C504.3699 45.6631, 1006.8671 269.183, 1133.0477 167.8132 C1258.0363 67.4012, 692.8932 306.3555, 598.6974 176.6178 C504.9393 47.4829, 1003.9269 261.4927, 1130.4948 164.297 C1255.8301 68.0477, 702.6595 295.9864, 603.8016 172.6982 C505.4415 50.0308, 1001.1276 254.0845, 1127.7765 160.907 C1253.1555 68.6637, 712.5936 285.0482, 608.9855 168.8843 C505.9428 53.3543, 998.4334 246.968, 1124.8845 157.6645 C1250.0311 69.2823, 722.6273 273.4574, 614.2422 165.1719 C506.4977 57.5263, 995.8141 240.1579, 1121.8112 154.594 C1246.4716 69.9378, 732.6226 261.1813, 619.566 161.5565 C507.2321 62.5685, 993.2459 233.6728, 1118.5519 151.7219 C1242.4913 70.6647, 742.4398 248.1888, 624.9522 158.0339 C508.2749 68.5008, 990.7117 227.5369, 1115.1057 149.0775 C1238.1058 71.4973, 751.8987 234.5047, 630.3953 154.6007 C509.7933 75.2895, 988.1956 221.7706, 1111.4762 146.6906 C1233.3375 72.475, 761.0959 219.6787, 635.8915 151.2534 C511.6841 83.373, 985.6842 216.4134, 1107.6642 144.6073 C1228.2014 73.6506, 769.6961 203.7905, 641.4376 147.9886 C514.2705 92.6616, 983.1744 211.5092, 1103.6809 142.8743 C1222.7233 75.0733, 776.8262 188.632, 647.0297 144.8036 C518.4004 101.3695, 980.6827 207.0498, 1099.566 141.4848 C1216.9658 76.738, 782.8962 173.5494, 652.6649 141.6958 C523.6623 110.1428, 978.1842 202.983, 1095.3475 140.453 C1211.0088 78.7247, 787.883 158.8434, 658.3424 138.6657 C530.0747 118.6862, 975.6523 199.2307, 1091.0557 139.7845 C1204.938 81.1218, 791.8728 144.3969, 664.0637 135.7186 C537.5526 127.1284, 973.2916 196.1693, 1086.7214 139.4902 C1198.6161 83.5782, 794.8875 130.6581, 669.8204 132.842 C546.0556 135.0033, 971 193.579, 1082.3777 139.5661 C1192.2076 86.3036, 797.165 118.894, 675.6108 130.0339 C555.3458 141.0557, 968.7882 191.4079, 1078.0518 139.9625 C1185.7566 89.251, 798.9559 108.3067, 681.4334 127.2924 C565.1735 146.0742, 966.6625 189.6299, 1073.7634 140.6553 C1179.2964 92.3977, 800.444 98.9016, 687.2859 124.6163 C575.3538 150.0523, 964.6259 188.2168, 1069.5273 141.6179 C1172.8528 95.7191, 801.7899 90.6354, 693.1672 122.0037 C585.7271 153.0305, 962.5709 186.8886, 1065.3536 142.8232 C1166.5502 99.4379, 803.2576 83.8239, 699.0821 119.4678 C596.0447 154.7224, 960.6995 186.0714, 1061.2424 144.2299 C1160.1934 103.0508, 805.4247 79.4893, 705.024 116.9951 C605.73 154.0874, 958.9044 185.4839, 1057.1714 145.7507 C1153.8424 106.6627, 808.0185 76.3901, 710.9902 114.5827 C615.0448 152.349, 957.1571 185.0441, 1053.1279 147.3423 C1147.5 110.2684, 810.9293 74.0972, 716.98 112.2296 C624.0951 149.9301, 955.4456 184.7195, 1049.1012 148.9766 C1141.1563 113.8446, 813.3 70.527, 722.9928 109.9349 C633.7141 148.894, 953.7452 184.471, 1045.1182 150.7147 C1134.8884 117.5505, 816.4097 68.6756, 729.0295 107.7047 C642.6585 146.2831, 952.054 184.2683, 1041.1505 152.4869 C1128.6425 121.2778, 819.1135 65.9308, 735.0911 105.5425 C652.0441 144.6943, 950.4589 184.3774, 1037.2196 154.3401 C1122.3779 124.8576, 822.0919 63.7735, 741.1725 103.4371 C661.1987 142.6371, 948.8884 184.6098, 1033.3177 156.2527 C1116.1482 128.4326, 825.2789 62.0183, 747.2734 101.388 C670.1863 140.2941, 947.3336 184.9498, 1029.438 158.2108 C1109.9486 131.9908, 828.075 59.4958, 753.3925 99.3952 C679.5852 138.8269, 945.7908 185.399, 1025.6051 160.2585 C1103.8314 135.6182, 831.5499 58.2222, 759.5307 97.4617 C688.3599 136.2389, 944.2106 185.8011, 1021.789 162.3377 C1097.7847 139.353, 834.6031 56.1683, 765.6909 95.5986 C697.5829 134.5687, 942.7051 186.5296, 1018.0171 164.4959 C1091.757 142.9222, 838.0579 54.781, 771.8674 93.7915 C706.4445 132.3497, 941.1979 187.3636, 1014.2733 166.7024 C1085.7892 146.4821, 841.6095 53.5067, 778.0601 92.0406 C715.2397 130.1325, 939.6829 188.2999, 1010.5573 168.9556 C1079.8875 150.0329, 844.955 51.8503, 784.2687 90.3461 C724.261 128.4114, 938.1626 189.3604, 1006.8876 171.2835 C1074.0862 153.608, 848.8878 51.0515, 790.4926 88.709 C732.7393 125.9525, 936.5714 190.3258, 1003.2352 173.6388 C1068.3895 157.3297, 852.3902 49.5476, 796.7358 87.1462 C741.6661 124.3499, 935.0178 191.612, 999.6343 176.0715 C1062.7656 160.8882, 856.4352 48.7631, 802.9928 85.6414 C750.0901 122.1472, 933.4261 192.9848, 996.0576 178.5396 C1057.2318 164.4305, 860.4402 47.8311, 809.2639 84.195 C758.5746 120.2129, 931.7936 194.4578, 992.5151 181.0567 C1051.8114 167.9702, 864.4649 46.8295, 815.5482 82.8081 C767.0596 118.4717, 930.1155 196.0394, 989.0144 183.6316 C1046.5247 171.5163, 868.9573 46.3433, 821.8455 81.4815 C775.1127 116.337, 928.3478 197.5855, 985.5309 186.2297 C1041.3638 175.142, 873.0158 45.1849, 828.158 80.2279 C783.6077 115.0308, 926.5406 199.3171, 982.1064 188.905 C1036.3671 178.7374, 877.78 44.7933, 834.4835 79.0426 C791.4403 113.0916, 924.6554 201.1629, 978.6982 191.601 C1031.4879 182.2608, 882.3348 44.0015, 840.8205 77.9214 C799.4912 111.6902, 922.6851 203.1054, 975.3329 194.3506 C1026.7856 185.7946, 887.1754 43.3986, 847.1687 76.8658 C807.2815 110.233, 920.6132 205.1255, 971.9998 197.139 C1022.255 189.3282, 892.2217 42.8716, 853.528 75.8774 C814.8884 108.8369, 918.4269 207.2129, 968.6935 199.9592 C1017.8986 192.8587, 897.179 42.0698, 859.8974 74.9583 C822.5965 107.8638, 916.1162 209.3028, 965.4344 202.8342 C1013.7638 196.4953, 902.6645 41.6875, 866.2783 74.1213 C829.8096 106.6288, 913.6772 211.4837, 962.1906 205.7258 C1009.7946 200.0757, 907.8524 40.802, 872.6691 73.3628 C837.3283 106.0694, 911.1195 213.7832, 959.0009 208.6776 C1006.0586 203.6599, 913.6116 40.3331, 879.0682 72.6805 C844.3036 105.2351, 908.411 216.1135, 955.8287 211.6482 C1002.5122 207.252, 919.2673 39.569, 885.4755 72.0771 C851.3949 104.863, 905.5618 218.4913, 952.697 214.661 C999.1901 210.8828, 925.1803 38.881, 891.89 71.5559 C858.2485 104.5756, 902.565 220.8961, 949.5956 217.705 C996.0779 214.5511, 931.2759 38.1985, 898.3105 71.1202 C864.9351 104.4514, 899.4202 223.3138, 946.5207 220.7758 C993.1669 218.2623, 937.3335 37.3131, 904.7366 70.7739 C871.673 104.7139, 896.1423 225.7488, 943.4884 223.8885 C990.4729 222.0423, 943.8316 36.6982, 911.1673 70.5213 C877.9868 104.8789, 892.7183 228.1233, 940.4694 227.0146 C987.9475 225.9123, 950.0067 35.6547, 917.6013 70.3719 C884.6328 105.6923, 889.189 230.5039, 937.5042 230.1914 C985.6313 229.8801, 956.7573 35.0361, 924.0366 70.3303 C890.7123 106.2755, 885.5362 232.8725, 934.5496 233.3783 C983.4567 233.8831, 963.2202 34.0688, 930.4719 70.3967 C897.0847 107.4334, 881.7954 235.2068, 931.6398 236.6061 C981.4539 238.0046, 970.0518 33.3659, 936.905 70.5773 C903.0881 108.5409, 877.9639 237.4694, 928.7492 239.8512 C979.5735 242.2348, 976.7789 32.5359, 943.3331 70.8788 C909.1917 110.0191, 874.0701 239.6572, 925.8926 243.1261 C977.8163 246.6018, 983.6268 31.8016, 949.7541 71.3086 C915.1643 111.6519, 870.1285 241.7485, 923.064 246.4252 C976.1555 251.1157, 990.5633 31.1634, 956.1643 71.8749 C921.0303 113.4563, 866.1561 243.7225, 920.2592 249.7447 C974.5652 255.7895, 997.3746 30.4721, 962.5603 72.5868 C926.9985 115.6058, 862.1852 245.5703, 917.4904 253.0941 C973.0372 260.6507, 1004.4628 30.0902, 968.9367 73.4543 C932.6505 117.7462, 858.2222 247.2562, 914.7361 256.4561 C971.522 265.7003, 1011.1834 29.5254, 975.2886 74.4883 C938.6293 120.4087, 854.3185 248.7813, 912.0248 259.8523 C970.025 270.9796, 1018.3576 29.4693, 981.6088 75.7008 C944.0866 122.9052, 850.4797 250.0668, 909.3207 263.2542 C968.4677 276.5103, 1024.9375 29.1347, 987.8884 77.1082 C950.0682 126.0801, 846.8132 250.995, 906.6643 266.6938 C966.8196 282.4725, 1032.032 29.4482, 994.113 78.7409 C955.418 129.0426, 843.2613 251.792, 904.0146 270.1383 C965.0656 288.5744, 1038.5662 29.6034, 1000.2735 80.6013 C961.2097 132.6263, 839.926 252.3322, 901.4052 273.6136 C963.1655 294.9923, 1045.4175 30.3091, 1006.354 82.7061 C966.5186 136.1384, 836.835 252.5768, 898.8077 277.0976 C961.0361 301.7194, 1051.8162 31.0364, 1012.337 85.0733 C972.0922 140.1581, 834.0696 252.5294, 896.244 280.6067 C958.6387 308.7836, 1058.3309 32.254, 1018.2012 87.7216 C977.3088 144.2433, 831.9664 251.6271, 893.6967 284.1275 C955.5875 316.7125, 1064.4432 33.7273, 1023.8948 90.7192 C982.5909 148.773, 830.2122 250.797, 891.1774 287.6685 C952.2458 324.6024, 1070.4443 35.6636, 1029.4 94.0487 C987.6059 153.5004, 828.9849 249.7752, 888.6781 291.2237 C948.4128 332.7011, 1076.1235 37.9567, 1034.6847 97.7182 C992.5036 158.5502, 828.9938 247.816, 886.2018 294.7949 C943.3669 341.7385, 1081.4132 40.7442, 1039.6564 101.8009 C997.1655 163.931, 829.4811 246.222, 883.7485 298.3821 C937.9016 350.4323, 1086.3734 44.0403, 1044.2941 106.2585 C1001.488 169.5511, 830.9915 244.4844, 881.314 301.9818 C931.4529 359.2696, 1090.7358 47.7386, 1048.5299 111.0983 C1005.6074 175.5338, 833.8069 242.6664, 878.9047 305.5987 C923.7575 368.1893, 1094.7012 52.0654, 1052.2766 116.3267 C1009.1426 181.6627, 836.7333 241.7931, 876.5103 309.2256 C916.0096 376.1874, 1097.892 56.6687, 1055.5447 121.8669 C1012.4994 188.1397, 841.5518 240.8784, 874.1432 312.8699 C906.4434 384.218, 1100.6425 61.9067, 1058.1975 127.7268 C1015.0612 194.6189, 845.465 241.4063, 871.7879 316.5223 C897.8369 390.8564, 1102.5015 67.2745, 1060.3247 133.797 C1017.4689 201.3905, 850.4182 242.4565, 869.4609 320.1924 C888.2744 396.9925, 1104.0214 73.1548, 1061.8551 140.0444 C1019.0159 208.0015, 854.4178 244.5503, 867.1434 323.8689 C879.6994 402.131, 1104.6174 79.0163, 1062.8743 146.3969 C1020.4708 214.8433, 854.9725 247.655, 864.8547 327.5631 C874.6016 406.3767, 1105.3474 85.1882, 1063.6641 152.7831 C1021.3259 221.44, 854.7872 250.9772, 862.5737 331.2621 C870.252 410.4313, 1105.5071 91.1627, 1064.2853 159.1884 C1022.4215 228.2734, 854.6431 254.3993, 860.3214 334.9789 C865.9196 414.4218, 1105.8966 97.4286, 1064.7377 165.6082 C1022.942 234.8426, 854.8019 257.8935, 858.0755 338.6992 C861.3019 418.3419, 1105.6677 103.4867, 1064.9982 172.0385 C1023.7047 241.6418, 854.6745 261.5149, 855.8581 342.4369 C857.0244 422.1759, 1105.6862 109.8304, 1065.0923 178.4731 C1023.8795 248.1623, 854.5198 265.2187, 853.646 346.1774 C852.7851 425.9344, 1105.1105 115.9522, 1065.0228 184.908 C1024.329 254.9066, 854.3678 269.0189, 851.4618 349.9345 C848.5995 429.6303, 1104.7886 122.347, 1064.7919 191.3388 C1024.1936 261.3682, 854.1837 272.8962, 849.2822 353.6942 C844.4557 433.2551, 1103.8829 128.5195, 1064.4022 197.7619 C1024.3324 268.0375, 853.9873 276.8641, 847.1296 357.4694 C840.3786 436.8214, 1103.2252 134.9467, 1063.8567 204.1741 C1023.9036 274.4294, 853.7444 280.9026, 844.9813 361.2472 C836.3564 440.3234, 1102.01 141.1595, 1063.1589 210.5714 C1023.7352 281.0064, 853.4722 285.0226, 842.8588 365.0393 C832.4155 443.7734, 1101.0253 147.6007, 1062.3127 216.951 C1023.0321 287.3192, 853.2508 289.2216, 840.7405 368.834 C828.434 447.1493, 1099.5125 153.8422, 1061.3137 223.3085 C1022.558 293.7876, 853.0621 293.5124, 838.6465 372.642 C824.4699 450.4599, 1098.1898 160.2832, 1060.1603 229.64 C1021.5783 300.0043, 852.6302 297.8308, 836.5572 376.4525 C820.7545 453.752, 1096.3966 166.5417, 1058.8713 235.9449 C1020.8042 306.3503, 852.1478 302.2097, 834.4902 380.2753 C817.1339 457.0094, 1094.7791 172.9681, 1057.4517 242.2214 C1019.5868 312.4718, 851.6054 306.6339, 832.4283 384.1007 C813.583 460.2275, 1092.7388 179.2314, 1055.9053 248.4681 C1018.5441 318.6967, 851.0104 311.1093, 830.3871 387.9376 C810.1256 463.4185, 1090.8416 185.6325, 1054.2369 254.6832 C1017.1093 324.7206, 850.3514 315.6213, 828.3517 391.7772 C806.7432 466.579, 1088.5809 191.8957, 1052.4509 260.8658 C1015.8068 330.8173, 849.6409 320.1758, 826.3351 395.6267 C803.4493 469.718, 1086.4216 198.2643, 1050.5516 267.0146 C1014.1722 336.7414, 849.134 324.8484, 824.325 399.4796 C799.9704 472.7434, 1083.9363 204.5176, 1048.5215 273.1218 C1012.6053 342.6972, 848.3016 329.4749, 822.3314 403.3414 C796.8432 475.8368, 1081.5093 210.8434, 1046.387 279.1929 C1010.7679 348.5089, 847.3975 334.1204, 820.3452 407.2066 C793.8016 478.9187, 1078.8405 217.0815, 1044.1531 285.2281 C1008.9763 354.3362, 846.4399 338.7908, 818.374 411.0793 C790.8425 481.9913, 1076.1899 223.3639, 1041.8239 291.2274 C1006.9733 360.0479, 845.4263 343.4802, 816.4105 414.9567 C787.9542 485.0549, 1073.3588 229.5847, 1039.4032 297.1904 C1004.9695 365.748, 844.364 348.189, 814.46 418.8401 C785.1398 488.1118, 1070.5002 235.8197, 1036.8948 303.1168 C1002.8162 371.3612, 843.475 353.0119, 812.5185 422.7281 C782.1757 491.0622, 1067.5022 242.0158, 1034.283 308.9988 C1000.5961 376.9246, 842.3282 357.7647, 810.5876 426.6215 C779.4841 494.0961, 1064.4315 248.1979, 1031.5889 314.8432 C998.2838 382.4269, 841.0981 362.5124, 808.6666 430.5196 C776.8942 497.1448, 1061.2977 254.3681, 1028.8188 320.6518 C995.8821 387.8698, 839.8199 367.2677, 806.7543 434.4222 C774.3689 500.1955, 1058.0531 260.5012, 1025.9761 326.4254 C993.4466 393.2794, 838.5003 372.0315, 804.853 438.3299 C771.9062 503.2478, 1054.8009 266.6467, 1023.0635 332.1643 C990.8776 398.6079, 837.289 376.8798, 802.9584 442.241 C769.3525 506.2224, 1051.3866 272.7289, 1020.0709 337.8618 C988.3121 403.9164, 835.9694 381.7042, 801.0753 446.1576 C766.9277 509.2322, 1048.0032 278.8396, 1017.007 343.5211 C985.5708 409.1209, 834.5093 386.4792, 799.1973 450.0766 C764.6498 512.2969, 1044.4357 284.8717, 1013.8829 349.1478 C982.8955 414.3381, 833.0156 391.259, 797.3315 454.0016 C762.4296 515.3693, 1040.9565 290.9548, 1010.7014 354.7417 C980.0142 419.4395, 831.4836 396.0373, 795.4692 457.9281 C760.2537 518.4459, 1037.2631 296.9431, 1007.4647 360.3039 C977.2398 424.5719, 830.126 400.9412, 793.6196 461.8608 C757.935 521.4092, 1033.6735 302.9898, 1004.1567 365.8242 C974.2151 429.5628, 828.5326 405.7293, 791.772 465.794 C755.8492 524.4897, 1029.8442 308.9283, 1000.7972 371.3134 C971.3308 434.5992, 826.895 410.5097, 789.9376 469.7339 C753.8329 527.5914, 1026.1703 314.9448, 997.3901 376.7732 C968.1919 439.4997, 825.2245 415.2856, 788.1036 473.6738 C751.8499 530.6979, 1022.2402 320.8442, 993.9374 382.2041 C965.222 444.4586, 823.6481 420.1389, 786.2834 477.6199 C749.8038 533.7393, 1018.4643 326.8201, 990.4298 387.6001 C961.9836 449.2725, 821.9976 424.9638, 784.4631 481.5663 C747.83 536.8097, 1014.4514 332.687, 986.8732 392.9635 C958.8881 454.1293, 820.2389 429.7337, 782.6552 485.5179 C745.9854 539.9457, 1010.5677 338.6157, 983.2774 398.3006 C955.5814 458.8728, 818.4532 434.4985, 780.848 489.4703 C744.1689 543.0882, 1006.5085 344.4641, 979.6437 403.6123 C952.3773 463.645, 816.7431 439.3284, 779.0508 493.4271 C742.3 546.1744, 1002.5196 350.3457, 975.9648 408.8926 C949.0096 468.3222, 814.9937 444.1465, 777.2558 497.3847 C740.4739 549.2742, 998.3982 356.1658, 972.2431 414.1429 C945.6909 473.0003, 813.1354 448.9016, 775.4687 501.3461 C738.7689 552.4445, 994.3173 362.0044, 968.4889 419.3701 C942.265 477.6142, 811.2571 453.6523, 773.6846 505.3087 C737.0895 555.6213, 990.1549 367.8052, 964.7033 424.5746 C938.8586 482.2207, 809.465 458.4769, 771.9066 509.2744 C735.3398 558.7308, 985.9865 373.6013, 960.8773 429.7494 C935.3768 486.7724, 807.5969 463.2582, 770.1326 513.2415 C733.6716 561.8862, 981.7693 379.3735, 957.0175 434.8989 C931.8763 491.2978, 805.6567 467.996, 768.3631 517.2109 C732.0821 565.0894, 977.5305 385.1345, 953.1307 440.0282 C928.3433 495.7939, 803.7026 472.7312, 766.598 521.182 C730.5151 568.2986, 973.2764 390.8868, 949.2178 445.1375 C924.7731 500.2592, 801.8609 477.5616, 764.8362 525.1547 C728.8472 571.4164, 968.9658 396.6105, 945.2661 450.2172 C921.1819 504.6938, 799.8745 482.2912, 763.0789 529.1295 C727.3277 574.6384, 964.6616 402.3346, 941.2905 455.278 C917.5357 509.0902, 797.8668 487.0109, 761.324 533.105 C725.8336 577.8716, 960.3012 408.0316, 937.2923 460.3211 C913.9014 513.4788, 795.8896 491.7616, 759.5736 537.0829 C724.3197 581.0787, 955.9582 413.7329, 933.2681 465.3433 C910.1966 517.8212, 793.9292 496.5337, 757.8246 541.061 C722.793 584.2653, 951.5413 419.3973, 929.2149 470.342 C906.5087 522.1534, 791.8772 501.2396, 756.0803 545.0413 C721.3635 587.5212, 947.1563 425.0741, 925.1423 475.3253 C902.7486 526.4433, 789.8133 505.9416, 754.3365 549.0219 C719.9468 590.7822, 942.705 430.718, 921.0513 480.2931 C899.0192 530.7344, 787.8244 510.7104, 752.597 553.0043 C718.4674 593.9802, 938.2773 436.3682, 916.9326 485.238 C895.2094 534.9743, 785.7477 515.4145, 750.8575 556.9869 C717.0723 597.2429, 933.7842 441.9861, 912.7954 490.1675 C891.4293 539.2153, 783.6473 520.103, 749.122 560.971 C715.708 600.5236, 929.3213 447.6151, 908.6422 495.0838 C887.5854 543.4192, 781.5715 524.8173, 747.3863 564.9553 C714.3201 603.7794, 924.8051 453.2163, 904.4694 499.9832 C883.7567 547.6169, 779.4971 529.5375, 745.6534 568.9404 C712.9371 607.0309, 920.2963 458.8168, 900.2762 504.8651 C879.879 551.7809, 777.3611 534.2107, 743.9207 572.926 C711.6132 610.3297, 915.7585 464.4019, 896.0694 509.7355 C876.0032 555.9373, 775.2213 538.8836, 742.1895 576.9119 C710.2964 613.6293, 911.2199 469.9834, 891.8492 514.5941 C872.1011 560.0738, 773.1345 543.6066, 740.4586 580.8983 C708.9301 616.8806, 906.6552 475.5487, 887.6079 519.4345 C868.183 564.1902, 770.9683 548.2654, 738.7283 584.8848 C707.6409 620.1952, 902.0832 481.1081, 883.3552 524.265 C864.2492 568.2928, 768.7961 552.9215, 736.9984 588.8714 C706.3582 623.5126, 897.5038 486.6612, 879.0914 529.0854 C860.3005 572.382, 766.6555 557.6085, 735.2682 592.8579 C705.0455 626.7996, 892.9066 492.2021, 874.8118 533.8917 C856.3377 576.455, 764.4784 562.267, 733.5378 596.8445 C703.7673 630.1146, 888.3023 497.7367, 870.5203 538.6876 C852.3583 580.5137, 762.2785 566.9076, 731.807 600.8306 C702.51 633.446, 883.6869 503.2637, 866.2197 543.4753 C848.3716 584.5638, 760.0905 571.5613, 730.0755 604.8167 C701.2405 636.7648, 879.0655 508.7844, 861.9078 548.2527 C844.3682 588.5997, 757.9003 576.2155, 728.343 608.802 C699.9714 640.0814, 874.4311 514.2958, 857.5842 553.0195 C840.3541 592.624, 755.6752 580.8409, 726.6093 612.7872 C698.7331 643.4257, 869.7917 519.8027, 853.253 557.7799 C836.3298 596.64, 753.449 585.4667, 724.8741 616.7714 C697.4934 646.7679, 865.1484 525.3047, 848.9143 562.5331 C832.2942 600.6467, 751.2391 590.1093, 723.1371 620.7549 C696.2347 650.0922, 860.4896 530.7958, 844.5648 567.2762 C828.2526 604.6443, 748.9913 594.7197, 721.3984 624.7379 C695.0087 653.4472, 855.8346 536.2861, 840.2097 572.0142 C824.1956 608.6325, 746.7385 599.3264, 719.6571 628.7195 C693.7827 656.8027, 851.1647 541.7678, 835.8488 576.7473 C820.1419 612.6198, 744.498 603.9458, 717.914 632.7006 C692.5417 660.1448, 846.5033 547.2495, 831.48 581.4728 C816.0635 616.5922, 742.2321 608.5433, 716.1672 636.6797 C691.3176 663.5045, 841.819 552.7183, 827.1066 586.1939 C811.9991 620.5685, 739.9586 613.1346, 714.4186 640.6584 C690.0972 666.869, 837.1553 558.1946, 822.7289 590.9116 C807.9046 624.5309, 737.6855 617.7276, 712.6652 644.6349 C688.8671 670.2278, 832.46 563.6533, 818.3465 595.6245 C803.8333 628.5011, 735.4028 622.3118, 710.9102 648.6105 C687.6431 673.5933, 827.7943 569.123, 813.9604 600.334 C799.7236 632.4541, 733.1068 626.885, 709.1492 652.5836 C686.4199 676.9646, 823.091 574.5736, 809.572 605.0414 C795.648 636.4217, 730.8096 631.4567, 707.3867 656.5558 C685.1951 680.3354, 818.4265 580.0395, 805.1812 609.7464 C791.5272 640.37, 728.5041 636.0218, 705.6169 660.5251 C683.9639 683.707, 813.7173 585.4823, 800.7883 614.4494 C787.4486 644.3369, 726.1901 640.5784, 703.8456 664.4935 C682.7379 687.085, 809.0558 590.9454, 796.3947 619.1519 C783.3185 648.283, 723.8681 645.1283, 702.066 668.4581 C681.5032 690.4619, 804.3432 596.3832, 792.0004 623.8541 C779.2404 652.2536, 721.5423 649.674, 700.285 672.4222 C680.2692 693.8418, 799.6862 601.8444, 787.6065 628.5562 C775.1047 656.2012, 719.2051 654.2096, 698.4943 676.3818 C679.027 697.2228, 794.9745 607.2783, 783.2136 633.2591 C771.0281 660.1775, 716.867 658.7433, 696.7021 680.341 C677.7828 700.6046, 790.3226 612.7386, 778.8215 637.9632 C766.8907 664.1304, 714.5149 663.2644, 694.8992 684.2951 C676.5308 703.9886, 785.6144 618.1707, 774.432 642.6694 C762.8173 668.1152, 712.1596 667.7812, 693.0946 688.2487 C675.2783 707.3757, 780.9705 623.6318, 770.0455 647.3785 C758.6825 672.0776, 709.7966 672.291, 691.2783 692.1967 C674.0103 710.7585, 776.2695 629.0643, 765.662 652.0905 C754.6135 676.0739, 707.4314 676.7972, 689.4599 696.144 C672.7401 714.1433, 771.632 634.5259, 761.2817 656.806 C750.4843 680.0486, 705.0453 681.2845, 687.6289 700.0854 C671.4644 717.5349, 766.9434 639.9615, 756.9083 661.527 C746.423 684.0601, 702.6666 685.7759, 685.7955 704.0255 C670.1773 720.9197, 762.3167 645.426, 752.5396 666.2527 C742.3056 688.0527, 700.2776 690.258, 683.9487 707.9594 C668.8737 724.3014, 757.6415 650.8655, 748.176 670.9831 C738.25 692.0793, 697.8767 694.7271, 682.0985 711.8917 C667.5742 727.6923, 753.0261 656.3334, 743.8207 675.721 C734.1479 696.0931, 695.4675 699.1878, 680.2346 715.8174 C666.2554 731.0782, 748.3717 661.7813, 739.4738 680.4665 C730.1044 700.1417, 693.0609 703.649, 678.366 719.7412 C664.9253 734.46, 743.7682 667.2537, 735.1341 685.2189 C726.0213 704.1801, 690.6437 708.0997, 676.4836 723.6581 C663.5778 737.8383, 739.1342 672.7094, 730.8024 689.9783 C721.9872 708.2491, 688.2056 712.5294, 674.5952 727.5721 C662.2371 741.2308, 734.547 678.1893, 726.4846 694.7505 C717.9315 712.3196, 685.7734 716.9629, 672.693 731.4794 C660.8644 744.6066, 729.9435 683.6597, 722.1766 699.5315 C713.9136 716.4171, 683.3366 721.3903, 670.7827 735.3831 C659.4802 747.9811, 725.3694 689.1448, 717.8788 704.3219 C709.8848 720.5189, 680.8852 725.8032, 668.8594 739.2801 C658.0835 751.3563, 720.796 694.6293, 713.5941 709.1237 C705.8823 724.6439, 678.4187 730.2003, 666.9257 743.1718 C656.6797 754.7358, 716.2441 700.1258, 709.3262 713.9406 C701.8915 728.7874, 675.9569 734.5997, 664.9797 747.0577 C655.2482 758.1022, 711.7086 705.6302, 705.0715 718.7692 C697.91 732.9463, 673.4861 738.9894, 663.0203 750.9368 C653.7982 761.4642, 707.1747 711.1351, 700.8307 723.6102 C693.9558 737.1295, 671.0018 743.365, 661.0503 754.8106 C652.3395 764.8293, 702.679 716.66, 696.6082 728.4667 C689.9976 741.3235, 668.5013 747.7245, 659.0632 758.6753 C650.8615 768.1914, 698.1749 722.1813, 692.4067 733.3416 C686.0928 745.5578, 666.0081 752.0872, 657.0679 762.5358 C649.3611 771.5428, 693.7249 727.7319, 688.2227 738.2316 C682.1641 749.7929, 663.4988 756.4354, 655.0507 766.3852 C647.8326 774.8862, 689.2471 733.2661, 684.0575 743.1371 C678.3066 754.0756, 660.985 760.7757, 653.0284 770.2317 C646.2975 778.231, 684.8443 738.8426, 679.9141 748.0613 C674.4102 758.3527, 658.4417 765.0912, 650.9788 774.064 C644.735 781.5711, 680.4146 744.4047, 675.7989 753.0092 C670.6049 762.6918, 655.9116 769.4133, 648.9246 777.8934 C643.1519 784.9, 676.0539 750.006, 671.7067 757.9759 C666.769 767.0284, 653.3616 773.7185, 646.8436 781.7087 C641.5344 788.217, 671.6783 755.5989, 667.6386 762.9628 C663.0022 771.4144, 650.8082 778.0178, 644.7534 785.5188 C639.9015 791.5295, 667.3516 761.2201, 663.5964 767.9705 C659.2339 775.8127, 648.2287 782.2946, 642.6408 789.3165 C638.2468 794.838, 663.0457 766.8542, 659.5891 773.0062 C655.5167 780.2538, 645.6464 786.5671, 640.5119 793.1053 C636.563 798.1339, 658.7719 772.5078, 655.6144 778.0675 C651.8326 784.7264, 643.0576 790.832, 638.3658 796.8842 C634.8514 801.4175, 654.5363 778.1841, 651.6716 783.1535 C648.1718 789.2245, 640.4521 795.0828, 636.1954 800.6492 C633.1072 804.6874, 650.314 783.8684, 647.7624 788.2654 C644.5697 793.7673, 637.8428 799.3282, 634.0141 804.4081 C631.3445 807.95, 646.1493 789.5893, 643.8885 793.4051 C640.9732 798.3258, 635.2023 803.55, 631.799 808.1469 C629.5424 811.1948, 642.0004 795.3195, 640.0592 798.5774 C637.4583 802.9426, 632.5618 807.7696, 629.5746 811.8802 C627.7209 814.4309, 637.9135 801.0886, 636.2761 803.7832 C633.9667 807.5837, 629.9019 811.9746, 627.3179 815.594 C625.8548 817.6432, 633.8543 806.875, 632.5368 809.0208 C630.5404 812.2722, 627.2332 816.1725, 625.0439 819.2974 C623.9622 820.8416, 629.8406 812.6915, 628.844 814.2919 C627.1599 816.9962, 624.5499 820.3599, 622.7467 822.9863 C622.0361 824.0212, 625.8737 818.537, 625.2015 819.5973 C623.8317 821.7576, 621.8461 824.5334, 620.4194 826.6566 C620.0695 827.1772, 621.95 824.4102, 621.6122 824.9389 C620.5727 826.5659, 619.1395 828.7047, 618.0798 830.3187" fill="none" stroke="black" stroke-width="0.1" />
</svg>